<svg width="126" height="30" viewBox="0 0 126 30" fill="none" xmlns="http://www.w3.org/2000/svg">
<g clip-path="url(#clip0_85_293)">
<path d="M47.1795 13.8079H38.8695C38.9957 13.0656 39.3152 12.3697 39.7958 11.7901C40.2764 11.2106 40.9012 10.7678 41.6072 10.5065C42.3133 10.2451 43.0758 10.1743 43.8179 10.3013C44.56 10.4283 45.2556 10.7485 45.8347 11.2297C46.5876 11.8922 47.0669 12.8113 47.1795 13.8079ZM50.387 16.0804C50.4229 15.6417 50.4445 15.3037 50.4445 15.0664C50.4717 13.6884 50.1448 12.3265 49.4952 11.111C48.8886 9.99282 47.9754 9.07095 46.8631 8.45369C45.6933 7.81025 44.3755 7.48421 43.0407 7.50798C41.6815 7.48653 40.3399 7.81729 39.1464 8.46807C38.012 9.08898 37.0759 10.0176 36.446 11.147C35.7874 12.3224 35.4513 13.6509 35.4715 14.9981C35.4562 16.3543 35.8065 17.6895 36.4855 18.8636C37.1558 20.0085 38.1404 20.937 39.3226 21.5389C40.51 22.1049 41.7984 22.4283 43.1123 22.4901C44.4263 22.5518 45.7393 22.3507 46.9745 21.8985C47.9447 21.5193 48.8032 20.9008 49.47 20.1006L48.3517 18.8456H48.3338C48.1322 18.646 47.8669 18.5236 47.5842 18.4999C47.3015 18.4762 47.0195 18.5528 46.7876 18.7162C45.8549 19.3263 44.7589 19.6385 43.6448 19.6115C42.5144 19.6512 41.4024 19.3176 40.4805 18.6622C39.6369 18.0491 39.0695 17.1277 38.9019 16.0984L50.387 16.0804ZM60.9371 23.4842L67.7908 7.6626H65.565C65.2483 7.66381 64.9386 7.7555 64.6723 7.92687C64.406 8.09825 64.1942 8.34216 64.0619 8.62988L59.8584 18.4968L55.6693 8.67303C55.5448 8.37836 55.3377 8.12608 55.0728 7.94674C54.808 7.76741 54.4968 7.66871 54.177 7.6626H51.6779L58.0605 22.3623L57.8124 22.9377C57.5775 23.5349 57.2084 24.0701 56.7336 24.5019C56.3026 24.8229 55.7747 24.9866 55.2378 24.9657C54.7723 24.9647 54.3116 24.8718 53.8821 24.6924C53.8209 24.6677 53.7609 24.6401 53.7023 24.6097C53.5567 24.5591 53.4035 24.5336 53.2493 24.5342C52.9916 24.5334 52.7389 24.6048 52.5197 24.7401C52.3004 24.8755 52.1234 25.0695 52.0087 25.3001C52.0019 25.309 51.9934 25.3164 51.9835 25.3217L51.3543 26.476C51.8626 26.9252 52.4608 27.2611 53.109 27.4612C53.8042 27.6962 54.5327 27.8176 55.2665 27.8208C56.4465 27.8557 57.6072 27.5159 58.5819 26.8499C59.4976 26.1979 60.2755 25.0772 60.9156 23.4878M80.7538 15.0017C80.7552 15.9082 80.4876 16.7948 79.985 17.5491C79.4823 18.3035 78.7671 18.8918 77.9299 19.2395C77.0928 19.5873 76.1713 19.6788 75.282 19.5026C74.3928 19.3263 73.5759 18.8902 72.9346 18.2495C72.2934 17.6087 71.8566 16.7921 71.6797 15.903C71.5028 15.014 71.5936 14.0924 71.9406 13.2549C72.2877 12.4175 72.8754 11.7019 73.6294 11.1986C74.3834 10.6953 75.2698 10.4271 76.1763 10.4278C77.3906 10.4278 78.5553 10.91 79.4143 11.7683C80.2733 12.6266 80.7564 13.7909 80.7574 15.0053M83.6772 15.0053C83.6772 13.5217 83.2372 12.0715 82.413 10.838C81.5888 9.60449 80.4174 8.64308 79.0467 8.07536C77.6761 7.50763 76.1679 7.35909 74.7129 7.64852C73.2579 7.93794 71.9213 8.65233 70.8723 9.70135C69.8233 10.7504 69.1089 12.0869 68.8195 13.5419C68.5301 14.997 68.6786 16.5051 69.2463 17.8758C69.8141 19.2464 70.7755 20.4178 72.009 21.2421C73.2425 22.0663 74.6927 22.5062 76.1763 22.5062C77.1614 22.5067 78.137 22.313 79.0473 21.9362C79.9576 21.5594 80.7846 21.0069 81.4813 20.3103C82.1779 19.6137 82.7304 18.7866 83.1072 17.8763C83.4839 16.9661 83.6776 15.9905 83.6772 15.0053ZM104.159 22.294L109.553 7.64822H107.694C107.352 7.64324 107.017 7.74428 106.735 7.93746C106.453 8.13064 106.238 8.40645 106.119 8.72697L102.523 18.5184L98.5675 7.65901H95.6908L91.6851 18.4681L88.1971 8.71978C88.0763 8.40879 87.8644 8.14151 87.5891 7.95289C87.3139 7.76427 86.9882 7.6631 86.6545 7.6626H84.5869L89.9555 22.294H93.2457L97.086 12.2257L100.869 22.294H104.159ZM122.544 14.9837C122.549 15.891 122.285 16.7793 121.784 17.536C121.284 18.2928 120.57 18.8838 119.733 19.2343C118.896 19.5848 117.974 19.6789 117.084 19.5047C116.193 19.3305 115.375 18.8959 114.732 18.2558C114.089 17.6158 113.65 16.7993 113.472 15.9097C113.293 15.0201 113.383 14.0976 113.73 13.2591C114.076 12.4207 114.664 11.7039 115.418 11.1999C116.173 10.6958 117.06 10.4271 117.967 10.4278C118.568 10.4278 119.163 10.5462 119.719 10.7762C120.274 11.0063 120.779 11.3435 121.204 11.7685C121.629 12.1936 121.966 12.6982 122.196 13.2536C122.426 13.8089 122.544 14.4042 122.544 15.0053M125.468 15.0053C125.469 13.5214 125.031 12.0705 124.207 10.8361C123.384 9.60159 122.213 8.63906 120.842 8.07023C119.472 7.50141 117.964 7.35184 116.508 7.64045C115.053 7.92906 113.715 8.64288 112.666 9.69162C111.616 10.7403 110.901 12.0769 110.611 13.5321C110.321 14.9873 110.469 16.4959 111.036 17.8669C111.604 19.2379 112.565 20.4098 113.799 21.2344C115.033 22.0589 116.483 22.499 117.967 22.499C118.952 22.4995 119.928 22.3058 120.838 21.929C121.748 21.5522 122.575 20.9997 123.272 20.3031C123.969 19.6065 124.521 18.7794 124.898 17.8691C125.275 16.9589 125.468 15.9833 125.468 14.9981" fill="#FAFAFA"/>
<path d="M30.5272 14.9981C30.5272 12.0311 29.6474 9.13062 27.999 6.66359C26.3505 4.19656 24.0076 2.27374 21.2664 1.13829C18.5251 0.00283795 15.5088 -0.294248 12.5987 0.2846C9.68865 0.863448 7.01559 2.29223 4.91755 4.39027C2.81951 6.48831 1.39073 9.16137 0.811883 12.0714C0.233035 14.9815 0.530121 17.9979 1.66557 20.7391C2.80102 23.4803 4.72384 25.8233 7.19087 27.4717C9.65791 29.1201 12.5583 29.9999 15.5254 29.9999C19.5041 29.9999 23.3199 28.4194 26.1333 25.606C28.9467 22.7926 30.5272 18.9769 30.5272 14.9981Z" fill="#FD6C00"/>
<path d="M19.9986 9.53249C19.8301 9.86513 19.6077 10.1677 19.3406 10.4279C19.2063 10.5573 19.0634 10.6775 18.9127 10.7874C18.8372 10.8378 18.7617 10.8917 18.679 10.9385C18.6386 10.9641 18.5966 10.9869 18.5531 11.0068L18.5208 11.0248H18.4956L18.456 11.0427C18.3481 11.0948 18.2531 11.1702 18.1778 11.2635C18.1026 11.3568 18.049 11.4656 18.0209 11.5821C18.0067 11.6361 17.9995 11.6917 17.9994 11.7475C17.9976 11.7739 17.9976 11.8003 17.9994 11.8266C17.9977 11.8398 17.9977 11.8531 17.9994 11.8662V11.9129C18.0565 12.1434 18.0466 12.3855 17.9706 12.6105C17.9041 12.8263 17.7877 13.0233 17.6309 13.1857C17.4741 13.3481 17.2813 13.4714 17.068 13.5454C16.8957 13.6035 16.7469 13.7158 16.6437 13.8655C16.546 13.9949 16.5033 14.1578 16.5251 14.3185V14.5631C16.5288 14.8354 16.4471 15.102 16.2913 15.3254C16.1014 15.6084 15.8233 15.8208 15.5003 15.9295L15.4283 15.951L15.3636 15.9798L15.245 16.0445C15.1711 16.0952 15.1055 16.1571 15.0508 16.2279C14.9988 16.2899 14.9597 16.3615 14.9356 16.4386C14.9116 16.5158 14.903 16.5969 14.9105 16.6774V16.7098C14.9123 16.7325 14.9123 16.7553 14.9105 16.7781V16.9219C14.914 17.1986 14.8324 17.4697 14.6768 17.6986C14.5801 17.8457 14.4584 17.9746 14.3172 18.0798C14.2491 18.134 14.1756 18.181 14.0979 18.22L13.9792 18.274L13.9217 18.2955H13.8713C13.7093 18.3469 13.5697 18.4522 13.4758 18.594C13.4347 18.6631 13.4078 18.7397 13.3967 18.8194C13.3855 18.899 13.3904 18.9801 13.4111 19.0578L13.4291 19.1513V19.2844C13.438 19.3717 13.438 19.4596 13.4291 19.5469C13.4114 19.7189 13.3613 19.886 13.2816 20.0395C13.1252 20.3491 12.8621 20.5918 12.5409 20.7227C12.5168 20.7332 12.4914 20.7405 12.4654 20.7443C12.4372 20.7551 12.4106 20.7696 12.3863 20.7874C12.3327 20.8224 12.2842 20.8648 12.2424 20.9133C12.1586 21.0169 12.104 21.1411 12.0842 21.2729C12.077 21.3434 12.077 21.4145 12.0842 21.485V21.6001C12.0988 21.6593 12.1096 21.7193 12.1166 21.7799C12.147 22.0225 12.1199 22.2689 12.0375 22.4991C11.951 22.7377 11.7974 22.9462 11.5952 23.0996L11.5125 23.1499L11.4298 23.193L11.3686 23.2218L11.3291 23.2434C11.2705 23.2803 11.2193 23.3279 11.1781 23.3836C11.0899 23.5137 11.0389 23.6654 11.0306 23.8223C11.0166 23.9904 11.0387 24.1596 11.0954 24.3185V24.3401C11.1103 24.3897 11.1056 24.4432 11.0822 24.4894C11.0587 24.5356 11.0184 24.571 10.9695 24.5882C10.9452 24.599 10.9188 24.6046 10.8922 24.6046C10.8656 24.6046 10.8392 24.599 10.8149 24.5882L10.689 24.5127L10.6423 24.4516L10.5955 24.3941C10.5707 24.3607 10.5479 24.3259 10.5272 24.2898C10.4811 24.2204 10.439 24.1484 10.4014 24.074C10.3203 23.9249 10.2506 23.7698 10.1928 23.6102C10.1339 23.4393 10.0965 23.2617 10.0813 23.0816C10.0765 22.9804 10.0837 22.879 10.1029 22.7795C10.1262 22.6574 10.1807 22.5435 10.2611 22.4487L10.2827 22.4271V22.4056C10.2911 22.3881 10.2984 22.3701 10.3043 22.3516C10.3196 22.3036 10.3305 22.2542 10.3366 22.2042C10.3505 22.0847 10.3505 21.9641 10.3366 21.8446C10.3226 21.723 10.2986 21.6027 10.2647 21.485C10.2467 21.4275 10.2252 21.3736 10.2036 21.3196C10.182 21.2657 10.1784 21.2657 10.1676 21.2369L10.1497 21.201L10.1245 21.1542C9.97135 20.8549 9.9065 20.5181 9.93751 20.1833C9.95869 19.9935 10.0213 19.8106 10.1209 19.6476C10.1768 19.5628 10.2433 19.4854 10.3187 19.4174C10.3569 19.382 10.3978 19.3496 10.4409 19.3203C10.4649 19.3093 10.4878 19.2961 10.5092 19.2808L10.5596 19.2556H10.5812C10.7058 19.1671 10.799 19.0411 10.8473 18.896C10.8761 18.8113 10.893 18.7229 10.8976 18.6335V18.3315C10.8652 18.1535 10.8725 17.9705 10.9192 17.7957C10.9633 17.6215 11.0415 17.4577 11.1493 17.3139C11.352 17.045 11.6376 16.8504 11.962 16.7601H12.0483L12.1166 16.7313L12.2496 16.663C12.333 16.6095 12.4091 16.5454 12.4762 16.4724C12.539 16.4054 12.5889 16.3274 12.6236 16.2423C12.6366 16.2088 12.6451 16.1738 12.6488 16.138C12.6504 16.1225 12.6504 16.1068 12.6488 16.0913V15.9618C12.661 15.7572 12.7253 15.5592 12.8357 15.3865C12.9324 15.2343 13.054 15.0993 13.1953 14.9874C13.4558 14.7803 13.7633 14.6407 14.0907 14.581H14.1195C14.3095 14.5313 14.4862 14.4405 14.6373 14.3149C14.7092 14.2553 14.7701 14.1835 14.817 14.1028C14.8362 14.0727 14.8507 14.04 14.8602 14.0057C14.8619 13.9914 14.8619 13.9769 14.8602 13.9626C14.8616 13.9566 14.8616 13.9505 14.8602 13.9446V13.8763C14.8693 13.6738 14.9299 13.477 15.0364 13.3045C15.1369 13.1584 15.258 13.0276 15.396 12.9162C15.6515 12.7114 15.9503 12.5676 16.2698 12.4955C16.5169 12.4465 16.7422 12.3206 16.9134 12.1359C16.9777 12.0622 17.0179 11.9706 17.0285 11.8734C17.0302 11.8639 17.0302 11.8541 17.0285 11.8446V11.8194C17.0213 11.7585 17.0213 11.697 17.0285 11.6361C17.0336 11.5125 17.0604 11.3908 17.1076 11.2765C17.1896 11.0763 17.312 10.8951 17.4672 10.7443C17.61 10.596 17.778 10.4742 17.9634 10.3847L18.1036 10.3236L18.172 10.2984H18.1899C18.254 10.2696 18.3165 10.2372 18.3769 10.2013C18.5042 10.1272 18.6245 10.0417 18.7365 9.94601C18.9671 9.75385 19.1651 9.52555 19.3226 9.27C19.4865 9.00917 19.6079 8.72393 19.6822 8.42498C19.81 7.79977 19.81 7.15518 19.6822 6.52998C19.6753 6.51085 19.6723 6.49056 19.6733 6.47027C19.6743 6.44998 19.6793 6.43008 19.688 6.41172C19.6966 6.39335 19.7089 6.37687 19.7239 6.36323C19.739 6.34959 19.7566 6.33905 19.7757 6.33221C19.8119 6.31804 19.8523 6.31879 19.888 6.33429C19.9237 6.34978 19.9519 6.37876 19.9663 6.41491V6.43648C20.0973 6.75982 20.1937 7.0961 20.2539 7.43972C20.3201 7.79545 20.3323 8.15913 20.2899 8.51847C20.2899 8.60837 20.2647 8.70186 20.2467 8.79175C20.2288 8.88165 20.2072 8.97154 20.1784 9.06144C20.1267 9.23964 20.0593 9.41291 19.9771 9.57924M22.2388 8.25597C21.8938 7.35727 21.4268 6.5103 20.8508 5.73889C20.6633 5.48483 20.4578 5.24449 20.236 5.01973C20.0446 5.11223 19.8849 5.25918 19.7768 5.44214C19.6687 5.6251 19.617 5.83592 19.6283 6.04813C19.5638 5.74812 19.4399 5.46405 19.2639 5.2127C19.0879 4.96134 18.8633 4.74778 18.6035 4.58463C18.6035 4.58463 12.3935 3.85468 9.19317 10.6436C6.54305 16.2747 9.06372 24.8651 10.3295 25.4261C11.5952 25.987 19.5851 22.0783 22.0734 16.379C23.4506 13.229 23.1738 10.3272 22.2604 8.20923" fill="#FAFAFA"/>
</g>
<defs>
<clipPath id="clip0_85_293">
<rect width="124.941" height="30" fill="white" transform="translate(0.527222)"/>
</clipPath>
</defs>
</svg>
