<svg width="145" height="30" viewBox="0 0 145 30" fill="none" xmlns="http://www.w3.org/2000/svg">
<g clip-path="url(#clip0_85_250)">
<path fill-rule="evenodd" clip-rule="evenodd" d="M83.5022 0.111072C80.5914 0.421859 77.8359 1.58072 75.5778 3.4438C73.3198 5.30688 71.6586 7.79211 70.8006 10.591C69.9426 13.3898 69.9256 16.3791 70.7515 19.1875C71.5775 21.996 73.2101 24.5001 75.4467 26.3888C77.3351 27.9836 79.5896 29.085 82.0082 29.5945C84.4268 30.104 86.934 30.0057 89.3053 29.3083C91.6765 28.611 93.8378 27.3363 95.5955 25.5986C97.3533 23.8609 98.6525 21.7143 99.3769 19.3511C100.101 16.988 100.228 14.4821 99.7465 12.0578C99.2647 9.63351 98.1891 7.3666 96.6161 5.46008C95.043 3.55356 93.0217 2.06697 90.733 1.13346C88.4444 0.199951 85.96 -0.151333 83.5022 0.111072ZM83.5578 0.444405C87.3975 0.0577406 91.2343 1.20586 94.2305 3.63811C97.2267 6.07036 99.1389 9.58919 99.5498 13.4264C99.9607 17.2636 98.8368 21.1075 96.4235 24.119C94.0101 27.1305 90.5034 29.0649 86.6689 29.5C84.7547 29.7171 82.8164 29.5536 80.9656 29.0188C79.1148 28.484 77.3881 27.5885 75.8847 26.3837C74.3814 25.179 73.1311 23.6888 72.2059 21.999C71.2807 20.3092 70.6988 18.4531 70.4937 16.5376C70.2886 14.622 70.4643 12.6848 71.0108 10.8374C71.5572 8.99004 72.4637 7.26897 73.6779 5.77325C74.892 4.27753 76.39 3.0367 78.0856 2.12216C79.7812 1.20762 81.641 0.637431 83.5578 0.444405Z" fill="#ACBB16"/>
<path fill-rule="evenodd" clip-rule="evenodd" d="M84.5022 1.0555C82.4452 1.15091 80.4352 1.70254 78.6176 2.67045C76.8 3.63835 75.2204 4.99831 73.9931 6.65186C72.7658 8.30541 71.9216 10.2112 71.5215 12.2312C71.1215 14.2512 71.1756 16.3349 71.68 18.3314C72.1843 20.3279 73.1264 22.1872 74.4378 23.7749C75.7493 25.3625 77.3974 26.6386 79.2627 27.5108C81.1281 28.3831 83.1641 28.8296 85.2233 28.8181C87.2825 28.8067 89.3134 28.3374 91.1689 27.4444C92.9888 26.5411 94.5893 25.2509 95.8584 23.6643C97.1275 22.0777 98.0346 20.2329 98.5162 18.2591C98.9977 16.2852 99.0421 14.23 98.6463 12.2372C98.2504 10.2444 97.4239 8.36211 96.2245 6.72217C96.0022 6.33328 95.7245 6.16661 95.4467 5.77772C94.1056 4.20542 92.4214 2.96201 90.5239 2.1433C88.6264 1.32458 86.5663 0.952424 84.5022 1.0555ZM84.8356 13.3333C84.8911 13.4444 84.8911 13.2777 84.8911 13.4999L84.6134 14.5555L84.3356 15.8888C83.8911 15.2222 83.5578 13.7777 83.3911 12.8888C83.1689 11.3888 83.3911 10.6111 83.4467 9.22217C83.2245 9.77772 83.1134 10.5555 83.0578 11.2222C82.5022 10.7222 82.4467 10.2777 81.6689 9.99994C82.4467 10.6111 82.78 11.3333 82.8911 12.6111C82.9467 14.1666 83.1689 14.6111 83.4467 15.9444C82.9467 15.6111 82.6689 15.2777 82.28 14.8333C80.3356 12.6111 79.7245 14.1111 78.9467 11.1666C78.8911 12.2777 79.1134 12.3888 79.3911 13.1666C78.78 13.1666 78.1689 13.0555 77.6689 13.3888C78.9467 13.4999 79.8356 13.6666 80.6689 14.2777C82.4467 15.5555 84.6689 19.1666 84.78 21.6666C84.2245 21.3888 83.6689 20.1666 81.1689 19.2222C80.3356 18.9444 79.6689 18.8333 78.9467 18.4444C78.5578 18.1666 77.7245 17.3888 77.7245 16.7777C77.7245 17.4999 78.3911 18.3888 78.6689 18.6111L76.0578 18.7222C77.8356 18.8888 78.6689 18.7222 80.2245 19.3333C81.28 19.7777 82.5022 20.5555 83.1134 21.1666C83.5022 21.6111 84.7245 22.6111 84.5022 23.2222L83.4467 25.8333C83.1134 26.7222 83.1689 26.7777 83.0578 27.7777C79.8418 27.2825 76.9341 25.5841 74.9228 23.0262C72.9116 20.4683 71.9471 17.242 72.2245 13.9999C72.4381 11.5781 73.3295 9.26528 74.7965 7.32648C76.2636 5.38769 78.247 3.90126 80.5197 3.03742C82.7923 2.17357 85.2623 1.96725 87.6468 2.44206C90.0313 2.91688 92.2339 4.05364 94.0022 5.72217L94.3356 6.11106C95.9923 7.83318 97.1377 9.98198 97.6437 12.3174C98.1497 14.6529 97.9965 17.0831 97.2012 19.3365C96.4059 21.5899 94.9998 23.5779 93.1399 25.0783C91.28 26.5788 89.0396 27.5326 86.6689 27.8333C86.28 26.1666 86.4467 25.4999 86.8911 23.8888C87.3911 22.1666 87.6689 22.0555 88.78 21.1666C91.3911 19.1666 92.5022 19.1666 95.0022 18.2777C94.0578 18.2222 93.3356 18.3888 92.4467 18.5555C92.8911 17.7777 93.1134 17.6666 93.2245 16.5555C93.0022 18.6111 90.6134 18.9444 88.4467 20.2777L86.8356 21.3888C85.8356 19.3888 87.28 18.7222 88.78 16.5555C89.1689 15.9999 89.7245 14.8888 89.8911 13.9999C90.1134 12.6111 90.4467 12.4444 91.28 11.6666C90.6134 11.8888 90.3911 12.2777 90.0022 12.6111L89.8356 11.6111C89.78 13.2222 89.7245 14.7222 88.1689 16.1111C88.5022 14.0555 88.3911 13.8888 87.7245 12.2222C88.3911 14.2777 87.8356 16.2222 86.5022 17.7777L85.3356 19.0555C85.1689 18.1111 85.0578 16.9999 85.0578 15.9999C85.0578 15.4999 85.2245 13.8333 85.5578 13.3333C85.6689 12.6111 86.4467 11.3333 86.78 10.8333L88.0578 9.27772L88.5022 8.83328C88.2245 8.99995 87.5022 9.49994 87.3356 9.72217V8.5555L87.0578 7.66661C87.1689 8.27772 87.3356 8.61106 87.1134 9.38883C86.6689 10.8333 84.9467 12.2777 84.8911 13.1666V11.7222C84.28 11.9444 83.6689 12.6111 84.0022 13.4999L84.3356 12.7222L84.1689 13.5555C84.6689 13.4444 84.6134 13.4999 84.8356 13.3333Z" fill="#293737"/>
<path fill-rule="evenodd" clip-rule="evenodd" d="M89.6689 9.11114C90.28 8.83337 90.9467 8.1667 92.1689 8.11114C91.3356 8.44448 90.3356 8.77781 89.8356 9.38892C91.1689 10.7778 92.4467 8.83337 92.9467 8.44448C93.28 8.1667 93.6133 8.11114 93.9467 7.83337C93.1133 7.55559 92.2245 7.22225 91.2245 7.44448C90.3356 7.61114 89.5578 8.11114 89.6689 9.11114ZM90.3356 20.6111C91.8356 20.4445 92.0022 20.6667 93.2245 20.8889C92.0022 20.8334 91.7245 20.6111 90.3356 20.9445C91.3911 23 92.6689 21.3334 94.6133 21.3889C93.4467 19.6667 90.6133 19.1111 90.3356 20.6111ZM76.6133 9.00003L76.78 9.05559L76.8356 9.11114L77.1689 9.22226C77.3911 9.22226 77.5022 9.33337 77.6689 9.38892C78.6133 9.77781 79.5578 10.8334 80.3911 9.22226C79.8911 8.88892 78.78 8.72226 78.1133 8.72226C79.1689 8.6667 79.5022 8.72226 80.3911 8.94448C80.1689 8.22226 79.4467 7.94448 78.5022 8.11114C77.5578 8.22226 77.2245 8.72226 76.6133 9.00003ZM93.6689 17.3889C94.1689 16.9445 94.2245 16.5556 94.9467 16.1667C94.6689 16.6111 94.0578 17 93.8911 17.6667C95.6689 18.2778 95.28 17.1667 96.6689 15.2223C95.1689 15.0556 93.3356 15.8334 93.6689 17.3889ZM86.6133 6.88892C86.6689 6.44448 86.0578 5.61114 85.8911 5.33337C86.4467 5.77781 86.5022 6.11114 86.78 6.50003L86.9467 6.72225C87.1689 5.83337 86.8356 5.38892 86.3356 4.88892C85.8911 4.50003 85.2245 4.11114 84.4467 4.1667C85.3911 5.61114 84.7245 7.27781 86.6133 6.88892ZM90.5022 14.7223C91.0578 15.2223 90.8356 14.7778 92.1133 16.1111C92.0022 15.7778 90.8356 15.1111 90.28 14.8889C89.7245 16.4445 91.3911 16.5556 92.0022 16.7778C92.3911 16.8889 92.6133 17.1111 92.8911 17.2223C92.78 14.6111 90.5578 14.2778 90.5022 14.7223ZM84.6689 11.1667C84.78 10.6111 84.6689 10.1111 84.6689 9.61114L84.7245 9.72226C84.8356 10 84.8911 10.2778 84.8911 11.0556C85.8911 10.4445 85.2245 8.50003 83.8911 7.77781C84.0578 9.27781 82.9467 10.8334 84.6689 11.1667ZM75.1133 11.5C75.9467 11.9445 76.0022 12 76.6133 12.5C77.2245 13.0556 78.0022 12.8889 78.3356 12.1667L76.78 11.5C77.4467 11.5556 77.8356 11.7778 78.3911 11.9445C78.1689 10.8889 76.8911 10.7778 75.9467 11.0556L75.1133 11.5ZM74.3356 16.2223C74.9467 16.7223 75.0022 16.7223 75.5578 17.5C75.8911 18.0556 76.5022 18.3334 77.2245 17.7223C77.0578 17.3334 76.28 16.7778 75.8356 16.6111C76.5578 16.7778 76.8911 17.2778 77.3911 17.5C77.28 16.1111 75.6689 15.8334 74.3356 16.2223ZM81.3356 23.7223C81.8911 22.1111 83.2245 22.7223 83.0578 21.2223C82.5022 21.3889 81.8911 21.9445 81.7245 22.3889C82.0022 21.6111 82.6133 21.2778 82.8911 21C81.3911 19.6667 80.6133 22.7778 81.3356 23.7223ZM82.3356 19.4445C82.5022 18.8334 82.5022 18.6667 82.5022 17.9445C82.6689 18.3889 82.6133 19 82.5022 19.5C83.5578 19.3889 83.6689 18.6667 83.2245 17.7778C82.9467 17.1111 82.3356 16.7223 81.8356 16.3889C81.8911 17.0556 82.0578 17.2223 81.8911 18C81.7245 18.7778 81.7245 19.2223 82.3356 19.4445ZM82.0022 14.1111L81.8911 12.1667L82.2245 14.0556C83.1133 13.5 82.6133 11.7223 81.28 11C81.3911 12.3889 80.3356 13.9445 82.0022 14.1111ZM92.1133 11.9445L93.8356 11.8334C93.2245 11.9445 92.5578 11.8889 92.1133 12.2223C92.6133 13.6667 93.8356 12.2778 94.9467 12.2223C94.8356 11.9445 94.9467 12.1111 94.6689 11.9445L94.3911 11.7223C93.6133 11.2223 92.4467 11.1111 92.1133 11.9445ZM82.6689 9.33337C82.6689 8.94448 82.4467 8.6667 82.3356 8.27781L82.6133 8.61114L82.8356 9.11114C82.8356 9.11114 83.0022 9.05559 83.0578 8.72226C83.1133 8.00003 82.1133 7.11114 81.0578 7.00003L81.5022 8.55559C81.6133 9.22226 81.8911 9.38892 82.6689 9.33337ZM77.28 21.6667C77.6689 21.2223 77.7245 21 78.1689 20.7223C78.6133 20.3889 78.9467 20.3334 78.8911 19.6111C78.5022 19.5556 78.3911 19.7778 78.0578 19.9445C78.28 19.6111 78.4467 19.5556 78.6689 19.3334C77.3911 18.2778 76.8911 20.4445 77.28 21.6667ZM77.5578 15.8889C78.0578 15.6667 78.1689 15.4445 78.78 15.3334C79.3911 15.1667 79.7245 15.1667 79.7245 14.4445C79.1133 14.5 79.0578 14.6111 78.5578 14.7778C79.0578 14.4445 79.1133 14.5 79.6689 14.2778C79.3911 13.2223 77.8356 13.7223 77.5578 15.8889ZM87.8356 19.8334L88.5022 18.6111C88.3356 19.0556 88.1689 19.3334 88.0578 19.9445C89.3911 19.9445 88.9467 19.2223 89.4467 17.5556C88.5578 17.7778 87.4467 18.6667 87.8356 19.8334ZM86.0578 16.8334L86.5022 15.5L86.2245 16.8889C87.5578 17.0556 87.0578 15.5556 87.28 14.4445C86.6133 14.6667 85.1689 16.1111 86.0578 16.8334ZM88.5022 21.8889L88.6133 21.9445L88.78 22L89.5578 22.3889C89.1133 22.2778 88.9467 22.1667 88.3356 22.1111C88.4467 23.5 89.4467 23 90.6689 23.3334C90.5578 22.7778 90.2245 22.3889 89.9467 22.1111C89.6689 21.8334 88.9467 21.3889 88.5022 21.8889ZM74.7245 14.1111C75.3356 14.0556 75.5578 14 76.1133 14.2223C76.6689 14.3889 77.0022 14.3889 77.1689 13.9445C76.78 13.6667 76.5022 13.7778 76.0578 13.6667L77.2245 13.7778C77.2245 12.1111 75.1689 13.2223 74.7245 14.1111ZM84.6689 7.61114C84.78 7.33337 84.5022 7.00003 84.3356 6.61114C84.5022 6.83337 84.7245 7.22225 84.9467 7.38892C85.2245 6.94448 84.78 6.38892 84.5022 6.22225C84.1689 5.94448 83.78 5.83337 83.28 5.77781C83.8356 7.05559 83.78 7.77781 84.6689 7.61114ZM91.8911 10.2778C92.3356 10.1667 92.5022 10 92.9467 10C92.6133 10.1111 92.1689 10.2223 91.9467 10.4445C92.2245 10.8334 92.6133 11.0556 93.1133 10.6111L94.2245 9.94448C93.6133 9.55559 92.1689 9.22226 91.8911 10.2778ZM80.4467 21.8334C80.5022 21.3889 80.5022 21.1667 80.6689 20.7778C81.2245 19.7778 80.78 19.3889 80.4467 20.1111L80.28 20.6667C80.28 20.1667 80.4467 20.0556 80.5578 19.6667C79.2245 19.6667 79.6133 21.1667 80.4467 21.8334ZM85.7245 13.2223H86.5022L85.78 13.5556C86.1689 14.4445 86.78 13.8334 87.6689 13.3889L87.8911 13.2223C87.5578 13.0556 86.9467 12.6111 86.1689 12.8889L85.8911 13.0556V13.1111L85.8356 13.1667L85.7245 13.2223ZM90.78 13.7778C91.1133 13.6667 91.3911 13.5556 91.78 13.5556C91.3911 13.6111 91.0578 13.6667 90.78 13.9445C91.28 14.7778 91.8911 14 92.2245 13.7778L92.7245 13.5556C92.1689 13.2223 91.0578 12.8334 90.78 13.7778ZM84.8356 13.3334L85.0578 13.1111V11.6667C84.4467 11.8889 83.8356 12.5556 84.1689 13.3889L84.5022 12.6111L84.3356 13.5C84.6689 13.4445 84.6133 13.5 84.8356 13.3334ZM89.5578 10.8334L89.3356 10L89.4467 10.1667L89.6689 10.5556L89.8356 10.7223C90.5022 9.88892 89.4467 9.33337 88.4467 9.27781L88.5578 9.50003C89.28 10.6111 88.8356 10.8334 89.5578 10.8334ZM88.8911 7.83337L89.0022 7.77781C89.5578 7.61114 89.4467 6.55559 88.78 6.00003C88.3911 7.00003 88.1689 7.61114 88.8911 7.83337ZM80.5022 16.8889C80.78 16.6111 80.6689 16.5 81.1133 16C81.2245 15.8334 81.3911 15.7778 81.3911 15.5C81.28 15.1111 81.2245 15.3334 80.9467 15.5C81.1133 15.2223 81.28 15.1111 80.8911 15.0556C80.6689 15.0556 80.5022 15.2223 80.3911 15.3889C80.1689 15.9445 80.3911 16.4445 80.5022 16.8889ZM85.7245 10.1667L86.0022 10L86.1689 9.72226L86.0022 10.2778C87.0578 10.5 86.6689 8.88892 86.2245 8.61114C85.8356 9.72226 85.5578 9.50003 85.7245 10.1667ZM88.8911 14.0556L89.2245 13.6667L89.0578 14.1111C89.7245 13.9445 89.8911 13.0556 89.5022 12.5L89.4467 12.5556C89.3911 12.8334 89.4467 12.5556 89.3911 12.6667C88.9467 13.1667 88.28 13.5556 88.8911 14.0556ZM88.8911 16.8889L89.5578 16.7223C89.2245 16.8334 89.2245 16.7778 88.9467 17.0556C89.1689 17.3334 89.3911 17.4445 89.8356 17.1667L90.5022 16.7223L90.4467 16.5556L90.1689 16.4445L89.6689 16.3889C89.2245 16.3889 89.0578 16.5556 88.8911 16.8889ZM93.6689 19.1667L94.2245 19.0556C94.0022 19.1667 93.8911 19.1111 93.7245 19.3889C94.1133 19.8334 94.28 19.6667 95.1133 19.1111L95.28 18.9445C94.7245 18.7778 94.0022 18.3889 93.6689 19.1667ZM80.3356 18.7778L80.6133 18.2778L80.5022 18.8889C81.3911 18.7778 81.0578 18.2223 81.2245 17.3889C80.7245 17.5 79.8911 18.1667 80.3356 18.7778ZM79.3911 18.2223C79.5578 18 79.5022 18 79.5022 17.7223L79.5578 17.8889L79.6133 18L79.7245 18.1667C79.8911 17.4445 79.6689 16.8889 79.0578 16.5556C79.1133 17.3889 78.6133 18.0556 79.3911 18.2223ZM90.7245 18.5556L90.8356 18.3889L90.9467 18.6667C92.0022 18.6111 91.2245 17.3889 90.8911 17.1667C90.8356 17.7778 90.4467 18.2223 90.7245 18.5556ZM79.3911 11.6111L79.6133 11.6667H79.8356C79.4467 11.7223 79.5022 11.7223 79.3911 11.9445C79.6689 12.1111 79.8356 12.2223 80.1689 12L80.8911 11.6111C80.4467 11.3334 79.7245 11.0556 79.3911 11.6111ZM89.1689 12C89.3911 11.6667 89.1133 11.9445 89.2245 11.7778L89.3911 11.6667C89.2245 11.2223 88.8911 11.1111 88.3911 11.0556C88.78 11.9445 88.6689 12 89.1689 12ZM87.5578 12L87.3911 11.4445L87.7245 11.8334C87.78 11.2778 87.4467 11.0556 86.8911 11C87.0578 11.6111 86.9467 11.9445 87.5578 12ZM0.335571 13.8334V11.0556H2.50224V10.5556C2.50224 7.61114 3.89113 6.1667 6.72446 6.1667C7.78002 6.1667 8.55779 6.27781 9.05779 6.61114C9.61335 6.88892 9.89113 7.33337 9.89113 7.88892C9.89113 8.38892 9.72446 8.88892 9.39113 9.44448C8.83557 9.1667 8.1689 9.00003 7.44668 9.00003C6.83557 9.00003 6.39113 9.11114 6.11335 9.38892C5.83557 9.6667 5.6689 10.1111 5.6689 10.6667V11.1111L9.05779 11.0556V13.8334L5.94668 13.7778V22.6111H2.50224V13.7778L0.335571 13.8334ZM19.8356 22.6111H17.78C16.6689 22.6111 16.0022 22 15.8911 20.7778C15.1689 22.1667 13.9467 22.8334 12.2245 22.8334C11.1689 22.8334 10.3356 22.5556 9.61335 21.9445C9.24321 21.6457 8.94942 21.2632 8.75623 20.8285C8.56304 20.3938 8.47598 19.9194 8.50224 19.4445C8.50224 16.8334 10.3911 15.5 14.2245 15.5H15.8356C15.8356 14.7778 15.6689 14.2778 15.3356 13.9445C15.0022 13.6667 14.3911 13.5 13.6689 13.5C12.2245 13.5 11.0022 13.8334 9.94668 14.5C9.61335 14 9.39113 13.4445 9.39113 12.8334C9.39113 12.2223 9.61335 11.8334 10.0022 11.6111C10.9467 11.0556 12.28 10.7778 13.9467 10.7778C15.6133 10.7778 16.8911 11.1667 17.8356 11.9445C18.78 12.7778 19.2245 13.8889 19.2245 15.3889V19.8889C19.28 21.1667 19.4467 22 19.8356 22.6111ZM13.0022 20.2223C14.1133 20.2223 15.1133 19.7778 15.8911 18.7223V17.5H14.28C12.5578 17.5 11.6689 18 11.6689 19.0556C11.6689 19.3889 11.78 19.6667 12.0578 19.8889C12.3356 20.1111 12.6133 20.2223 13.0022 20.2223ZM24.5022 13C24.78 12.4445 25.28 11.9445 25.8911 11.5C26.5022 11.0556 27.2245 10.8334 27.9467 10.8334C28.5578 10.8334 29.0578 11 29.5022 11.3334C29.9467 11.7223 30.1133 12.2223 30.1133 12.8889C30.1133 13.6111 29.9467 14.2778 29.6689 15C29.0301 14.4277 28.1924 14.1285 27.3356 14.1667C26.1689 14.1667 25.2245 14.6111 24.4467 15.5V22.6111H21.0022V11.0556H22.3911C23.1133 11.0556 23.6133 11.2223 23.9467 11.5556C24.28 11.8334 24.4467 12.3889 24.5022 13ZM45.2245 20.6111V15.2778C45.2245 14.2223 44.7245 13.6667 43.8356 13.6667C43.3356 13.6667 42.8356 13.8334 42.3356 14.1667C41.8911 14.5 41.5578 14.8889 41.3356 15.3334V22.6111H37.9467V15.2778C37.9467 14.2223 37.4467 13.6667 36.5578 13.6667C36.0022 13.6667 35.5578 13.8334 35.0578 14.1667C34.6133 14.5 34.28 14.8889 34.0022 15.3334V22.6111H30.6133V11.0556H31.9467C32.6689 11.0556 33.1689 11.2223 33.5022 11.5C33.78 11.8334 33.9467 12.2778 34.0022 12.8889C34.9467 11.5556 36.2245 10.8334 37.9467 10.8334C39.5578 10.8334 40.5578 11.6111 41.0578 13.1111C41.4756 12.41 42.0699 11.8306 42.7816 11.431C43.4932 11.0313 44.2972 10.8252 45.1133 10.8334C46.2245 10.8334 47.1133 11.1667 47.7245 11.8889C48.3356 12.6111 48.6133 13.6667 48.6133 14.9445V22.6111H47.3356C45.8911 22.6111 45.2245 21.9445 45.2245 20.6111Z" fill="#ACBB16"/>
<path fill-rule="evenodd" clip-rule="evenodd" d="M51.3356 21.2222C50.28 20.1666 49.7245 18.7222 49.7245 16.7778C49.7245 14.9444 50.28 13.4444 51.3356 12.3889C52.3912 11.2778 53.8912 10.7222 55.78 10.7222C57.0578 10.7222 58.1134 10.8889 58.9467 11.3333C59.3356 11.5 59.5578 11.6666 59.6689 11.8333C59.78 12.0555 59.8356 12.3889 59.8356 12.7778C59.8356 13.3889 59.6689 13.9444 59.3912 14.5555C58.3912 13.9444 57.3356 13.6111 56.1134 13.6111C54.1689 13.6111 53.2245 14.6111 53.2245 16.7778C53.2245 17.7778 53.4467 18.5555 53.9467 19.1111C54.4467 19.6666 55.2245 19.9444 56.2245 19.9444C57.3356 19.9444 58.5023 19.6111 59.5578 18.8889C59.8912 19.5 60.0578 20.1111 60.0578 20.7222C60.0578 21.1111 60.0023 21.3889 59.8356 21.6111C59.7245 21.7778 59.5023 22 59.1689 22.1666C58.3356 22.6111 57.28 22.8333 55.8912 22.8333C53.9467 22.8889 52.3912 22.3333 51.3356 21.2222ZM64.4467 13C64.78 12.4444 65.2245 11.9444 65.8356 11.5C66.4467 11.0555 67.1689 10.8333 67.8912 10.8333C68.5023 10.8333 69.0578 11 69.5023 11.3333C69.8912 11.7222 70.1134 12.2222 70.1134 12.8889C70.1134 13.6111 69.8912 14.2778 69.6134 15C68.9746 14.4276 68.1369 14.1284 67.28 14.1666C66.1134 14.1666 65.1689 14.6111 64.4467 15.5V22.6111H60.9467V11.0555H62.3356C63.0578 11.0555 63.5578 11.2222 63.8912 11.5555C64.2245 11.8333 64.3912 12.3889 64.4467 13ZM109.891 17.3889L108.447 22.2778H103.724L100.613 10.7222H104.447L105.558 15.3333C106.002 16.8889 106.169 18.3889 106.224 19.7778H106.336C106.447 18.3889 106.78 16.8333 107.28 15.1666L108.669 10.7222H112.391L113.78 15.1666C114.224 16.8333 114.502 18.4444 114.613 19.7778H114.669C114.669 18.3889 114.891 16.8889 115.224 15.2778L116.613 10.7222H120.447L117.002 22.2778H112.669L111.28 17.3889L110.613 13.5555H110.558C110.336 15.1666 110.169 16.4444 109.891 17.3889ZM128.336 17.6666V14.8889C127.669 13.8333 126.836 13.3333 126.002 13.3333C125.28 13.3333 124.78 13.6111 124.336 14.1666C123.891 14.7222 123.669 15.5 123.669 16.5C123.669 17.5 123.891 18.2778 124.28 18.8333C124.669 19.3889 125.28 19.6666 126.002 19.6666C126.502 19.6666 126.947 19.5 127.391 19.0555C127.78 18.6666 128.113 18.2222 128.336 17.6666ZM131.724 8.11108V19.6111C131.724 20.7778 131.891 21.7222 132.224 22.2778H130.113C129.002 22.2778 128.336 21.6666 128.224 20.4444C127.93 21.0905 127.451 21.6354 126.848 22.0109C126.246 22.3864 125.545 22.5759 124.836 22.5555C123.447 22.5555 122.28 22 121.447 20.9444C120.613 19.8889 120.169 18.3889 120.169 16.5C120.169 14.6111 120.613 13.0555 121.447 12C122.336 11 123.502 10.4444 124.947 10.4444C125.6 10.4319 126.246 10.5891 126.82 10.9007C127.395 11.2123 127.879 11.6676 128.224 12.2222V6.11108H129.558C131.002 6.11108 131.724 6.77775 131.724 8.11108ZM144.724 10.7222V20.9444C144.724 22.8889 144.224 24.4444 143.169 25.5C142.058 26.5555 140.613 27.0555 138.669 27.0555C136.947 27.0555 135.78 26.8889 135.113 26.4444C134.558 26 134.224 25.5 134.224 24.8333C134.224 24 134.391 23.3889 134.78 22.9444C135.669 23.7778 136.836 24.1111 138.224 24.1111C139.28 24.1111 140.002 23.9444 140.558 23.5C141.058 23.1111 141.28 22.3889 141.28 21.3889V20.2778C140.874 20.8938 140.322 21.3992 139.672 21.7484C139.022 22.0976 138.295 22.2795 137.558 22.2778C136.224 22.2778 135.224 21.8889 134.502 21.0555C133.78 20.2222 133.447 19 133.447 17.3889V10.7222H134.836C136.224 10.7222 136.947 11.3889 136.947 12.7222V17.0555C136.947 18.5555 137.502 19.3333 138.669 19.3333C139.891 19.3333 140.724 18.8333 141.336 17.7778V10.7222H144.724Z" fill="#293737"/>
</g>
<defs>
<clipPath id="clip0_85_250">
<rect width="144.444" height="30" fill="white" transform="translate(0.335571)"/>
</clipPath>
</defs>
</svg>
