<svg width="117" height="30" viewBox="0 0 117 30" fill="none" xmlns="http://www.w3.org/2000/svg">
<g clip-path="url(#clip0_85_270)">
<path d="M0.934125 30H5.96003V21.8816H6.03773C6.29458 22.2645 6.6391 22.5806 7.04265 22.8036C7.45541 23.1269 7.92877 23.3643 8.43478 23.5016C9.03965 23.6644 9.66419 23.7424 10.2905 23.7334C11.7881 23.7577 13.2531 23.2955 14.4656 22.4163C15.1034 21.9214 15.6533 21.3225 16.0922 20.6449C16.6335 19.9495 16.943 19.1764 17.2525 18.2479C17.562 17.2429 17.6397 16.238 17.6397 15C17.6397 13.7619 17.4856 12.5252 17.0984 11.5203C16.7977 10.5744 16.2968 9.70429 15.6299 8.96916C15.0551 8.23406 14.3096 7.65038 13.4581 7.26884C12.6503 6.92635 11.7841 6.74257 10.9069 6.72753C9.81056 6.71041 8.72526 6.94848 7.73674 7.42294C6.84069 7.87037 6.07094 8.53507 5.49774 9.35638H5.42398L5.19218 7.11738H0.780029C0.780029 7.89049 0.857736 8.66361 0.857736 9.59213C0.935442 10.5141 0.935442 11.5256 0.935442 12.5305V30H0.934125ZM5.96003 14.1505V13.6869C6.03773 13.5328 6.03773 13.3774 6.11412 13.2997C6.19971 12.8053 6.38379 12.3333 6.65543 11.9115C6.93934 11.5417 7.31161 11.2491 7.73806 11.0607C8.20166 10.8289 8.58888 10.6734 9.13019 10.6734C9.80085 10.6648 10.4548 10.8829 10.9859 11.2925C11.5353 11.694 11.9404 12.2622 12.141 12.9124C12.3976 13.6595 12.531 14.4433 12.5361 15.2331C12.5366 16.0733 12.4032 16.9083 12.141 17.7065C11.8834 18.3286 11.4546 18.8648 10.9043 19.2528C10.3731 19.6623 9.71919 19.8804 9.04853 19.8718C8.50722 19.8718 8.12659 19.7177 7.6564 19.5623C7.28751 19.3214 6.94996 19.0356 6.65148 18.7115C6.41968 18.3242 6.18788 17.9383 6.11017 17.4747C6.03247 17.3206 6.03246 17.1652 5.95608 16.9334V14.1505H5.96003ZM20.8059 23.4292H25.9095V14.5364C25.9095 14.3823 25.9872 14.1492 25.9872 13.9951C26.1236 13.2513 26.5386 12.5876 27.1476 12.1393C27.7622 11.6757 28.5353 11.4439 29.4669 11.4439H30.24C30.3941 11.5216 30.6272 11.5216 30.859 11.598V6.80392C30.6272 6.80392 30.4718 6.72621 30.3177 6.72621H29.7764C29.3892 6.72621 28.9256 6.72621 28.5397 6.88031C28.0924 7.00754 27.6729 7.21751 27.303 7.49933C26.8689 7.77871 26.4997 8.14787 26.2204 8.58195C25.8331 8.96917 25.6013 9.50389 25.3695 10.1282H25.2154L25.0613 7.11211H20.7282C20.7175 7.60287 20.7435 8.09374 20.8059 8.58063V23.4279V23.4292ZM38.5862 23.4292V7.11343H33.4853V23.4279L38.5862 23.4292ZM42.6072 23.4292H47.7108V13.2997C47.7151 13.109 47.7682 12.9227 47.8649 12.7583C47.9426 12.4488 48.1744 12.1393 48.4062 11.8364C48.6147 11.5255 48.9108 11.2834 49.2571 11.141C49.5666 10.9092 49.9525 10.8315 50.4174 10.8315C51.0364 10.8315 51.5777 10.9856 51.9636 11.2951C52.3249 11.6327 52.5915 12.0591 52.7367 12.5318C52.9685 13.0731 53.0462 13.6921 53.0462 14.3876V23.4344H58.0721V13.7633C58.0721 12.5265 57.9181 11.5243 57.6085 10.6708C57.3767 9.74886 56.9131 9.04687 56.4482 8.4318C55.9069 7.89049 55.2879 7.42689 54.5925 7.19508C53.8584 6.88604 53.0696 6.72836 52.2731 6.73148C51.6468 6.72247 51.0223 6.80048 50.4174 6.96328C49.8761 7.19508 49.3348 7.3505 48.9489 7.65869C48.5557 7.8986 48.1923 8.18419 47.8662 8.50951C47.6344 8.81902 47.4026 9.12853 47.2472 9.36033H47.0931L46.8613 7.12133H42.4544C42.5322 7.81674 42.5322 8.66756 42.6085 9.51838V23.4279L42.6072 23.4292ZM62.6265 4.09868V7.11474H60.4705V10.8262H62.6358V17.4761C62.624 18.469 62.7544 19.4585 63.023 20.4144C63.2168 21.1236 63.5614 21.7826 64.0332 22.3465C64.5146 22.7697 65.0635 23.1094 65.6571 23.3515C66.3765 23.605 67.1333 23.7359 67.8961 23.7387C68.5428 23.7284 69.1882 23.6765 69.8282 23.5833C70.3695 23.5056 70.8331 23.4292 71.1453 23.2738V19.4846C70.9867 19.4725 70.8276 19.4992 70.6817 19.5623H69.5991C69.1355 19.5623 68.7482 19.4846 68.4387 19.2528C68.1292 19.0987 67.8974 18.7892 67.8197 18.3308C67.6661 17.941 67.5892 17.3979 67.5892 16.7016V10.8249H71.223V7.11343H67.5892V2.70654L62.641 4.09868H62.6265ZM81.5698 7.11474L87.5229 23.4292H92.5488L98.5796 7.11474H93.2535L91.1646 14.6918C91.0105 15.3872 90.8551 16.0089 90.701 16.7016C90.5282 17.3343 90.3992 17.9781 90.3151 18.6285H90.161C90.0692 17.9771 89.9399 17.3315 89.7738 16.695C89.6295 16.0159 89.4488 15.345 89.2325 14.6852L87.0685 7.11343H81.579L81.5698 7.11474ZM108.246 6.72753C106.928 6.72753 105.694 6.88162 104.689 7.34655C103.646 7.69698 102.694 8.27866 101.907 9.04819C101.133 9.8213 100.514 10.6721 100.129 11.7547C99.7164 12.9218 99.5071 14.1508 99.5095 15.3885C99.4995 16.5767 99.7093 17.7564 100.129 18.8682C100.545 19.8529 101.149 20.7474 101.907 21.5023C102.679 22.2541 103.601 22.834 104.613 23.204C105.618 23.5912 106.778 23.7453 107.937 23.7453C108.788 23.7453 109.715 23.6676 110.489 23.4358C111.331 23.2149 112.138 22.8766 112.886 22.4308C113.593 21.969 114.22 21.3942 114.741 20.7292C115.36 20.0338 115.746 19.183 116.058 18.2544C116.383 17.2255 116.542 16.1513 116.527 15.0724C116.527 13.8357 116.373 12.6754 115.908 11.6705C115.521 10.6655 114.986 9.73701 114.284 9.03633C113.539 8.28592 112.641 7.70545 111.65 7.33469C110.645 6.87109 109.485 6.71567 108.248 6.71567L108.246 6.72753ZM108.091 10.3613C108.633 10.3613 109.174 10.439 109.56 10.7485C109.946 11.058 110.333 11.3675 110.565 11.8311C110.837 12.3375 111.02 12.8868 111.106 13.4551C111.264 14.0344 111.342 14.6326 111.338 15.2331C111.338 16.155 111.184 17.0888 110.874 17.7842C110.693 18.4473 110.315 19.0402 109.792 19.4859C109.328 19.9495 108.709 20.1049 108.09 20.1049C107.419 20.1135 106.766 19.8954 106.234 19.4859C105.726 18.9967 105.353 18.3841 105.152 17.7079C104.842 17.0125 104.765 16.1616 104.765 15.2331C104.774 14.6375 104.826 14.0434 104.919 13.4551C105.073 12.8361 105.228 12.3724 105.538 11.9088C105.786 11.455 106.129 11.0595 106.543 10.7485C107.014 10.4844 107.548 10.3508 108.089 10.3613H108.091Z" fill="#FAFAFA"/>
<path d="M74.3115 7.19116V11.2108H79.4915V7.19116H74.3115Z" fill="#00AFEF"/>
<path d="M74.3115 11.2108V15.3095H79.4915V11.2108H74.3115Z" fill="#EC268F"/>
<path d="M74.3115 15.3096V19.3306H79.4915V15.3096H74.3115Z" fill="#FFF212"/>
<path d="M74.3115 19.3305V23.4279H79.4915V19.3305H74.3115ZM76.9404 0C75.3941 0 74.1574 1.23672 74.1574 2.70656C74.155 3.07277 74.2253 3.43581 74.3642 3.77464C74.5032 4.11346 74.7081 4.42131 74.967 4.68032C75.2259 4.93934 75.5336 5.14436 75.8724 5.28349C76.2111 5.42263 76.5742 5.4931 76.9404 5.49082C78.4089 5.49082 79.6469 4.2541 79.6469 2.70788C79.6387 1.99248 79.351 1.30867 78.8452 0.802652C78.3394 0.296632 77.6558 0.00855208 76.9404 0ZM36.1115 0C34.5653 0 33.3286 1.23672 33.3286 2.70656C33.3261 3.07277 33.3964 3.43581 33.5354 3.77464C33.6744 4.11346 33.8792 4.42131 34.1381 4.68032C34.397 4.93934 34.7048 5.14436 35.0435 5.28349C35.3823 5.42263 35.7453 5.4931 36.1115 5.49082C37.58 5.49082 38.8181 4.2541 38.8181 2.70788C38.8099 1.99248 38.5221 1.30867 38.0163 0.802652C37.5106 0.296632 36.8269 0.00855208 36.1115 0Z" fill="#FAFAFA"/>
</g>
<defs>
<clipPath id="clip0_85_270">
<rect width="115.747" height="30" fill="white" transform="translate(0.780029)"/>
</clipPath>
</defs>
</svg>
