<svg width="108" height="30" viewBox="0 0 108 30" fill="none" xmlns="http://www.w3.org/2000/svg">
<g clip-path="url(#clip0_85_300)">
<mask id="mask0_85_300" style="mask-type:luminance" maskUnits="userSpaceOnUse" x="0" y="0" width="108" height="30">
<path d="M0.467896 0H107.142V29.5465H0.467896V0Z" fill="white"/>
</mask>
<g mask="url(#mask0_85_300)">
<path d="M7.54929 27.9419C7.3958 27.8233 7.24929 27.6977 7.10976 27.5651C6.74697 27.2093 6.44697 26.9163 6.12604 26.5814C5.80511 26.2465 5.42836 25.8837 5.03766 25.5279C4.12159 24.6387 3.31792 23.6405 2.64464 22.5558C1.79718 21.1956 1.18401 19.7027 0.830688 18.1395C0.746967 17.7767 0.670223 17.4 0.621385 17.0233C0.572548 16.6465 0.537664 16.2698 0.467897 15.8302C0.433003 15.3518 0.433003 14.8715 0.467897 14.393C0.467897 14.0372 0.516734 13.6953 0.551618 13.3256C0.542116 13.1101 0.560881 12.8943 0.607432 12.6837C0.684176 12.2442 0.76092 11.8256 0.851618 11.3791C0.992391 10.7097 1.19081 10.0538 1.44464 9.4186C1.75232 8.63721 2.12627 7.88372 2.56092 7.16512C2.89548 6.5972 3.26358 6.04972 3.66325 5.52558C4.02943 5.05614 4.42314 4.60884 4.84232 4.18605C5.48554 3.5506 6.1862 2.97605 6.93534 2.46977C8.17177 1.63033 9.53592 0.996549 10.9749 0.593023C11.5539 0.425581 12.147 0.3 12.74 0.188372C13.0958 0.125581 13.4537 0.0837209 13.8144 0.0627907C14.24 0.0627907 14.6586 0 15.1191 0H15.9632C16.7077 0.0558139 17.4472 0.167442 18.1749 0.334884C18.7846 0.46186 19.3839 0.634884 19.9679 0.851163C21.4078 1.38129 22.7565 2.13212 23.9656 3.07674C25.1605 4.01328 26.2011 5.13154 27.0493 6.3907C27.7134 7.3283 28.2572 8.34555 28.6679 9.4186C28.9051 10.0019 29.1005 10.6012 29.2539 11.2116C29.3586 11.686 29.4563 12.1744 29.526 12.6628C29.5832 12.9956 29.623 13.3305 29.6446 13.6674V16.0465C29.5667 16.9614 29.3961 17.8661 29.1353 18.7465C29.0307 19.0953 28.9191 19.4442 28.7935 19.786C28.5023 20.6581 28.1212 21.4975 27.6563 22.2907C26.9604 23.4719 26.1112 24.5558 25.1307 25.514L24.4888 26.093C23.7736 26.6927 23.0079 27.2295 22.2005 27.6977C20.9498 28.4099 19.6002 28.9319 18.1958 29.2465C17.7702 29.3372 17.3586 29.4 16.8981 29.4698C16.5039 29.5349 16.1047 29.5652 15.7051 29.5605H14.833C14.6565 29.5744 14.4792 29.5744 14.3028 29.5605L13.026 29.407C12.4514 29.3465 11.8943 29.1734 11.3865 28.8977C10.0966 28.2833 9.05006 27.254 8.41441 25.9744C8.19071 25.5613 8.03077 25.1167 7.93999 24.6558C7.89524 24.4254 7.86495 24.1924 7.84929 23.9581C7.84929 23.5744 7.7865 23.1837 7.77952 22.793C7.75859 22.4721 7.75859 22.1512 7.77952 21.8302C7.82138 21.3698 7.88418 20.9093 7.95394 20.4349C8.00836 20.2312 8.08022 20.033 8.17022 19.8419C8.22604 19.6814 8.2958 19.5279 8.35859 19.3884C8.71935 18.6307 9.20257 17.9377 9.78883 17.3372C10.0191 17.093 10.2632 16.8419 10.4865 16.6395C10.6912 16.4346 10.9266 16.2628 11.1842 16.1302C11.9839 15.7224 12.8397 15.4355 13.7237 15.2791C14.2572 15.179 14.7996 15.1346 15.3423 15.1465C15.8381 15.1589 16.3284 15.2532 16.7935 15.4256C16.8653 15.4479 16.933 15.4814 16.9958 15.5233C17.2163 15.6453 17.4284 15.7835 17.6307 15.9349C18.1088 16.3145 18.4832 16.8089 18.7191 17.3721C18.8865 17.76 18.9772 18.1772 18.9842 18.6C18.9977 19.2779 18.8443 19.9488 18.5377 20.5535C18.4428 20.7732 18.3234 20.9815 18.1818 21.1744C17.9383 21.4493 17.6535 21.6847 17.3377 21.8721C16.7987 22.1793 16.2029 22.374 15.5865 22.4442H14.1005C13.8981 22.4442 13.6958 22.5 13.4935 22.514C13.0461 22.549 12.6039 22.6332 12.1749 22.7651C11.7473 22.8835 11.3452 23.0799 10.9888 23.3442C10.6784 23.5831 10.4733 23.9334 10.4167 24.3209C10.3688 24.6588 10.4023 25.0033 10.5144 25.3256C10.5563 25.4526 10.626 25.5691 10.7167 25.6674C10.8995 25.8795 11.0956 26.0791 11.3028 26.2674C11.7472 26.6134 12.2351 26.8996 12.7539 27.1186C13.3316 27.3844 13.9351 27.593 14.5539 27.7395C15.1071 27.8727 15.6816 27.8917 16.2423 27.7953C16.5026 27.7835 16.7616 27.7508 17.0167 27.6977C17.7591 27.5791 18.4888 27.397 19.2005 27.1535C20.5789 26.675 21.8667 25.9674 23.0098 25.0605C23.4612 24.7186 23.8902 24.3488 24.2935 23.9512C25.7951 22.4335 26.8997 20.5693 27.5098 18.5233C27.6898 17.9414 27.8244 17.3463 27.9144 16.7442C27.9716 16.4093 28.0107 16.0716 28.033 15.7326C28.0246 15.4988 28.0386 15.2651 28.0749 15.0349V13.2977C28.0618 13.077 28.0315 12.8578 27.9842 12.6419C27.893 11.9938 27.7483 11.3544 27.5516 10.7302C27.2716 9.91318 26.9166 9.12377 26.4911 8.37209C26.1 7.61694 25.6325 6.90391 25.0958 6.24419C24.8865 5.99302 24.6842 5.75581 24.4539 5.54651C24.2237 5.33721 23.9167 5.00233 23.6098 4.75116C22.7395 3.96095 21.7596 3.30064 20.7005 2.7907C19.884 2.38611 19.0284 2.06585 18.147 1.83488C17.7912 1.75116 17.4493 1.67442 17.0725 1.6186C16.7956 1.56861 16.5161 1.53368 16.2353 1.51395C15.9563 1.51395 15.6074 1.51395 15.2935 1.45814H14.8818L13.6958 1.52791C12.9306 1.60189 12.1738 1.7467 11.4353 1.96046C10.7858 2.14401 10.1514 2.37725 9.53766 2.65814C8.70568 3.03665 7.91732 3.50451 7.1865 4.05349C6.64024 4.45102 6.12695 4.89199 5.65162 5.37209C4.94506 6.10252 4.329 6.91534 3.81673 7.79302C3.34815 8.58496 2.94899 9.41597 2.62371 10.2767C2.40743 10.8977 2.25394 11.5465 2.09348 12.1953C2.03069 12.4884 2.00976 12.8023 1.9679 13.1023C1.91208 13.3828 1.8772 13.6674 1.86325 13.9535V15.6977C1.88208 15.96 1.91697 16.2209 1.9679 16.4791C2.00278 16.8 2.05162 17.1209 2.11441 17.4349C2.23092 17.9512 2.37952 18.4591 2.56092 18.9558C2.94425 20.0694 3.46452 21.131 4.10976 22.1163C4.53048 22.7078 4.99703 23.2653 5.50511 23.7837C5.81906 24.1542 6.15673 24.5037 6.51673 24.8302C6.64232 24.944 6.76092 25.0653 6.87255 25.193C6.88656 25.2289 6.88656 25.2688 6.87255 25.3047V25.7512C6.87095 25.9863 6.89908 26.2207 6.95627 26.4488C7.06092 26.7767 7.1865 27.0977 7.31906 27.4186C7.38883 27.5721 7.46557 27.7256 7.52836 27.886V27.9837L7.54929 27.9419Z" fill="#A9CE40"/>
<path d="M9.92139 16.8419C9.70999 16.8558 9.4979 16.8558 9.2865 16.8419C8.87325 16.799 8.46607 16.71 8.07255 16.5768C7.71673 16.4512 7.37487 16.3186 7.01208 16.1651C6.50557 15.9558 6.03464 15.6684 5.61674 15.314C5.03917 14.8433 4.56427 14.2592 4.22139 13.5977C3.9881 13.146 3.83468 12.6574 3.7679 12.1535C3.75115 11.8221 3.7679 11.4907 3.81674 11.1628C3.83208 10.8977 3.86487 10.6347 3.91441 10.3744C3.91441 10.1093 3.96325 9.97676 3.99813 9.78141C4.10578 9.24433 4.28899 8.72521 4.54232 8.23955C4.58418 8.14885 4.62604 8.05117 4.66092 7.96048C4.77234 7.6316 4.93225 7.3212 5.13534 7.03955C5.47004 6.56284 5.87729 6.14146 6.34232 5.79071C6.52371 5.65117 6.69115 5.49769 6.87255 5.3721C7.37746 5.03323 7.91502 4.74575 8.4772 4.51396C8.7441 4.38618 9.02866 4.29916 9.32139 4.25583C9.58186 4.2299 9.84049 4.18796 10.0958 4.13024C10.2711 4.12457 10.4458 4.10826 10.6191 4.08141L11.3167 4.03257H14.1074C14.6935 3.98373 15.2725 4.03257 15.8516 4.03257H17.3377L18.4749 4.09536H19.0819L20.1005 4.18606C20.6097 4.23362 21.0943 4.42746 21.4958 4.7442C22.0694 5.16672 22.5256 5.72864 22.8214 6.37676C22.9842 6.73032 23.0788 7.11139 23.1005 7.50001C23.1242 8.36823 22.8232 9.21407 22.2563 9.8721C22.0909 10.0814 21.906 10.2754 21.7051 10.4512C21.3623 10.7815 20.9428 11.0212 20.4842 11.1488C20.3607 11.1768 20.2337 11.1907 20.1074 11.1907H9.64232L8.94464 11.2326C8.70953 11.2507 8.4758 11.2884 8.24697 11.3442C7.63216 11.4649 7.04084 11.684 6.49581 11.993C6.09796 12.1959 5.75371 12.4899 5.49115 12.8512C5.36683 13.0159 5.27683 13.2039 5.22649 13.404C5.17616 13.6042 5.16652 13.8124 5.19813 14.0163C5.24208 14.287 5.34185 14.5465 5.49115 14.7768C5.68249 15.0733 5.91773 15.3391 6.18883 15.5651C6.42394 15.757 6.68139 15.9181 6.95627 16.0465C7.36441 16.2426 7.78929 16.4016 8.22604 16.5209C8.61673 16.6326 9.01511 16.7093 9.41906 16.7512C9.5886 16.7693 9.75604 16.8 9.92139 16.8419Z" fill="#279C3F"/>
<path d="M9.92138 16.8419C9.76092 16.8419 9.60743 16.7721 9.45394 16.7582C9.04929 16.7094 8.64813 16.6326 8.25394 16.528C7.81831 16.4091 7.39537 16.2478 6.99115 16.0466C6.40002 15.7521 5.89705 15.3069 5.53301 14.7559C5.38388 14.5253 5.28411 14.2664 5.23999 13.9954C5.2099 13.7937 5.22031 13.588 5.27062 13.3903C5.32093 13.1927 5.41013 13.007 5.53301 12.8442C5.77821 12.4933 6.09732 12.2004 6.46789 11.9861C7.01906 11.7001 7.61208 11.5047 8.22603 11.407C8.46045 11.3826 8.69348 11.3456 8.92371 11.2954L9.62138 11.2535H10.3888L9.53766 11.3442L9.00045 11.407C8.69278 11.4489 8.39068 11.5256 8.10045 11.6373C7.72476 11.7629 7.37322 11.9517 7.06092 12.1954C6.76704 12.4339 6.55087 12.7545 6.43999 13.1163C6.38478 13.3241 6.37301 13.5409 6.40543 13.7534C6.43784 13.9659 6.51373 14.1694 6.62836 14.3512C6.75185 14.5563 6.90464 14.7419 7.08185 14.9024L7.43766 15.2373C7.90205 15.6746 8.43163 16.0371 9.00743 16.3117C9.29696 16.4414 9.57952 16.588 9.85162 16.7512L9.92138 16.8419Z" fill="#5FBA74"/>
<path d="M39.5377 13.2907L38.5539 21.6279L38.0167 23.5954C37.9492 23.9082 37.7915 24.1943 37.5632 24.4186C37.3157 24.6132 37.0054 24.71 36.6912 24.6907H35.6516L37.047 13.3047L36.2167 13.1582C36.0764 13.1396 35.945 13.0788 35.84 12.9837C35.7895 12.937 35.7501 12.8795 35.7248 12.8155C35.6994 12.7515 35.6887 12.6826 35.6935 12.614C35.6911 12.6001 35.6911 12.586 35.6935 12.5721C35.6961 12.5256 35.6961 12.4791 35.6935 12.4326V12.0977C35.6935 11.9512 35.7423 11.7349 35.7772 11.4628H37.2214L37.3121 10.6675C37.3796 10.0925 37.5448 9.53333 37.8005 9.01398C38.0318 8.54141 38.3516 8.11751 38.7423 7.76514C39.1353 7.4169 39.5928 7.14906 40.0888 6.97677C40.6035 6.79223 41.1467 6.70011 41.6935 6.70467C42.1132 6.69922 42.5308 6.76528 42.9284 6.90002L42.6981 8.23956C42.686 8.31253 42.649 8.37908 42.5935 8.42793C42.5387 8.47409 42.4744 8.50746 42.4051 8.5256C42.3206 8.54765 42.2341 8.56166 42.147 8.56746H41.8609C41.6004 8.56557 41.3413 8.60561 41.0935 8.68607C40.8618 8.76203 40.6497 8.8883 40.4725 9.05584C40.2772 9.25398 40.1279 9.49188 40.033 9.75351C39.9053 10.0779 39.8237 10.4184 39.7888 10.7651L39.7051 11.4628H42.1121L41.8679 13.3047L39.5377 13.2907ZM50.7005 22.0884H49.3051C49.1953 22.113 49.0812 22.1108 48.9724 22.0818C48.8637 22.0527 48.7636 21.9979 48.6806 21.9218C48.5977 21.8457 48.5344 21.7507 48.4962 21.6449C48.4579 21.539 48.4458 21.4255 48.4609 21.314L48.5446 19.8489C48.1296 20.5356 47.5902 21.139 46.9539 21.6279C46.3884 22.0458 45.7036 22.2708 45.0005 22.2698C44.6082 22.271 44.2204 22.1877 43.8632 22.0256C43.5065 21.8673 43.1913 21.6285 42.9423 21.3279C42.6572 20.964 42.4484 20.5464 42.3284 20.1C42.1656 19.5547 42.0879 18.9876 42.0981 18.4186C42.0973 16.5391 42.8134 14.7301 44.1005 13.3605C44.5121 12.9162 44.9814 12.529 45.4958 12.2093C46.5747 11.5413 47.8199 11.1907 49.0888 11.1977C49.5744 11.1977 50.0593 11.2326 50.54 11.3023C51.0177 11.3757 51.4857 11.502 51.9353 11.6791L50.7005 22.0884ZM46.033 20.1349C46.3386 20.1279 46.633 20.0254 46.8772 19.8419C47.1797 19.6161 47.4436 19.3428 47.6586 19.0326C47.9295 18.6487 48.1631 18.2399 48.3563 17.8116C48.5732 17.3233 48.7553 16.8196 48.9005 16.3047L49.3051 13.0605C49.1307 13.0507 48.9563 13.0507 48.7819 13.0605C48.2202 13.0563 47.6656 13.193 47.1702 13.4582C46.6532 13.7092 46.1927 14.0629 45.8167 14.4977C45.4559 14.9632 45.1774 15.487 44.9935 16.0465C44.785 16.6549 44.6812 17.2942 44.6865 17.9372C44.6441 18.5111 44.7676 19.0851 45.0423 19.5907C45.1418 19.7587 45.2839 19.8975 45.4541 19.993C45.6244 20.0886 45.8169 20.1375 46.0121 20.1349H46.033ZM53.0795 22.0884L54.3842 11.3442H55.6958C55.9129 11.3349 56.1275 11.3935 56.3098 11.5117C56.3922 11.5719 56.458 11.6523 56.5007 11.7451C56.5434 11.8379 56.5617 11.94 56.5539 12.0419V12.8582C56.5539 13.1163 56.5539 13.4651 56.5121 13.9256C56.8698 13.1915 57.3593 12.5294 57.9563 11.9721C58.3944 11.5441 58.9767 11.2953 59.5888 11.2744C59.8888 11.2772 60.186 11.3414 60.4609 11.4628L59.9516 13.9535C59.6396 13.8137 59.3027 13.7378 58.9609 13.7303C58.6377 13.7399 58.3213 13.8259 58.0376 13.9811C57.7539 14.1363 57.5109 14.3563 57.3284 14.6233C56.7545 15.4632 56.3624 16.4137 56.1772 17.414L55.5842 22.0884H53.0795ZM60.6842 22.0884L61.9958 11.3442H63.3005C63.5251 11.3317 63.747 11.3979 63.9284 11.5326C64.011 11.6061 64.075 11.6982 64.115 11.8013C64.155 11.9044 64.17 12.0156 64.1586 12.1256V13.3675C64.5594 12.7175 65.0946 12.1608 65.7284 11.7349C66.2339 11.3839 66.8296 11.1854 67.4446 11.1628C67.7382 11.1486 68.0312 11.2008 68.3018 11.3156C68.5724 11.4303 68.8136 11.6047 69.0074 11.8256C69.4407 12.3679 69.6856 13.0364 69.7051 13.7303C70.105 12.9645 70.6755 12.3009 71.3725 11.7907C71.9578 11.3822 72.6542 11.1631 73.3679 11.1628C73.7195 11.1441 74.0707 11.2082 74.393 11.35C74.7153 11.4918 74.9999 11.7073 75.2237 11.9791C75.7021 12.6607 75.9335 13.4853 75.8795 14.3163V14.7628C75.8795 14.9233 75.8795 15.0768 75.8377 15.2372L75.0353 22.0675H72.4819L72.8377 19.0535C72.9353 18.2233 73.0121 17.5326 73.0749 16.9605L73.2214 15.6558C73.2214 15.3419 73.2842 15.0977 73.2981 14.9582C73.3121 14.8186 73.2981 14.6721 73.2981 14.6093V14.4698C73.3239 14.1531 73.2508 13.8362 73.0888 13.5628C73.0035 13.4636 72.8956 13.3865 72.7741 13.3379C72.6527 13.2893 72.5213 13.2707 72.3912 13.2837C72.1193 13.2856 71.8525 13.3577 71.6167 13.493C71.3509 13.6535 71.1151 13.8593 70.9191 14.1C70.6735 14.4007 70.4628 14.7279 70.2912 15.0768C70.0888 15.4954 69.9214 15.9293 69.7888 16.3744L69.0912 22.0744H66.5656L67.3749 15.2442V14.8326V14.4698C67.3988 14.1541 67.3284 13.8384 67.1726 13.5628C67.0879 13.4629 66.98 13.3852 66.8584 13.3366C66.7368 13.2879 66.6051 13.2698 66.4749 13.2837C66.1948 13.2871 65.9205 13.3641 65.6795 13.507C65.4093 13.6732 65.1727 13.8885 64.9819 14.1419C64.7307 14.4489 64.5193 14.7858 64.3539 15.1465C64.1467 15.5707 63.9765 16.0117 63.8446 16.4651L63.147 22.0465L60.6842 22.0884ZM84.3563 13.3744C84.2991 13.4651 84.2258 13.5461 84.14 13.6116C84.0567 13.6569 83.9626 13.6786 83.8679 13.6744C83.7378 13.6715 83.6105 13.6355 83.4981 13.5698L83.0656 13.3396C82.8845 13.2441 82.6954 13.1647 82.5005 13.1023C82.2517 13.0277 81.9927 12.9924 81.733 12.9977C81.2795 12.9684 80.8301 13.0993 80.4633 13.3675C80.3243 13.4786 80.2126 13.6199 80.1364 13.7807C80.0602 13.9415 80.0217 14.1175 80.0237 14.2954C80.0195 14.4942 80.0837 14.6889 80.2051 14.8465C80.3419 15.0035 80.5051 15.1354 80.6865 15.2372C80.9098 15.36 81.1428 15.4626 81.3842 15.5442L82.1586 15.8512C82.423 15.9579 82.6819 16.0793 82.933 16.214C83.1882 16.3446 83.4232 16.5114 83.6307 16.7093C83.8295 16.9117 83.9907 17.1475 84.1051 17.407C84.2328 17.7189 84.2942 18.0537 84.2865 18.3907C84.2891 18.9004 84.1842 19.405 83.9786 19.8714C83.773 20.3378 83.4714 20.7557 83.0935 21.0977C82.6888 21.4668 82.2144 21.7514 81.6981 21.9349C81.1153 22.1487 80.4979 22.2527 79.8772 22.2419C79.5444 22.2453 79.2122 22.2126 78.8865 22.1442C78.5799 22.0827 78.2806 21.9892 77.9935 21.8651C77.7254 21.7539 77.4704 21.6135 77.233 21.4465C77.0181 21.2979 76.8235 21.122 76.6539 20.9233L77.2819 19.9396C77.3502 19.8293 77.4437 19.7358 77.5539 19.6675C77.6719 19.604 77.8044 19.5726 77.9377 19.5768C78.0814 19.5747 78.2216 19.6214 78.3353 19.7093C78.4539 19.8 78.5935 19.9047 78.7539 20.0093C78.9353 20.13 79.13 20.2305 79.333 20.3093C79.6156 20.407 79.9135 20.4523 80.2121 20.4419C80.4681 20.4475 80.7228 20.4098 80.9656 20.3303C81.1707 20.2626 81.3598 20.1558 81.5237 20.0163C81.6702 19.8909 81.787 19.7344 81.8654 19.5582C81.9439 19.382 81.9821 19.1905 81.9772 18.9977C81.987 18.7884 81.9256 18.5819 81.8028 18.4116C81.6722 18.243 81.5083 18.1029 81.3214 18C81.0996 17.8766 80.8659 17.776 80.6237 17.7L79.8493 17.421C79.5898 17.3233 79.3358 17.2116 79.0888 17.0861C78.8329 16.9654 78.5975 16.8053 78.3912 16.6116C78.1875 16.4136 78.0261 16.1762 77.9167 15.914C77.7882 15.5926 77.7265 15.2484 77.7353 14.9023C77.7334 14.4239 77.8259 13.9497 78.0074 13.507C78.186 13.0563 78.4596 12.6493 78.8098 12.314C79.1816 11.9504 79.623 11.6657 80.1074 11.4768C80.6698 11.2582 81.2694 11.1516 81.8726 11.1628C82.4536 11.1519 83.0311 11.2567 83.5713 11.4711C84.1115 11.6855 84.6036 12.0052 85.0191 12.4117L84.3563 13.3744ZM85.5284 22.0884L87.426 6.53723H89.9446L89.1005 13.514C89.5525 12.859 90.1199 12.2916 90.7749 11.8396C91.355 11.4375 92.0435 11.221 92.7493 11.2186C93.1696 11.2135 93.5861 11.2991 93.9702 11.4698C94.3377 11.6328 94.6589 11.8845 94.9051 12.2023C95.1856 12.5749 95.3893 12.9991 95.5051 13.4512C95.6537 14.0275 95.7242 14.6212 95.7144 15.2163C95.7247 16.4035 95.4871 17.5797 95.0167 18.6698C94.7956 19.1791 94.5193 19.664 94.1935 20.114C93.8915 20.5401 93.535 20.9248 93.133 21.2582C92.7478 21.5594 92.3198 21.8016 91.8633 21.9768C91.4208 22.1593 90.9465 22.2518 90.4679 22.2489C89.9753 22.2621 89.4866 22.1576 89.0425 21.944C88.5984 21.7305 88.2116 21.414 87.9144 21.021L87.8307 21.3768C87.8192 21.4837 87.786 21.5872 87.7332 21.6809C87.6804 21.7747 87.6091 21.8567 87.5236 21.9219C87.4381 21.9872 87.3402 22.0344 87.2358 22.0606C87.1315 22.0868 87.0229 22.0915 86.9167 22.0744L85.5284 22.0884ZM91.7446 13.214C91.4334 13.2225 91.1319 13.3246 90.8795 13.507C90.5551 13.733 90.2656 14.0058 90.0214 14.3163C89.7267 14.6912 89.4719 15.0957 89.2609 15.5233C89.0201 16.0036 88.8195 16.5029 88.6609 17.0163L88.3749 19.5768C88.5967 19.8244 88.8772 20.0114 89.1912 20.121C89.4828 20.2242 89.7891 20.2786 90.0981 20.2814C90.5534 20.282 90.9956 20.1297 91.354 19.8489C91.7473 19.5439 92.0768 19.1647 92.3237 18.7326C92.6014 18.2449 92.81 17.721 92.9446 17.1768C93.0912 16.6117 93.1658 16.0305 93.1679 15.4465C93.2069 14.8623 93.0787 14.2791 92.7981 13.7651C92.6876 13.5877 92.5317 13.443 92.3465 13.3461C92.1612 13.2492 91.9534 13.2035 91.7446 13.214ZM100.047 25.0605C99.9767 25.2231 99.8595 25.3611 99.7103 25.4568C99.5612 25.5525 99.3869 25.6016 99.2098 25.5977H97.2912L99.6772 21.2721L96.9702 11.3512H99.133C99.2102 11.3455 99.2877 11.3555 99.3609 11.3807C99.434 11.4059 99.5013 11.4457 99.5586 11.4977C99.6528 11.5898 99.7198 11.7056 99.7539 11.8326L101.073 17.414C101.114 17.5954 101.142 17.7768 101.17 17.9512C101.198 18.1256 101.212 18.3 101.226 18.4814C101.303 18.3 101.38 18.1256 101.463 17.9442L101.707 17.407L104.359 11.8256C104.427 11.6875 104.53 11.5696 104.659 11.4837C104.78 11.4014 104.923 11.3554 105.07 11.3512H107.163L100.047 25.0605Z" fill="#FAFAFA"/>
</g>
</g>
<defs>
<clipPath id="clip0_85_300">
<rect width="106.744" height="30" fill="white" transform="translate(0.467896)"/>
</clipPath>
</defs>
</svg>
