<svg width="62" height="40" viewBox="0 0 62 40" fill="none" xmlns="http://www.w3.org/2000/svg">
<g clip-path="url(#clip0_85_279)">
<path d="M54.1269 12.7607C54.516 12.7607 54.8964 12.646 55.2199 12.4313C55.5434 12.2165 55.7955 11.9112 55.9444 11.5541C56.0933 11.1969 56.1323 10.8039 56.0564 10.4248C55.9805 10.0457 55.7931 9.69739 55.518 9.42404C55.2429 9.1507 54.8923 8.96454 54.5107 8.88913C54.1291 8.81371 53.7336 8.85242 53.3741 9.00035C53.0146 9.14829 52.7074 9.39881 52.4912 9.72023C52.275 10.0417 52.1597 10.4195 52.1597 10.8061C52.1596 11.0628 52.2104 11.317 52.3093 11.5542C52.4081 11.7914 52.553 12.0069 52.7357 12.1884C52.9184 12.3699 53.1353 12.5138 53.374 12.612C53.6127 12.7102 53.8686 12.7607 54.1269 12.7607ZM30.6871 7.54248V9.91581C14.0975 9.91581 0.651276 16.5516 0.651276 24.7376C0.651276 33.0837 14.0975 39.851 30.6871 39.851C47.3163 39.851 60.7973 32.9401 60.7973 24.4152C60.7973 15.097 47.3163 7.54248 30.6871 7.54248Z" fill="#FAFAFA"/>
<path d="M53.8951 10.2133H54.0781C54.1268 10.2123 54.1754 10.2178 54.2227 10.2297C54.2561 10.2383 54.2874 10.254 54.3142 10.2758C54.3365 10.2942 54.3527 10.3189 54.3605 10.3467C54.369 10.3742 54.3731 10.4028 54.3727 10.4315C54.3743 10.4627 54.3694 10.4939 54.3584 10.5232C54.3474 10.5525 54.3304 10.5793 54.3087 10.6018C54.2641 10.6448 54.1867 10.6661 54.0714 10.6661H53.8926V10.2133M53.5266 11.6024C53.5814 11.6165 53.638 11.6221 53.6944 11.6188C53.7484 11.6225 53.8027 11.617 53.8548 11.6024C53.8664 11.5973 53.8761 11.5887 53.8826 11.5778C53.889 11.567 53.8919 11.5544 53.8908 11.5418V10.9739H53.9994C54.0719 10.9689 54.1438 10.9904 54.2013 11.0345C54.2579 11.0928 54.2979 11.165 54.3172 11.2436L54.4032 11.5224C54.4068 11.541 54.4148 11.5584 54.4264 11.5733L54.4673 11.6018C54.4897 11.6097 54.5131 11.6145 54.5368 11.6164C54.5636 11.6164 54.6015 11.6194 54.6478 11.6194C54.6942 11.6194 54.7405 11.6194 54.7698 11.6164C54.7991 11.6133 54.8217 11.6091 54.8394 11.6055L54.8699 11.5861L54.8747 11.5558C54.8703 11.5144 54.8609 11.4737 54.8467 11.4345L54.7485 11.1758C54.7183 11.0886 54.6682 11.0095 54.6021 10.9448C54.5491 10.8964 54.4869 10.8591 54.4191 10.8351C54.5267 10.8128 54.6257 10.7604 54.7046 10.6842C54.7421 10.6435 54.7709 10.5957 54.7894 10.5436C54.8078 10.4915 54.8155 10.4363 54.8119 10.3812C54.8136 10.3059 54.7977 10.2312 54.7656 10.163C54.7357 10.1021 54.69 10.0502 54.6332 10.0127C54.5695 9.96865 54.4971 9.9383 54.4209 9.92363C54.3266 9.90279 54.2302 9.89282 54.1336 9.89394H53.6657C53.6408 9.89217 53.6158 9.89581 53.5924 9.9046C53.569 9.91339 53.5478 9.92712 53.5303 9.94485C53.4988 9.98481 53.4827 10.0347 53.4852 10.0855V11.54C53.4845 11.5532 53.4881 11.5663 53.4956 11.5772C53.5031 11.5882 53.514 11.5964 53.5266 11.6006M54.1226 9.54C54.8046 9.54 55.3566 10.1061 55.3566 10.8048C55.3566 11.5036 54.8076 12.0697 54.1226 12.0697C53.4376 12.0697 52.8892 11.5036 52.8892 10.8048C52.8892 10.1061 53.4382 9.54 54.1226 9.54ZM54.1226 12.3885C54.4376 12.3886 54.7456 12.2959 55.0076 12.1221C55.2696 11.9483 55.4739 11.7012 55.5945 11.412C55.7152 11.1229 55.7468 10.8047 55.6854 10.4977C55.624 10.1907 55.4724 9.9087 55.2497 9.68733C55.0269 9.46596 54.7431 9.31519 54.4342 9.25408C54.1252 9.19298 53.8049 9.22428 53.5139 9.34403C53.2228 9.46378 52.974 9.66661 52.799 9.92685C52.6239 10.1871 52.5305 10.4931 52.5305 10.8061C52.5307 11.2256 52.6984 11.6279 52.997 11.9246C53.2955 12.2213 53.7004 12.3882 54.1226 12.3885ZM39.2587 9.22545C39.1418 9.53664 38.9865 9.83222 38.7964 10.1055C43.0115 11.0315 47.4852 12.617 50.6914 14.9158C50.8286 15.0151 50.7072 15.2018 50.5791 15.1358C45.141 12.3279 38.0259 10.9055 30.6864 10.9055C15.1772 10.9055 2.60324 17.0982 2.60324 24.7376C2.60324 32.5376 15.1753 38.8588 30.6852 38.8588C46.2323 38.8588 58.8349 32.3915 58.8349 24.4164C58.8349 17.303 50.6115 11.2788 39.2539 9.22485" fill="#40B93C"/>
<path d="M45.8035 34.8703C45.9767 34.8364 46.0341 35.0012 45.8749 35.0636C41.8867 36.6685 36.3662 37.5788 30.6859 37.5788C16.8773 37.5788 5.68259 31.8297 5.68259 24.7376C5.68259 17.6455 16.8773 11.897 30.6871 11.897C46.2421 11.897 55.7679 18.5721 55.7197 24.4152C55.6715 29.5667 48.7943 34.437 34.879 34.437C29.084 34.437 21.7317 33.3606 15.847 31.017C15.5847 30.9127 15.4615 31.2867 15.6988 31.4109C22.1367 34.8255 33.8005 37.2079 45.8017 34.8703" fill="#0B4919"/>
<path d="M30.6871 37.5788C16.8773 37.5788 5.68259 31.8297 5.68259 24.7376C5.68259 17.6455 16.8773 11.897 30.6871 11.897C46.1811 11.897 55.6934 18.52 55.7197 24.3467V24.4152C55.6715 29.5667 48.7943 34.437 34.879 34.437C29.084 34.437 21.7317 33.3606 15.847 31.017C15.8189 31.0055 15.7889 30.9993 15.7586 30.9988C15.7325 31 15.7069 31.0064 15.6834 31.0176C15.6598 31.0287 15.6387 31.0445 15.6213 31.0638C15.6039 31.0832 15.5906 31.1058 15.5821 31.1303C15.5737 31.1548 15.5702 31.1808 15.5719 31.2067C15.5717 31.2491 15.5835 31.2907 15.6059 31.3268C15.6283 31.363 15.6605 31.3921 15.6988 31.4109C20.3482 33.877 27.7243 35.8042 35.9831 35.8049C39.2794 35.8085 42.5684 35.4955 45.8041 34.8703C45.8187 34.867 45.8337 34.8654 45.8486 34.8655C45.9261 34.8655 45.9706 34.9103 45.9706 34.9594C45.9706 34.9976 45.9401 35.0388 45.8767 35.0636C41.8885 36.6685 36.368 37.5788 30.6877 37.5788M30.7188 12.2891H30.6804C28.3341 12.2851 25.9909 12.4577 23.6709 12.8055C18.8519 13.5327 14.7405 14.9994 11.9467 16.9115C10.9969 17.5606 10.1984 18.2667 9.57744 19.0103C8.95646 19.7539 8.50994 20.5412 8.26533 21.357C8.0062 22.212 7.9778 23.1197 8.18298 23.9891C8.39709 24.883 8.8491 25.7467 9.51156 26.5576C10.1435 27.3327 10.8773 28.14 11.8643 28.8158C14.6569 30.7261 18.858 32.1703 23.6782 32.8976C25.8852 33.2309 28.2379 33.3479 30.6877 33.3479C33.2851 33.3479 35.3011 33.2539 37.6881 32.8976C43.078 32.0921 46.9131 30.5339 49.5678 28.7806C50.5493 28.1049 51.2258 27.317 51.8578 26.5455C52.5202 25.7327 52.9722 24.8709 53.1808 23.9752C53.272 23.5945 53.3181 23.2046 53.3181 22.8133C53.318 22.3163 53.2447 21.822 53.1003 21.3461C52.8563 20.5303 52.4116 19.7461 51.79 19.0012C51.1685 18.2564 50.3706 17.5558 49.4208 16.9049C46.7063 15.0436 42.3527 13.4794 37.6948 12.8055C35.386 12.4557 33.0536 12.2831 30.7182 12.2891" fill="#0A4919"/>
<path d="M30.5565 34.0952C43.412 34.0952 53.8335 28.7761 53.8335 22.2146C53.8335 15.6531 43.412 10.334 30.5565 10.334C17.701 10.334 7.27951 15.6531 7.27951 22.2146C7.27951 28.7761 17.701 34.0952 30.5565 34.0952Z" fill="url(#paint0_radial_85_279)"/>
<path d="M46.1866 22.1158C45.9151 24.9255 44.7982 27.7352 43.0378 27.7352C42.3173 27.7352 41.7982 27.1691 41.7982 26.2316C41.7982 23.8182 43.7313 21.3267 46.1866 22.1158ZM48.8504 21.8885C49.0127 21.0273 48.773 20.6552 47.9928 20.434C42.8761 19.0013 38.9935 22.2449 38.9935 26.6479C38.9935 28.3243 39.8371 29.9013 41.6726 29.9013C43.1366 29.9013 44.4786 28.891 45.4186 27.757C45.4186 27.757 45.3698 28.517 45.4649 29.0067C45.6174 29.7946 46.4263 30.1958 48.2612 29.6049C47.9806 28.4916 48.1172 25.7752 48.8504 21.8885ZM37.1836 23.8413C38.0766 19.231 38.3243 16.7061 38.3243 15.9049C38.3243 15.6831 38.2206 15.3352 37.5014 15.3352C36.5339 15.3352 35.9001 15.5637 35.3469 15.8546C35.4213 16.1255 35.658 18.0734 33.9439 26.1097C33.2161 29.5243 33.8695 30.2813 36.7584 29.7819C36.4839 28.9425 36.4894 27.3904 37.1836 23.8413ZM32.3829 20.0522C31.1855 20.0522 29.6507 21.1904 28.7229 23.1019C28.8449 22.2382 28.9059 21.2037 28.8065 20.617C28.7747 20.4273 28.6582 20.2728 28.0867 20.297C27.4425 20.3219 26.5983 20.5928 26.1023 20.8643C26.1023 20.8643 26.5251 22.0158 25.5972 27.834C25.316 29.5916 26.5269 30.1067 28.5503 29.7825C27.7573 28.6467 29.2036 21.6061 32.5024 23.0594C33.7993 21.0461 33.4437 20.0522 32.3829 20.0522ZM16.1453 24.4558C17.0225 22.7819 18.2919 20.9091 18.9586 19.5152C19.0806 20.7473 19.6138 24.1594 19.6138 24.1594C18.4502 24.133 17.2872 24.2324 16.1453 24.4558ZM24.2296 29.7225C23.1835 27.8946 22.0946 23.1164 21.0332 16.9643C20.9551 16.5122 20.8697 16.3667 20.4842 16.3734C19.9602 16.3819 18.5987 16.5207 18.0546 16.7182C17.6575 17.7158 17.0969 18.6704 15.2449 21.4607C10.5534 28.5304 10.3338 30.4243 14.4416 29.7873C14.3427 29.1455 14.3867 28.1982 15.1565 26.7443C15.1565 26.7443 16.1422 26.1988 19.9639 26.1582C20.666 30.037 21.2351 30.0758 24.2278 29.7225" fill="#FAFAFA"/>
<path d="M20.0553 7.90725C18.606 8.89816 18.7024 11.7376 20.3567 13.743C21.989 15.7224 24.6053 16.0557 26.2853 15.1582C25.9577 17.0279 26.9801 18.983 30.831 17.7448C34.7136 16.4957 34.918 13.9079 34.1378 12.0097C36.3131 12.1685 38.6103 11.2648 39.3338 9.01876C39.8627 7.37573 39.5296 5.34846 37.7972 4.30482C37.882 1.9521 34.9418 -0.0957826 32.0534 -0.0400251C30.5669 -0.0109342 29.6299 0.929672 29.5787 2.14179C27.6596 0.0363386 25.0647 -0.0145703 22.5637 2.12119C20.1499 4.17816 19.7144 7.05088 20.9746 8.24846C20.8002 8.2127 20.1615 7.98664 20.0596 7.90543" fill="#FAFAFA"/>
<mask id="mask0_85_279" style="mask-type:luminance" maskUnits="userSpaceOnUse" x="19" y="0" width="20" height="18">
<path d="M21.7664 13.9181C25.8345 16.8388 28.8266 11.3915 28.3544 10.8236C27.2894 9.55087 28.0207 7.53088 30.2704 7.84966C31.4514 8.01694 29.9288 1.44603 26.2859 1.44603C22.9089 1.44603 18.0045 7.48603 23.9862 9.4636C22.7711 9.50178 21.1802 9.38906 20.2652 8.97875C19.46 9.78239 19.9181 12.5721 21.7664 13.9181ZM37.7954 5.33875C37.3745 5.86057 36.5681 6.58906 35.9392 6.73269C38.9001 3.20906 34.6838 0.7933 32.0919 0.873906C31.3379 0.897543 30.6706 1.19027 30.5181 1.94118C30.1271 3.87148 31.8418 6.09209 31.2574 8.96542C30.8609 10.9188 37.4038 12.8115 38.6049 8.48663C38.8135 7.73148 38.747 6.10724 37.7954 5.33875ZM30.4754 10.3933C32.3963 10.0333 36.2374 15.1369 30.5681 16.9527C23.7941 19.1218 28.7918 10.7078 30.4742 10.3933H30.4754Z" fill="white"/>
</mask>
<g mask="url(#mask0_85_279)">
<path d="M21.7664 13.9181C25.8345 16.8388 28.8266 11.3915 28.3544 10.8236C27.2894 9.55088 28.0207 7.53088 30.2704 7.84966C31.4514 8.01694 29.9288 1.44603 26.2859 1.44603C22.9089 1.44603 18.0045 7.48603 23.9862 9.4636C22.7711 9.50178 21.1802 9.38906 20.2652 8.97875C19.46 9.78239 19.9181 12.5721 21.7664 13.9181ZM37.7954 5.33875C37.3745 5.86057 36.5681 6.58906 35.9392 6.73269C38.9001 3.20906 34.6838 0.7933 32.0919 0.873906C31.3379 0.897543 30.6706 1.19027 30.5181 1.94118C30.1271 3.87148 31.8418 6.09209 31.2574 8.96542C30.8609 10.9188 37.4038 12.8115 38.6049 8.48663C38.8135 7.73148 38.747 6.10724 37.7954 5.33875ZM30.4754 10.3933C32.3963 10.0333 36.2374 15.1369 30.5681 16.9527C23.7971 19.1218 28.793 10.7103 30.4754 10.3933Z" fill="url(#paint1_radial_85_279)"/>
</g>
</g>
<defs>
<radialGradient id="paint0_radial_85_279" cx="0" cy="0" r="1" gradientUnits="userSpaceOnUse" gradientTransform="translate(30.675 22.0808) scale(22.6361 9.04233)">
<stop stop-color="#40B93C"/>
<stop offset="0.17" stop-color="#40B93C" stop-opacity="0.98"/>
<stop offset="0.32" stop-color="#41B93D" stop-opacity="0.93"/>
<stop offset="0.46" stop-color="#41BA3D" stop-opacity="0.83"/>
<stop offset="0.59" stop-color="#42BA3E" stop-opacity="0.7"/>
<stop offset="0.72" stop-color="#43BA3F" stop-opacity="0.52"/>
<stop offset="0.85" stop-color="#45BB41" stop-opacity="0.31"/>
<stop offset="0.97" stop-color="#47BC43" stop-opacity="0.07"/>
<stop offset="1" stop-color="#47BC43" stop-opacity="0"/>
</radialGradient>
<radialGradient id="paint1_radial_85_279" cx="0" cy="0" r="1" gradientUnits="userSpaceOnUse" gradientTransform="translate(25.1731 13.0299) rotate(-7.14317) scale(14.3473 14.2575)">
<stop stop-color="#FDE17B"/>
<stop offset="0.3" stop-color="#FCD205"/>
<stop offset="1" stop-color="#F89C0E"/>
</radialGradient>
<clipPath id="clip0_85_279">
<rect width="61" height="40" fill="white" transform="translate(0.527222)"/>
</clipPath>
</defs>
</svg>
