<svg width="151" height="30" viewBox="0 0 151 30" fill="none" xmlns="http://www.w3.org/2000/svg">
<g clip-path="url(#clip0_85_256)">
<path d="M146.856 18.2999H130.475C130.12 18.2988 129.768 18.3678 129.44 18.503C129.112 18.6383 128.814 18.8371 128.563 19.0881C128.312 19.3391 128.113 19.6372 127.978 19.9653C127.843 20.2934 127.773 20.645 127.775 20.9999V27.5804C127.773 27.9353 127.843 28.287 127.978 28.6151C128.113 28.9432 128.312 29.2413 128.563 29.4923C128.814 29.7432 129.112 29.9421 129.44 30.0773C129.768 30.2126 130.12 30.2816 130.475 30.2804H146.856C147.211 30.2816 147.563 30.2126 147.891 30.0773C148.219 29.9421 148.517 29.7432 148.768 29.4923C149.019 29.2413 149.218 28.9432 149.353 28.6151C149.488 28.287 149.557 27.9353 149.556 27.5804V20.9999C149.554 20.2845 149.269 19.5989 148.763 19.0929C148.257 18.587 147.572 18.3019 146.856 18.2999ZM142.734 21.1379H144.41V22.8134H142.734V21.1379ZM145.652 23.6504V25.3259H143.978V23.6534L145.652 23.6504ZM143.166 23.6504V25.3259H141.491V23.6534L143.166 23.6504ZM140.249 21.1379H141.93V22.8134H140.249V21.1379ZM140.681 23.6504V25.3259H139.005V23.6534L140.681 23.6504ZM137.762 21.1379H139.437V22.8134H137.762V21.1379ZM138.194 23.6504V25.3259H136.52V23.6534L138.194 23.6504ZM135.276 21.1379H136.952V22.8134H135.276V21.1379ZM135.708 23.6504V25.3259H134.033V23.6534L135.708 23.6504ZM132.803 21.1379H134.478V22.8134H132.803V21.1379ZM133.23 23.6534V25.3289H131.561V23.6534H133.23ZM130.313 21.1409H131.988V22.8164H130.317L130.313 21.1409ZM131.988 27.8414H130.317V26.1659H131.993L131.988 27.8414ZM144.405 27.8414H132.803V26.1659H144.41L144.405 27.8414ZM146.877 27.8414H145.208V26.1659H146.88L146.877 27.8414ZM146.877 22.8164H145.208V21.1409H146.88L146.877 22.8164Z" fill="#FAFAFA"/>
<path d="M17.3072 16.065H14.7152L11.7842 6.40802L8.85468 16.065H6.26268L2.02368 0.150024H5.25618L7.71618 10.185L10.6202 0.150024H12.9497L15.8537 10.185L18.3407 0.150024H21.5852L17.3072 16.065Z" fill="#FAFAFA"/>
<path d="M32.9025 14.4554C31.791 15.5669 30.417 16.1954 28.611 16.1954C26.805 16.1954 25.419 15.5669 24.294 14.4554C22.6845 12.8459 22.7235 10.8554 22.7235 8.10893C22.7235 5.36243 22.6845 3.37343 24.294 1.76393C25.4055 0.650927 26.793 0.0239258 28.611 0.0239258C30.429 0.0239258 31.7775 0.650927 32.9025 1.76393C34.512 3.37343 34.4865 5.36393 34.4865 8.10893C34.4865 10.8539 34.512 12.8459 32.9025 14.4554ZM30.6 3.64793C30.3493 3.3712 30.0418 3.15192 29.6985 3.00513C29.3552 2.85833 28.9842 2.78748 28.611 2.79742C28.234 2.78754 27.8592 2.8583 27.5118 3.00498C27.1644 3.15166 26.8523 3.37087 26.5965 3.64793C25.9965 4.31543 25.8375 5.06093 25.8375 8.10893C25.8375 11.1569 25.9875 11.9039 26.5965 12.5849C26.8523 12.862 27.1644 13.0812 27.5118 13.2279C27.8592 13.3746 28.234 13.4453 28.611 13.4354C28.9842 13.4454 29.3552 13.3745 29.6985 13.2277C30.0418 13.0809 30.3493 12.8617 30.6 12.5849C31.2 11.9174 31.386 11.1719 31.386 8.10893C31.386 5.04593 31.2015 4.31543 30.6 3.64793Z" fill="#FAFAFA"/>
<path d="M45.7801 16.065L42.6781 9.71853H40.4401V16.065H37.3381V0.150024H43.5676C46.8121 0.150024 48.7216 2.36103 48.7216 5.01753C48.7216 7.25403 47.3611 8.64152 45.8176 9.19052L49.3801 16.05H45.7801V16.065ZM43.3591 2.92802H40.4266V7.12802H43.3576C44.7181 7.12802 45.6076 6.25202 45.6076 5.02802C45.6076 3.80402 44.7301 2.92802 43.3576 2.92802H43.3591Z" fill="#FAFAFA"/>
<path d="M60.9299 16.065L56.8469 8.82902L54.7934 11.289V16.065H51.6929V0.150024H54.7934V7.07103L60.4064 0.150024H64.1879L58.9019 6.48303L64.5539 16.074H60.9299V16.065Z" fill="#FAFAFA"/>
<path d="M71.2276 16.2C68.8276 16.2 66.9886 15.69 65.4181 14.1L67.4326 12.084C68.4406 13.092 69.8011 13.419 71.2801 13.419C73.1116 13.419 74.0926 12.726 74.0926 11.457C74.0926 10.8945 73.9426 10.4235 73.5961 10.122C73.2826 9.83399 72.9286 9.672 72.1831 9.55949L70.2601 9.297C68.8981 9.102 67.8916 8.67 67.1716 7.9755C66.4126 7.218 66.0331 6.17549 66.0331 4.84949C66.0331 2.00999 68.1331 0.0209961 71.5681 0.0209961C73.7536 0.0209961 75.3496 0.557994 76.7101 1.87949L74.7481 3.82949C73.7401 2.87399 72.5356 2.73149 71.4886 2.73149C69.8386 2.73149 69.0301 3.6465 69.0301 4.746C69.0244 4.95818 69.0633 5.1692 69.1445 5.36534C69.2256 5.56148 69.3471 5.73836 69.5011 5.8845C69.9207 6.23509 70.4349 6.4533 70.9786 6.51149L72.8506 6.77399C74.3026 6.97049 75.2191 7.37399 75.8851 8.00399C76.7356 8.80199 77.1151 9.96599 77.1151 11.379C77.1301 14.4555 74.5636 16.2 71.2276 16.2Z" fill="#FAFAFA"/>
<path d="M86.0789 2.92802V16.065H82.9799V2.92802H78.8159V0.150024H90.2399V2.92352L86.0789 2.92802Z" fill="#FAFAFA"/>
<path d="M100.275 16.065L99.3301 13.2525H93.6811L92.7301 16.065H89.4811L95.2636 0.150024H97.6981L103.508 16.065H100.275ZM96.5596 4.85102L94.5436 10.635H98.4961L96.5596 4.85102Z" fill="#FAFAFA"/>
<path d="M110.036 2.92802V16.065H106.922V2.92802H102.761V0.150024H114.18V2.92352L110.036 2.92802Z" fill="#FAFAFA"/>
<path d="M116.46 16.065V0.150024H119.562V16.065H116.46Z" fill="#FAFAFA"/>
<path d="M132.542 14.4556C131.43 15.5671 130.056 16.2001 128.25 16.2001C126.444 16.2001 125.057 15.5716 123.932 14.4601C122.322 12.8506 122.361 10.8601 122.361 8.11356C122.361 5.36706 122.322 3.37807 123.932 1.76857C125.045 0.655565 126.431 0.0285645 128.25 0.0285645C130.07 0.0285645 131.417 0.655565 132.542 1.76857C134.151 3.37807 134.124 5.36856 134.124 8.11356C134.124 10.8586 134.151 12.8461 132.542 14.4556ZM130.239 3.64806C129.988 3.37149 129.681 3.15232 129.337 3.00554C128.994 2.85875 128.623 2.78781 128.25 2.79756C127.873 2.78785 127.498 2.85869 127.15 3.00535C126.803 3.15201 126.49 3.37112 126.234 3.64806C125.634 4.31557 125.477 5.06106 125.477 8.10906C125.477 11.1571 125.627 11.9041 126.234 12.5851C126.49 12.862 126.803 13.0811 127.15 13.2278C127.498 13.3744 127.873 13.4453 128.25 13.4356C128.623 13.4453 128.994 13.3744 129.337 13.2276C129.681 13.0808 129.988 12.8616 130.239 12.5851C130.839 11.9176 131.024 11.1721 131.024 8.10906C131.024 5.04606 130.841 4.31557 130.239 3.64806Z" fill="#FAFAFA"/>
<path d="M146.372 16.065L140.072 6.30452V16.065H136.964V0.150024H139.739L146.039 9.88502V0.150024H149.145V16.065H146.372Z" fill="#FAFAFA"/>
</g>
<defs>
<clipPath id="clip0_85_256">
<rect width="150" height="30" fill="white" transform="translate(0.780029)"/>
</clipPath>
</defs>
</svg>
