<svg width="88" height="30" viewBox="0 0 88 30" fill="none" xmlns="http://www.w3.org/2000/svg">
<g clip-path="url(#clip0_85_236)">
<path d="M-1.49382 14.7512C-1.37024 14.3838 -1.2534 14.0131 -1.12083 13.6491C-0.821985 12.8244 -0.237781 12.2548 0.525055 11.8515C1.65016 11.2568 2.90258 10.9434 4.17521 10.9381C5.69703 10.9016 7.2147 11.1122 8.66908 11.5617V14.64C8.37923 14.5523 8.11409 14.4467 7.83884 14.3928C7.18682 14.2461 6.52756 14.1336 5.86378 14.0558C5.22413 14.0127 4.5823 14.0127 3.94265 14.0558C3.7011 14.067 3.41237 14.1277 3.2416 14.2805C3.04715 14.4538 2.92652 14.695 2.90456 14.9545C2.89782 15.3006 3.20003 15.5095 3.51236 15.5972C4.19655 15.7893 4.90209 15.9106 5.5773 16.1252C6.44823 16.386 7.3022 16.7004 8.13431 17.0667C9.03983 17.4846 9.49708 18.3025 9.70717 19.2507C9.93348 20.2467 9.82366 21.2896 9.39484 22.2166C9.005 23.0907 8.32081 23.6378 7.48495 24.0378C6.23565 24.64 4.90097 24.813 3.53708 24.74C2.81581 24.7018 2.09679 24.6018 1.33058 24.5254L1.21149 21.2673C1.64515 21.3437 2.05297 21.4257 2.46416 21.492C3.24048 21.6044 4.01455 21.7167 4.79649 21.4785C5.16835 21.3662 5.40541 21.1134 5.43686 20.7876C5.46832 20.4618 5.17285 20.2056 4.88636 20.0877C4.47595 19.9383 4.05547 19.8181 3.62808 19.7282C2.97197 19.5619 2.30463 19.4338 1.65751 19.2383C1.17646 19.0924 0.709167 18.9044 0.261039 18.6766C-0.655712 18.2115 -1.1624 17.4262 -1.37248 16.4297C-1.40394 16.2814 -1.45899 16.1376 -1.50281 15.9915C-1.49682 15.5728 -1.49382 15.1594 -1.49382 14.7512Z" fill="#FAFAFA"/>
<path d="M28.7186 0C28.8092 0.0804228 28.9074 0.151907 29.0118 0.213458C29.9106 0.634759 30.8094 1.04146 31.7081 1.46725C32.1497 1.67734 32.6069 1.87395 33.0057 2.15257C33.8191 2.71992 34.6909 3.20526 35.365 3.96472C35.7762 4.42872 35.7976 4.79047 35.365 5.23986C34.6798 5.92554 33.8983 6.50763 33.0451 6.96776C31.9643 7.57556 30.8532 8.13167 29.7432 8.68442C29.3927 8.85968 28.9994 8.94843 28.6287 9.08549C28.1108 9.27649 27.894 9.11021 27.64 8.52376C27.4086 7.98899 27.33 7.38793 27.1907 6.81384C27.1244 6.54084 27.0615 6.26671 27.0188 5.98921C27.0182 5.85628 27.0261 5.72345 27.0424 5.59151C27.0289 4.81407 26.975 4.0355 27.0064 3.26031C27.0255 2.77947 27.1547 2.30087 27.2659 1.82789C27.367 1.39984 27.4288 0.966182 27.6513 0.56061C27.831 0.232557 28.0243 0.0438161 28.4029 0.0640386C28.4688 0.0543203 28.5324 0.0326159 28.5905 0H28.7186Z" fill="#329EFA"/>
<path d="M17.3681 24.6174V30H12.6787V14.4961H11.0486V11.2122C11.1306 11.2054 11.2036 11.1942 11.2733 11.1942H15.2054C15.2805 11.1821 15.3573 11.1975 15.4219 11.2376C15.4865 11.2776 15.5345 11.3396 15.5571 11.4122C15.7986 11.9537 16.0772 12.4795 16.3693 13.0659C16.5199 12.8805 16.6244 12.6918 16.7805 12.5716C17.2681 12.1952 17.7478 11.7941 18.2826 11.4975C19.0048 11.1127 19.8136 10.9193 20.6318 10.9358C21.8755 10.9437 23.0866 11.1717 24.1269 11.9863C24.7122 12.4435 25.0987 13.0322 25.4189 13.6568C25.6748 14.1622 25.8478 14.7054 25.9312 15.2657C26.075 16.2509 26.2087 17.2531 26.1851 18.2451C26.1401 20.1404 25.5627 21.8571 24.1145 23.1884C23.391 23.8512 22.5203 24.2276 21.5867 24.4804C20.7331 24.6982 19.8505 24.7804 18.9713 24.7241C18.4489 24.7028 17.9276 24.6545 17.3681 24.6174ZM17.3681 21.711C18.0107 21.711 18.6107 21.7425 19.2072 21.7043C20.1622 21.6436 20.8801 21.2066 21.1744 20.2437C21.3172 19.8226 21.4133 19.3871 21.4609 18.945C21.5418 17.8912 21.5665 16.8351 21.2362 15.7993C20.7868 14.4051 19.6184 14.2264 18.6724 14.4916C17.9119 14.7017 17.4007 15.4544 17.385 16.2891C17.3681 17.1688 17.3748 18.0485 17.3726 18.9293C17.3703 19.8101 17.3715 20.7167 17.3715 21.711H17.3681ZM38.2961 14.4905H36.6626V11.1886H40.1139C41.1093 11.1886 41.107 11.1886 41.462 12.1121C41.5744 12.412 41.7137 12.7041 41.8833 13.1019C41.9833 12.9863 42.0771 12.8656 42.1642 12.7401C42.4675 12.239 42.9708 11.9761 43.436 11.6728C44.055 11.2695 44.7639 11.1279 45.4795 11.0133C46.2903 10.8813 47.1188 10.9046 47.9208 11.0819C49.615 11.4571 50.6981 12.4671 51.0452 14.1927C51.1125 14.5709 51.143 14.9547 51.1362 15.3387C51.1452 18.3346 51.1478 21.3305 51.1441 24.3264C51.1441 24.3882 51.1351 24.45 51.1284 24.5219H46.4783V24.177V16.2554C46.4783 15.5083 46.0828 14.8107 45.5481 14.6163C44.7616 14.3321 43.9213 14.4804 43.491 15.0185C43.1311 15.4835 42.9429 16.0586 42.9585 16.6464C42.9517 19.1472 42.9585 21.6481 42.9585 24.1489V24.5174H38.2961V14.4905ZM66.9681 19.2427C67.0444 19.723 67.242 20.1758 67.5422 20.5583C67.8388 20.9289 68.2353 21.2069 68.6848 21.3594C69.0016 21.4807 69.3656 21.4818 69.7083 21.5335C69.8813 21.5593 70.0757 21.638 70.2251 21.5874C70.6037 21.4582 70.9834 21.629 71.3587 21.52C72.0013 21.3335 72.6664 21.2122 73.2955 20.992C73.8123 20.8111 74.2932 20.5246 74.8459 20.2572C74.8313 20.519 74.8145 20.7358 74.81 20.9527C74.81 21.1066 74.8257 21.2616 74.8246 21.4167C74.8246 21.5189 74.801 21.62 74.7965 21.7222C74.7852 21.9469 74.7965 22.1716 74.7673 22.3963C74.7369 22.6547 74.7234 22.93 74.6178 23.1592C74.5459 23.3131 74.3415 23.4277 74.1685 23.5119C73.3509 23.931 72.4896 24.2584 71.6002 24.4882C70.5891 24.7354 69.5679 24.7736 68.5388 24.723C67.231 24.6601 65.993 24.3601 64.8684 23.6501C64.0157 23.112 63.4191 22.357 62.9405 21.4953C62.5069 20.7089 62.3215 19.8584 62.2103 18.9798C62.0855 17.8657 62.1539 16.7385 62.4125 15.6476C62.6308 14.7158 63.0709 13.8506 63.6955 13.1254C64.2505 12.4514 64.9425 11.9784 65.7177 11.5807C66.4929 11.183 67.2906 11.0403 68.1118 10.9212C68.6736 10.8381 69.2713 10.8987 69.8442 10.9718C70.4898 11.0549 71.1282 11.1863 71.7541 11.365C72.1002 11.4627 72.4114 11.6897 72.7304 11.8717C73.3062 12.1979 73.8191 12.6244 74.2449 13.1311C74.6729 13.6526 74.9833 14.2604 75.1549 14.9129C75.3548 15.7009 75.4482 16.5122 75.4324 17.325C75.4483 17.8801 75.2591 18.4217 74.901 18.8462C74.8114 18.9711 74.686 19.0659 74.5415 19.118C74.2094 19.1927 73.8706 19.233 73.5303 19.2382C71.4058 19.2484 69.2802 19.2382 67.1558 19.2382L66.9681 19.2427ZM66.8468 16.9509H70.597C70.798 16.9509 70.8441 16.8385 70.8565 16.6655C70.9047 16.089 70.796 15.5101 70.5419 14.9904C69.9206 13.74 68.2073 13.5512 67.4512 14.6534C66.985 15.3387 66.8828 16.124 66.8468 16.9509Z" fill="#FAFAFA"/>
<path d="M76.648 11.146L78.7703 11.1302L78.8231 11.0808V7.95979L83.5416 6.9071V11.0797L83.5978 11.1313H86.5413V14.3501H83.5562C83.5484 14.4546 83.536 14.5355 83.536 14.6163C83.536 16.4723 83.5068 18.3294 83.5484 20.1854C83.5663 21.0078 83.9348 21.3763 84.7123 21.3965C85.4055 21.4145 86.0414 21.1639 86.6806 20.9471C86.8233 20.8977 86.9289 20.7539 87.0626 20.6685C87.2592 20.5427 87.3434 20.6449 87.3367 20.8404C87.3142 21.4381 87.2828 22.0357 87.2536 22.6379C87.2287 22.8817 87.2163 23.1265 87.2165 23.3715C87.2267 23.4539 87.2104 23.5374 87.17 23.6099C87.1296 23.6824 87.0672 23.7402 86.9918 23.7749C86.2944 24.1899 85.5173 24.453 84.7112 24.5467C83.9584 24.6411 83.2113 24.8118 82.4429 24.7242C81.6364 24.6492 80.8603 24.3793 80.1813 23.9378C79.6544 23.5895 79.4455 23.0502 79.1309 22.5829C78.9489 22.311 78.9534 21.9088 78.9062 21.5527C78.859 21.1965 78.8511 20.846 78.8264 20.4921V14.4287L78.7736 14.3759H76.639V11.21L76.648 11.146Z" fill="#FAFAFA"/>
<path d="M54.4214 8.88333C54.154 8.87659 53.8866 8.86873 53.6192 8.86536C53.3518 8.86198 53.108 8.86536 52.8328 8.86536V5.62415H59.1354C59.1422 5.77132 59.1545 5.90838 59.1545 6.04545V20.7955C59.1377 21.7639 59.5713 21.8729 60.4072 21.6122C60.5582 21.5558 60.7047 21.4878 60.8453 21.4089V23.6412C60.8461 23.7405 60.8165 23.8376 60.7604 23.9195C60.7044 24.0015 60.6247 24.0643 60.5319 24.0996C59.5388 24.5906 58.4962 24.7512 57.4042 24.7389C56.6514 24.7299 55.9538 24.5591 55.3875 24.0749C55.1016 23.822 54.887 23.4985 54.7651 23.1368C54.5899 22.5998 54.5247 22.0245 54.4281 21.4628C54.4056 21.3246 54.4775 21.1752 54.4775 21.0303V9.30913C54.4775 9.19116 54.4719 9.0732 54.4685 8.95523L54.4214 8.88333Z" fill="#FAFAFA"/>
<path d="M35.5301 21.4684C35.5411 21.4978 35.5461 21.5291 35.5447 21.5605C35.5043 22.3166 35.465 23.0727 35.4088 23.8277C35.4088 23.8984 35.2964 23.9793 35.2144 24.0243C34.164 24.622 33.0192 24.8107 31.835 24.7141C31.323 24.6857 30.82 24.5678 30.3487 24.3658C29.8454 24.131 29.5196 23.6445 29.3083 23.1233C29.0488 22.4829 29.0949 21.7964 29.0926 21.1246C29.0848 19.0001 29.0926 16.8756 29.0926 14.7512V14.3782H27.4535V11.1482H33.7517V20.5775C33.7566 20.7928 33.7765 21.0075 33.8112 21.2201C33.8584 21.5571 34.0471 21.756 34.3819 21.7189C34.7689 21.6563 35.1522 21.5727 35.5301 21.4684Z" fill="#FAFAFA"/>
<path d="M78.8241 19.8405V20.4842C78.5612 20.2707 78.5612 19.9483 78.8241 19.8405Z" fill="#FDFDFD"/>
<path d="M76.648 11.146L76.6311 11.21L76.5592 11.1673L76.648 11.146Z" fill="#ECECEC"/>
<path d="M17.3716 21.711V18.9383C17.3716 18.0485 17.3716 17.1778 17.3839 16.2981C17.3997 15.4634 17.9108 14.7106 18.6714 14.5006C19.6174 14.2388 20.7813 14.4141 21.2352 15.8083C21.5722 16.8385 21.5453 17.8946 21.4599 18.954C21.4123 19.3961 21.3162 19.8316 21.1734 20.2527C20.8791 21.211 20.1623 21.6481 19.2062 21.7132C18.6153 21.7424 18.0142 21.711 17.3716 21.711ZM66.8469 16.9508C66.8817 16.1195 66.984 15.3342 67.4513 14.6522C68.2074 13.5479 69.923 13.7366 70.542 14.9893C70.7961 15.509 70.9048 16.0878 70.8566 16.6644C70.8442 16.8363 70.7993 16.9508 70.5971 16.9497H67.093L66.8469 16.9508Z" fill="#FDFDFD"/>
</g>
<defs>
<clipPath id="clip0_85_236">
<rect width="88.8293" height="30" fill="white" transform="translate(-1.49377)"/>
</clipPath>
</defs>
</svg>
