<svg width="92" height="30" viewBox="0 0 92 30" fill="none" xmlns="http://www.w3.org/2000/svg">
<g clip-path="url(#clip0_33_481)">
<path d="M0.812154 23.8983C0.384324 23.8983 0.17041 23.7681 0.17041 23.5078V23.4427C0.17041 23.2691 0.362933 23.0305 0.74798 22.7268C1.13303 22.423 1.32555 22.0542 1.32555 21.6203V3.07118C1.32555 2.61559 1.13303 2.24677 0.74798 1.96474C0.362933 1.66101 0.17041 1.42236 0.17041 1.2488V1.18372C0.17041 0.923382 0.384324 0.793213 0.812154 0.793213H4.85514C5.28298 0.793213 5.49688 0.923382 5.49688 1.18372V1.2488C5.49688 1.42236 5.28298 1.66101 4.85514 1.96474C4.44871 2.24677 4.24548 2.61559 4.24548 3.07118V21.2949C4.24548 22.141 4.58774 22.5641 5.27227 22.5641H12.3956C12.8235 22.5641 13.2085 22.3797 13.5508 22.0108C13.893 21.642 14.1604 21.2298 14.353 20.7742C14.5455 20.3186 14.7701 19.9064 15.0268 19.5376C15.2835 19.1688 15.5295 18.9844 15.7648 18.9844H16.0215C16.3637 18.9844 16.4814 19.1797 16.3744 19.5702L15.5723 23.1498C15.4653 23.6488 15.1979 23.8983 14.7701 23.8983H0.812154ZM26.1352 24.2237C23.6538 24.2237 21.6323 23.4102 20.0707 21.783C18.5306 20.1342 17.7605 18.16 17.7605 15.8603C17.7605 13.6041 18.5092 11.7275 20.0066 10.2305C21.504 8.71187 23.3543 7.95254 25.5576 7.95254C27.9321 7.95254 29.8786 8.75524 31.3975 10.3607C32.9377 11.9444 33.7078 13.8969 33.7078 16.2183C33.7078 18.4963 33.0019 20.4054 31.59 21.9458C30.1782 23.4644 28.36 24.2237 26.1352 24.2237ZM26.5203 23.1498C27.7824 23.1498 28.8198 22.6075 29.6327 21.5227C30.467 20.438 30.8841 18.9953 30.8841 17.1946C30.8841 14.8949 30.3494 12.9641 29.2798 11.402C28.2101 9.81831 26.8624 9.02643 25.2368 9.02643C23.8677 9.02643 22.7554 9.5688 21.8997 10.6536C21.0441 11.7166 20.6162 13.1485 20.6162 14.9491C20.6162 17.1186 21.1724 19.0278 22.2848 20.6766C23.3971 22.3254 24.8089 23.1498 26.5203 23.1498ZM42.353 24.1912C40.3849 24.1912 38.8021 23.7898 37.6041 22.9871C36.4277 22.1844 35.8393 21.3491 35.8393 20.4813C35.8393 19.6786 36.2565 19.2773 37.0907 19.2773C37.4545 19.2773 37.7433 19.4183 37.9571 19.7003C38.1925 19.9607 38.3955 20.2861 38.5668 20.6766C38.738 21.0671 38.941 21.4576 39.1764 21.8481C39.4331 22.2386 39.8289 22.5749 40.3636 22.8569C40.8983 23.1173 41.5616 23.2475 42.353 23.2475C43.4227 23.2475 44.2996 22.998 44.9842 22.499C45.6688 21.9783 46.011 21.2732 46.011 20.3837C46.011 19.5159 45.6688 18.8434 44.9842 18.3661C44.3211 17.8888 43.5082 17.5525 42.5456 17.3573C41.583 17.1403 40.6203 16.9017 39.6577 16.6413C38.6951 16.381 37.8716 15.9037 37.187 15.2095C36.524 14.5152 36.1923 13.5824 36.1923 12.4108C36.1923 11.1525 36.7591 10.1003 37.8929 9.25423C39.0268 8.38644 40.4707 7.95254 42.2247 7.95254C44.0858 7.95254 45.5938 8.3539 46.749 9.1566C47.9041 9.95931 48.4817 10.838 48.4817 11.7925C48.4817 12.118 48.3641 12.3892 48.1287 12.6061C47.9149 12.823 47.6474 12.9315 47.3266 12.9315C46.9415 12.9315 46.6099 12.7254 46.3319 12.3132C46.0539 11.901 45.8185 11.4454 45.6259 10.9464C45.4547 10.4474 45.0912 9.99185 44.535 9.57965C43.9787 9.16746 43.2515 8.96135 42.353 8.96135C41.4117 8.96135 40.6203 9.23254 39.9786 9.77491C39.3582 10.3173 39.0481 10.9898 39.0481 11.7925C39.0481 12.6386 39.3797 13.3003 40.0428 13.7776C40.7274 14.2332 41.5509 14.5695 42.5135 14.7864C43.4761 15.0034 44.4279 15.242 45.3692 15.5024C46.3319 15.7627 47.1448 16.2508 47.8079 16.9668C48.4925 17.661 48.8347 18.6047 48.8347 19.798C48.8347 21.0563 48.2358 22.1085 47.0378 22.9546C45.8613 23.779 44.2996 24.1912 42.353 24.1912ZM59.2565 24.2237C56.775 24.2237 54.7535 23.4102 53.192 21.783C51.6518 20.1342 50.8817 18.16 50.8817 15.8603C50.8817 13.6041 51.6305 11.7275 53.1278 10.2305C54.6251 8.71187 56.4757 7.95254 58.6789 7.95254C61.0534 7.95254 62.9999 8.75524 64.5188 10.3607C66.059 11.9444 66.8291 13.8969 66.8291 16.2183C66.8291 18.4963 66.1231 20.4054 64.7113 21.9458C63.2995 23.4644 61.4813 24.2237 59.2565 24.2237ZM59.6415 23.1498C60.9037 23.1498 61.941 22.6075 62.754 21.5227C63.5882 20.438 64.0054 18.9953 64.0054 17.1946C64.0054 14.8949 63.4707 12.9641 62.401 11.402C61.3314 9.81831 59.9837 9.02643 58.358 9.02643C56.9891 9.02643 55.8765 9.5688 55.021 10.6536C54.1654 11.7166 53.7375 13.1485 53.7375 14.9491C53.7375 17.1186 54.2937 19.0278 55.406 20.6766C56.5183 22.3254 57.9301 23.1498 59.6415 23.1498ZM71.9126 5.18643C71.2496 5.18643 70.7254 5.00204 70.3403 4.63321C69.9553 4.26439 69.7628 3.77626 69.7628 3.16881C69.7628 2.56136 69.9553 2.07321 70.3403 1.7044C70.7467 1.31389 71.2709 1.11863 71.9126 1.11863C72.5331 1.11863 73.0357 1.31389 73.4207 1.7044C73.8058 2.07321 73.9983 2.56136 73.9983 3.16881C73.9983 3.77626 73.8058 4.26439 73.4207 4.63321C73.0357 5.00204 72.5331 5.18643 71.9126 5.18643ZM69.6665 29.8861C68.6184 29.8861 67.7626 29.6474 67.0995 29.1702C66.4365 28.693 66.1048 28.0637 66.1048 27.2827C66.1048 26.9138 66.2224 26.6102 66.4578 26.3715C66.6932 26.1328 67.0033 26.0136 67.3883 26.0136C67.7947 26.0136 68.1156 26.1547 68.3509 26.4366C68.5863 26.7186 68.736 27.0333 68.8002 27.3803C68.8643 27.7274 69.0035 28.0421 69.2173 28.3241C69.4311 28.606 69.7415 28.7471 70.1478 28.7471C70.597 28.7471 70.95 28.5844 71.2067 28.259C71.4847 27.9336 71.6238 27.5105 71.6238 26.9898C71.6238 26.4475 71.4742 25.7748 71.1746 24.9722C70.875 24.1695 70.7254 23.5295 70.7254 23.0522V11.8902C70.7254 11.3912 70.5329 10.9681 70.1478 10.621C69.7628 10.2739 69.5703 10.0352 69.5703 9.90508V9.80745C69.5703 9.65559 69.7199 9.49288 70.0195 9.31931L72.5865 8.08271C72.9073 7.93085 73.1532 7.90914 73.3245 8.01762C73.517 8.1261 73.6132 8.29965 73.6132 8.5383V23.8007C73.6132 25.059 73.4315 26.263 73.0678 27.4129C72.5331 29.0616 71.3992 29.8861 69.6665 29.8861ZM90.0494 21.2949C90.0923 21.7505 90.2098 22.1085 90.4024 22.3688C90.5949 22.6075 90.7982 22.7593 91.012 22.8244C91.2259 22.8678 91.4184 22.9329 91.5896 23.0197C91.7608 23.1064 91.8463 23.2366 91.8463 23.4102C91.8463 23.8658 91.1617 24.0936 89.7927 24.0936C89.0226 24.0936 88.4558 23.9525 88.0921 23.6705C87.7284 23.3668 87.5145 22.7919 87.4503 21.9458C86.6374 23.4644 85.0972 24.2237 82.8298 24.2237C81.0329 24.2237 79.589 23.7898 78.498 22.922C77.4071 22.0542 76.8616 20.8502 76.8616 19.3098C76.8403 17.7912 77.375 16.6088 78.4659 15.7627C79.5782 14.9166 81.0008 14.4936 82.7335 14.4936C84.4449 14.4936 85.7605 14.9275 86.6803 15.7952L86.6161 14.9166C86.4236 12.9207 86.0277 11.4346 85.4288 10.4583C84.83 9.48203 83.91 8.99389 82.6693 8.99389C81.9206 8.99389 81.3004 9.18915 80.8083 9.57965C80.3162 9.97016 79.974 10.3932 79.7815 10.8488C79.6103 11.3044 79.3965 11.7275 79.1398 12.118C78.8831 12.5085 78.5835 12.7037 78.2413 12.7037C77.8563 12.7037 77.5462 12.5952 77.3108 12.3783C77.097 12.1614 76.9899 11.8685 76.9899 11.4997C76.9899 10.5885 77.5141 9.77491 78.5622 9.05898C79.6318 8.32136 81.0008 7.95254 82.6693 7.95254C84.6159 7.95254 86.1669 8.55999 87.322 9.77491C88.4984 10.9681 89.1938 12.6495 89.4077 14.819L90.0494 21.2949ZM83.5357 23.1824C84.5838 23.1824 85.4396 22.8461 86.1027 22.1736C86.7657 21.4793 87.0761 20.6224 87.0332 19.6027L86.9049 18.1383C86.7336 17.3573 86.3273 16.7281 85.6855 16.2508C85.0651 15.7736 84.295 15.5349 83.3753 15.5349C82.2843 15.5349 81.3966 15.8495 80.712 16.4786C80.0274 17.1078 79.6852 17.9214 79.6852 18.9193C79.6852 20.1342 80.0382 21.1539 80.7441 21.9783C81.4713 22.781 82.4019 23.1824 83.5357 23.1824Z" fill="#0F0F0F"/>
<path d="M22.977 5.86278C22.5919 5.97126 22.3138 5.89532 22.1427 5.63498C21.993 5.37465 22.0464 5.11431 22.3031 4.85397L27.9826 0.753625C28.4746 0.363117 28.8597 0.43905 29.1377 0.981425L29.6511 2.02278C29.9078 2.52176 29.7581 2.86888 29.2019 3.06414L22.977 5.86278Z" fill="#FD591E"/>
<path d="M56.0669 5.86278C55.6819 5.97126 55.4038 5.89532 55.2326 5.63498C55.0829 5.37465 55.1364 5.11431 55.3931 4.85397L61.0725 0.753625C61.5646 0.363117 61.9497 0.43905 62.2277 0.981425L62.7411 2.02278C62.9978 2.52176 62.8481 2.86888 62.2918 3.06414L56.0669 5.86278Z" fill="#FD591E"/>
<path d="M80.1323 5.86278C79.7472 5.97126 79.4692 5.89532 79.298 5.63498C79.1483 5.37465 79.2018 5.11431 79.4585 4.85397L85.1379 0.753625C85.63 0.363117 86.015 0.43905 86.293 0.981425L86.8064 2.02278C87.0631 2.52176 86.9135 2.86888 86.3572 3.06414L80.1323 5.86278Z" fill="#FD591E"/>
</g>
<defs>
<clipPath id="clip0_33_481">
<rect width="92" height="30" fill="white"/>
</clipPath>
</defs>
</svg>
