<svg width="163" height="183" viewBox="0 0 163 183" fill="none" xmlns="http://www.w3.org/2000/svg">
<path d="M66.1866 46.87C66.1866 46.87 66.5036 30.4695 52.9937 22.1393H95.8122C95.8122 22.1393 108.054 32.1019 108.156 46.87H66.1866Z" fill="#EBEBEB"/>
<path d="M92.5468 28.1198C92.5468 28.1747 87.6559 28.2186 81.6135 28.2186C75.571 28.2186 70.6802 28.1747 70.6802 28.1198C70.6802 28.0649 75.571 28.0246 81.6135 28.0246C87.6559 28.0246 92.5468 28.0685 92.5468 28.1198Z" fill="#333333"/>
<path d="M97.2189 31.088C97.2189 31.1393 90.7391 31.1832 82.7469 31.1832C74.7546 31.1832 68.2748 31.1393 68.2748 31.088C68.2748 31.0368 74.7546 30.9892 82.7469 30.9892C90.7391 30.9892 97.2189 31.0331 97.2189 31.088Z" fill="#0F0F0F"/>
<path d="M99.6534 38.591C99.6534 38.6423 93.1736 38.6862 85.1814 38.6862C77.1891 38.6862 70.7057 38.6423 70.7057 38.591C70.7057 38.5398 77.1855 38.4959 85.1814 38.4959C93.1773 38.4959 99.6534 38.5398 99.6534 38.591Z" fill="#0F0F0F"/>
<path d="M84.529 34.5028C84.3336 34.5326 84.1362 34.5461 83.9386 34.5431L82.3205 34.5724C80.9538 34.5907 79.0696 34.6016 76.985 34.6016C74.9004 34.6016 73.0162 34.6016 71.6496 34.5724L70.0314 34.5431C69.8339 34.5461 69.6364 34.5326 69.441 34.5028C69.6365 34.4742 69.834 34.462 70.0314 34.4662L71.6496 34.4369C73.0162 34.4369 74.9004 34.4077 76.985 34.4077C79.0696 34.4077 80.9538 34.4077 82.3205 34.4369L83.9386 34.4662C84.1361 34.462 84.3335 34.4742 84.529 34.5028Z" fill="#0F0F0F"/>
<path d="M97.2189 34.5028C97.0751 34.5327 96.9284 34.5462 96.7816 34.5431L95.5862 34.5724C94.5803 34.5907 93.1845 34.6016 91.6466 34.6016C90.1086 34.6016 88.7128 34.6016 87.7069 34.5724L86.5116 34.5431C86.3647 34.5462 86.218 34.5327 86.0742 34.5028C86.2184 34.4761 86.3649 34.4639 86.5116 34.4662L87.7069 34.4369C88.7128 34.4369 90.1086 34.4077 91.6466 34.4077C93.1845 34.4077 94.5621 34.4077 95.5862 34.4369L96.7816 34.4662C96.9282 34.462 97.0749 34.4743 97.2189 34.5028Z" fill="#0F0F0F"/>
<path d="M87.215 42.6134C87.0184 42.6433 86.8197 42.6568 86.6209 42.6536L85.0064 42.6829C83.6398 42.6829 81.7519 42.7122 79.671 42.7122C77.59 42.7122 75.6985 42.7122 74.3319 42.6829L72.7174 42.6536C72.5186 42.6568 72.3199 42.6433 72.1234 42.6134C72.32 42.5847 72.5187 42.5724 72.7174 42.5768L74.3319 42.5475C75.6985 42.5475 77.5864 42.5182 79.671 42.5182C81.7556 42.5182 83.6398 42.5182 85.0064 42.5475L86.6209 42.5768C86.8196 42.5724 87.0183 42.5847 87.215 42.6134Z" fill="#0F0F0F"/>
<path d="M99.9049 42.6134C99.7611 42.6433 99.6143 42.6568 99.4675 42.6536L98.2721 42.6829C97.2626 42.6829 95.8705 42.7122 94.3325 42.7122C92.7946 42.7122 91.417 42.7122 90.3892 42.6829L89.1939 42.6536C89.047 42.6568 88.9003 42.6433 88.7565 42.6134C88.9007 42.5867 89.0472 42.5744 89.1939 42.5768L90.3892 42.5475C91.3987 42.5475 92.7909 42.5182 94.3325 42.5182C95.8741 42.5182 97.2481 42.5182 98.2721 42.5475L99.4675 42.5768C99.6141 42.5744 99.7606 42.5867 99.9049 42.6134Z" fill="#0F0F0F"/>
<path d="M57.4326 46.4052H120.605L124.046 156.315C124.069 157.052 123.947 157.787 123.688 158.477C123.428 159.167 123.036 159.799 122.533 160.337C122.03 160.875 121.426 161.308 120.757 161.611C120.087 161.915 119.364 162.082 118.63 162.105H52.7641C51.8361 162.105 50.9435 161.747 50.2712 161.105C49.5989 160.462 49.1983 159.585 49.1525 158.654L46.1167 96.5911C46.1167 96.5911 27.3806 89.7615 27.6977 68.9251C27.6977 68.9251 28.5505 46.4052 57.4326 46.4052Z" fill="#0F0F0F"/>
<path d="M60.8621 161.94L58.1069 46.4052H122.898L124.067 157.08C124.108 158.368 123.637 159.619 122.759 160.559C121.881 161.498 120.667 162.049 119.384 162.09H119.217L60.8621 161.94Z" fill="#333333"/>
<path d="M63.4605 53.0993L64.7725 106.894H117.54L116.83 53.0993H63.4605Z" fill="#0F0F0F"/>
<path d="M69.2989 60.0606C71.8756 60.7597 75.13 60.4632 77.7759 60.3351C77.9692 60.3351 78.1546 60.258 78.2913 60.1207C78.428 59.9834 78.5048 59.7972 78.5048 59.6031C78.5048 59.409 78.428 59.2228 78.2913 59.0855C78.1546 58.9482 77.9692 58.8711 77.7759 58.8711C75.13 58.7393 71.8719 58.4429 69.2989 59.1456C69.1758 59.1821 69.072 59.2662 69.0105 59.3794C68.949 59.4926 68.9348 59.6257 68.9709 59.7495C68.9944 59.8273 69.0367 59.898 69.0939 59.9555C69.1511 60.0129 69.2215 60.0553 69.2989 60.0789V60.0606Z" fill="#E0E0E0"/>
<path d="M82.2804 59.9545C84.8096 60.6023 88.0787 60.4852 90.6626 60.2363C90.8559 60.2363 91.0413 60.1592 91.178 60.0219C91.3147 59.8846 91.3915 59.6984 91.3915 59.5043C91.3915 59.3101 91.3147 59.124 91.178 58.9867C91.0413 58.8494 90.8559 58.7723 90.6626 58.7723C88.0787 58.5197 84.8096 58.4063 82.2804 59.0541C82.2212 59.0721 82.1662 59.1016 82.1185 59.141C82.0707 59.1803 82.0312 59.2288 82.0021 59.2835C81.9729 59.3382 81.9549 59.3982 81.9488 59.4599C81.9428 59.5217 81.949 59.584 81.967 59.6434C81.9891 59.7178 82.0293 59.7856 82.0841 59.8405C82.1388 59.8955 82.2062 59.9359 82.2804 59.9581V59.9545Z" fill="#E0E0E0"/>
<path d="M95.087 59.7239C96.3589 60.1118 97.7328 60.046 99.0521 60.0679C100.399 60.1485 101.751 60.1228 103.094 59.9911C103.753 59.8959 103.753 58.743 103.094 58.6515C101.751 58.5167 100.399 58.4898 99.0521 58.571C97.7328 58.5929 96.3589 58.5271 95.087 58.915C94.9996 58.9403 94.9228 58.9934 94.8682 59.0664C94.8135 59.1393 94.7839 59.2282 94.7839 59.3195C94.7839 59.4108 94.8135 59.4996 94.8682 59.5725C94.9228 59.6455 94.9996 59.6986 95.087 59.7239Z" fill="#E0E0E0"/>
<path d="M106.953 59.7971C107.913 59.9373 108.881 60.0119 109.851 60.0203C110.813 60.0423 111.851 60.1997 112.784 59.9325C112.915 59.8927 113.03 59.8116 113.112 59.7012C113.193 59.5908 113.237 59.4569 113.237 59.3194C113.237 59.182 113.193 59.0481 113.112 58.9377C113.03 58.8273 112.915 58.7462 112.784 58.7064C111.851 58.4392 110.813 58.5966 109.851 58.6186C108.881 58.6264 107.913 58.7022 106.953 58.8455C106.852 58.8768 106.763 58.9398 106.7 59.0255C106.637 59.1111 106.603 59.2148 106.603 59.3213C106.603 59.4278 106.637 59.5314 106.7 59.6171C106.763 59.7027 106.852 59.7658 106.953 59.7971Z" fill="#E0E0E0"/>
<path d="M80.0828 113.292H64.7908V124.268H80.0828V113.292Z" fill="#B7E2F5"/>
<path d="M67.5569 113.292H64.7908V124.268H67.5569V113.292Z" fill="#0F0F0F"/>
<path d="M98.8079 113.292H83.5159V124.268H98.8079V113.292Z" fill="#B7E2F5"/>
<path d="M86.1253 113.292H83.3591V124.268H86.1253V113.292Z" fill="#0F0F0F"/>
<path d="M117.537 113.292H102.245V124.268H117.537V113.292Z" fill="#B7E2F5"/>
<path d="M104.573 113.292H101.807V124.268H104.573V113.292Z" fill="#0F0F0F"/>
<path d="M117.537 127.895H102.245V138.871H117.537V127.895Z" fill="#B7E2F5"/>
<path d="M105.095 127.895H102.245V138.871H105.095V127.895Z" fill="#0F0F0F"/>
<path d="M80.0828 127.895H64.7908V138.871H80.0828V127.895Z" fill="#B7E2F5"/>
<path d="M67.5569 127.873H64.7908V138.849H67.5569V127.873Z" fill="#0F0F0F"/>
<path d="M80.0828 142.352H64.7908V153.328H80.0828V142.352Z" fill="#B7E2F5"/>
<path opacity="0.3" d="M80.0828 142.352H64.7908V153.328H80.0828V142.352Z" fill="#0F0F0F"/>
<path d="M67.5569 142.352H64.7908V153.328H67.5569V142.352Z" fill="#0F0F0F"/>
<path d="M98.7241 127.895H83.432V138.871H98.7241V127.895Z" fill="#B7E2F5"/>
<path d="M86.1981 127.873H83.432V138.849H86.1981V127.873Z" fill="#0F0F0F"/>
<path d="M98.8079 142.352H83.5159V153.328H98.8079V142.352Z" fill="#B7E2F5"/>
<path opacity="0.3" d="M98.8079 142.352H83.5159V153.328H98.8079V142.352Z" fill="#0F0F0F"/>
<path d="M86.282 142.352H83.5159V153.328H86.282V142.352Z" fill="#0F0F0F"/>
<path d="M117.537 142.352H102.245V153.328H117.537V142.352Z" fill="#E0E0E0"/>
<path d="M105.011 142.352H102.245V153.328H105.011V142.352Z" fill="#0F0F0F"/>
<path d="M55.8145 162.109C55.5521 162.109 54.5936 136.218 53.6716 104.281C52.7495 72.3436 52.2138 46.4198 52.4762 46.4125C52.7386 46.4051 53.6971 72.296 54.6191 104.24C55.5412 136.185 56.0769 162.101 55.8145 162.109Z" fill="#333333"/>
<path d="M117.46 100.767V102.74L123.51 104.251L123.477 101.21L117.46 100.767Z" fill="#333333"/>
<path d="M48.9265 154.013L55.5157 151.685L55.3735 148.783L49.0176 150.971L48.9265 154.013Z" fill="#0F0F0F"/>
<path d="M132.41 101.781L78.9931 97.8757C78.269 97.825 77.5943 97.4886 77.1164 96.94C76.6384 96.3914 76.396 95.6752 76.442 94.9477L78.8327 61.9894C78.8833 61.2622 79.2182 60.5847 79.7645 60.1046C80.3107 59.6246 81.0239 59.3812 81.7483 59.4274L135.209 63.318C135.936 63.3696 136.614 63.7093 137.092 64.2625C137.571 64.8157 137.811 65.537 137.76 66.2679L135.369 99.2262C135.344 99.588 135.248 99.9412 135.087 100.266C134.926 100.59 134.703 100.88 134.431 101.118C134.158 101.356 133.842 101.537 133.499 101.652C133.157 101.768 132.795 101.814 132.435 101.788L132.41 101.781Z" fill="#B7E2F5"/>
<path d="M132.41 101.781C132.574 101.781 132.734 101.781 132.898 101.781C133.376 101.729 133.832 101.55 134.217 101.261C134.528 101.029 134.787 100.733 134.975 100.393C135.164 100.053 135.278 99.6764 135.311 99.2885C135.376 98.3588 135.453 97.2864 135.536 96.0823L136.994 75.6705C137.147 73.516 137.309 71.2602 137.479 68.9032C137.523 68.3176 137.563 67.721 137.607 67.1244C137.709 66.5332 137.694 65.9274 137.563 65.342C137.398 64.7588 137.037 64.2507 136.542 63.9036C136.294 63.7271 136.018 63.5935 135.726 63.5083C135.424 63.4389 135.117 63.3984 134.808 63.3875L118.696 62.22L81.7811 59.5079C81.386 59.4789 80.9894 59.5391 80.6204 59.6842C80.2515 59.8292 79.9196 60.0554 79.6491 60.3461C79.3788 60.635 79.1769 60.9816 79.0587 61.3599C78.9564 61.7469 78.9025 62.1453 78.8984 62.5457C78.7769 64.1708 78.6554 65.7836 78.5339 67.3843C78.2909 70.588 78.0626 73.7405 77.8488 76.8417C77.3968 83.0417 76.9595 89.0258 76.544 94.7208C76.4487 95.4124 76.6209 96.1145 77.0251 96.6826C77.4231 97.242 78.0213 97.625 78.6943 97.7513C80.0536 97.8867 81.4312 97.9599 82.7724 98.0697L90.5897 98.6443L104.628 99.6838L124.949 101.199L130.471 101.624L131.929 101.748L132.417 101.792C132.417 101.792 132.253 101.792 131.929 101.766L130.471 101.671L124.946 101.287L104.617 99.8228L90.5897 98.82L82.7687 98.2527C81.4239 98.1466 80.0719 98.077 78.6724 97.9379C77.9559 97.8046 77.3186 97.398 76.8939 96.8033C76.4682 96.2014 76.2847 95.4602 76.38 94.7281C76.7919 89.0295 77.2256 83.0491 77.6738 76.8454C77.8973 73.7441 78.1245 70.5916 78.3553 67.3879C78.472 65.7848 78.5934 64.172 78.7198 62.5494C78.7264 62.1342 78.7827 61.7213 78.8874 61.3196C79.0807 60.708 79.4735 60.1797 80.0025 59.8198C80.5314 59.4598 81.1657 59.2894 81.803 59.3359L118.717 62.0443L134.826 63.2302C135.145 63.2415 135.462 63.2844 135.773 63.3583C136.235 63.492 136.656 63.7396 136.997 64.0784C137.339 64.4172 137.591 64.8365 137.73 65.2981C137.818 65.5996 137.854 65.914 137.836 66.2277C137.836 66.5351 137.796 66.8316 137.774 67.1354C137.73 67.732 137.687 68.3285 137.643 68.9141C137.47 71.2687 137.305 73.5233 137.147 75.6778C136.51 84.2935 135.992 91.2658 135.635 96.0896C135.544 97.2938 135.464 98.3588 135.394 99.2921C135.359 99.6876 135.238 100.071 135.042 100.416C134.846 100.76 134.578 101.059 134.257 101.29C133.866 101.58 133.404 101.756 132.92 101.799C132.799 101.81 132.677 101.81 132.555 101.799L132.41 101.781Z" fill="#0F0F0F"/>
<path d="M82.4845 84.18L82.2476 87.474L81.9123 87.4484L82.1273 84.4655L81.3583 84.4106L81.3802 84.1105L82.4845 84.18Z" fill="#FAFAFA"/>
<path d="M85.6442 87.4191L85.6187 87.7192L83.3264 87.5509V87.3129L84.7841 86.0759C85.1777 85.7355 85.2652 85.5232 85.2798 85.2963C85.3089 84.9303 85.0575 84.6631 84.5509 84.6265C84.3851 84.6026 84.2161 84.6172 84.0569 84.6692C83.8977 84.7212 83.7525 84.8093 83.6325 84.9266L83.4102 84.7034C83.5679 84.5545 83.7567 84.4427 83.9629 84.3762C84.169 84.3098 84.3873 84.2902 84.6019 84.3191C85.2652 84.3667 85.6624 84.7363 85.6223 85.2853C85.5986 85.485 85.5315 85.677 85.4257 85.8478C85.3199 86.0186 85.178 86.1639 85.0101 86.2735L83.822 87.2873L85.6442 87.4191Z" fill="#FAFAFA"/>
<path d="M89.1137 87.108L88.4613 87.0604L88.3957 87.9242L88.0604 87.8986L88.1224 87.0348L86.2783 86.903V86.6578L88.1698 84.6082L88.5342 84.6338L86.712 86.6322L88.1333 86.7383L88.188 85.9771L88.516 85.999L88.4613 86.7603L89.1137 86.8079V87.108Z" fill="#FAFAFA"/>
<path d="M94.1248 87.474L93.4724 87.4264L93.4068 88.2902L93.0716 88.2646L93.1335 87.4045L91.2894 87.269V87.0238L93.1809 84.9742L93.5453 85.0035L91.7231 86.9982L93.1444 87.1043L93.1991 86.3431L93.5271 86.3687L93.4688 87.1263L94.1248 87.1739V87.474Z" fill="#FAFAFA"/>
<path d="M96.9894 87.5801C96.9493 88.1401 96.5301 88.5464 95.732 88.4878C95.3006 88.4728 94.8917 88.2904 94.5913 87.9791L94.7735 87.7265C95.0277 87.9999 95.3782 88.1627 95.7502 88.1804C96.3042 88.2206 96.6176 87.9681 96.6468 87.5692C96.6759 87.1702 96.4354 86.8664 95.6045 86.8042L94.9084 86.753L95.1963 85.1206L96.9857 85.2524L96.9638 85.5525L95.4696 85.4427L95.2801 86.4785L95.7029 86.5114C96.6869 86.581 97.0331 86.9982 96.9894 87.5801Z" fill="#FAFAFA"/>
<path d="M100.222 87.8034C100.2 88.0728 100.072 88.3225 99.8674 88.498C99.6626 88.6735 99.3971 88.7606 99.1286 88.7404H99.0412C98.1702 88.6781 97.7438 88.0376 97.8203 87.0019C97.9005 85.8856 98.5492 85.3475 99.4384 85.4134C99.7087 85.4208 99.972 85.5018 100.2 85.6477L100.043 85.9112C99.8594 85.7849 99.6429 85.715 99.4202 85.7099C98.7132 85.6586 98.2285 86.0759 98.1629 86.9689V87.2398C98.2695 87.0652 98.4247 86.9258 98.6092 86.8387C98.7938 86.7515 98.9996 86.7205 99.2015 86.7493C99.4611 86.7404 99.7137 86.8344 99.9047 87.0112C100.096 87.1879 100.21 87.4331 100.222 87.6936C100.226 87.7301 100.226 87.7669 100.222 87.8034ZM99.8903 87.8034C99.9231 87.3715 99.6243 87.0714 99.1213 87.0348C99.0235 87.0162 98.9229 87.0172 98.8254 87.0377C98.7279 87.0582 98.6354 87.0978 98.5532 87.1543C98.4709 87.2107 98.4006 87.2828 98.3461 87.3666C98.2916 87.4503 98.2541 87.544 98.2357 87.6424C98.2357 87.6424 98.2357 87.6753 98.2357 87.6899C98.2066 88.0559 98.4836 88.4219 99.0485 88.4585C99.143 88.4748 99.2398 88.4722 99.3333 88.4508C99.4268 88.4294 99.5152 88.3897 99.5935 88.3339C99.6717 88.2782 99.7381 88.2074 99.7891 88.1258C99.84 88.0442 99.8744 87.9533 99.8903 87.8583C99.8921 87.8352 99.8921 87.8119 99.8903 87.7888V87.8034Z" fill="#FAFAFA"/>
<path d="M104.694 88.1694C104.654 88.7184 104.227 89.11 103.436 89.0515C103.004 89.0366 102.594 88.8543 102.292 88.5427L102.474 88.2902C102.732 88.5627 103.084 88.7252 103.458 88.744C104.001 88.7806 104.318 88.55 104.347 88.1438C104.377 87.7375 104.118 87.4703 103.513 87.4118L103.28 87.3935L103.298 87.1446L104.285 86.0722L102.613 85.9514L102.635 85.6513L104.737 85.805L104.719 86.0429L103.71 87.1409C104.409 87.2471 104.73 87.6424 104.694 88.1694Z" fill="#FAFAFA"/>
<path d="M107.974 88.3707C107.953 88.6414 107.826 88.8929 107.621 89.07C107.416 89.247 107.15 89.3351 106.88 89.315C106.848 89.3186 106.815 89.3186 106.782 89.315C105.915 89.2528 105.484 88.6123 105.561 87.5765C105.641 86.4785 106.29 85.9222 107.179 85.988C107.449 85.9955 107.713 86.0764 107.941 86.2223L107.784 86.4858C107.601 86.358 107.384 86.2879 107.161 86.2845C106.454 86.2333 105.969 86.6505 105.904 87.5435V87.8144C106.01 87.6398 106.165 87.5004 106.35 87.4133C106.534 87.3262 106.74 87.2951 106.942 87.3239C107.205 87.313 107.461 87.4071 107.654 87.5855C107.847 87.7639 107.962 88.0121 107.974 88.2755C107.977 88.3072 107.977 88.339 107.974 88.3707ZM107.642 88.3707C107.675 87.9388 107.376 87.6387 106.873 87.6021C106.775 87.5835 106.675 87.5845 106.577 87.605C106.48 87.6255 106.387 87.6651 106.305 87.7216C106.223 87.778 106.152 87.8501 106.098 87.9339C106.043 88.0176 106.006 88.1113 105.987 88.2096C105.987 88.2096 105.987 88.2426 105.987 88.2572C105.958 88.6232 106.235 88.9892 106.8 89.0258C106.895 89.0421 106.991 89.0395 107.085 89.0181C107.179 88.9967 107.267 88.957 107.345 88.9012C107.423 88.8454 107.49 88.7747 107.541 88.6931C107.592 88.6115 107.626 88.5206 107.642 88.4256C107.644 88.4024 107.644 88.3792 107.642 88.3561V88.3707Z" fill="#FAFAFA"/>
<path d="M111.155 86.2882L111.137 86.5261L109.548 89.4541L109.184 89.4284L110.747 86.5444L109.067 86.4199L109.02 87.0348L108.688 87.0128L108.757 86.0978L111.155 86.2882Z" fill="#FAFAFA"/>
<path d="M115.824 86.6285L115.806 86.8701L114.217 89.7981L113.852 89.7725L115.412 86.8884L113.732 86.764L113.688 87.3788L113.357 87.3532L113.422 86.4382L115.824 86.6285Z" fill="#FAFAFA"/>
<path d="M118.867 89.2345C118.827 89.8164 118.309 90.1385 117.529 90.0836C116.749 90.0287 116.294 89.6297 116.338 89.0478C116.35 88.8614 116.425 88.6848 116.55 88.5466C116.675 88.4083 116.843 88.3167 117.026 88.2865C116.877 88.2287 116.751 88.1232 116.667 87.9863C116.584 87.8494 116.547 87.6887 116.564 87.5289C116.604 86.9945 117.081 86.6944 117.774 86.742C118.466 86.7896 118.903 87.1629 118.867 87.6973C118.859 87.8586 118.798 88.0129 118.694 88.1361C118.59 88.2592 118.448 88.3443 118.291 88.378C118.469 88.4345 118.623 88.5499 118.728 88.7054C118.832 88.8609 118.881 89.0474 118.867 89.2345ZM118.524 89.2052C118.553 88.7989 118.225 88.5208 117.646 88.4732C117.066 88.4256 116.709 88.6562 116.68 89.0624C116.651 89.4687 116.972 89.7469 117.551 89.7944C118.131 89.842 118.495 89.6114 118.524 89.2052ZM117.664 88.206C118.174 88.2426 118.495 88.034 118.521 87.679C118.546 87.3239 118.24 87.0568 117.752 87.0238C117.263 86.9909 116.928 87.1885 116.902 87.5545C116.877 87.9205 117.158 88.1731 117.664 88.206Z" fill="#FAFAFA"/>
<path d="M122.089 88.7111C122.008 89.8274 121.36 90.3654 120.47 90.2995C120.201 90.2886 119.938 90.2079 119.709 90.0653L119.862 89.8018C120.047 89.9275 120.265 89.9974 120.489 90.0031C121.192 90.0543 121.677 89.6371 121.742 88.7404V88.4732C121.635 88.6483 121.48 88.7882 121.294 88.8753C121.109 88.9625 120.902 88.9932 120.7 88.9636C120.438 88.9745 120.182 88.8805 119.988 88.702C119.795 88.5236 119.68 88.2755 119.669 88.012C119.665 87.9743 119.665 87.9363 119.669 87.8986C119.692 87.6295 119.82 87.3804 120.024 87.2051C120.229 87.0298 120.494 86.9423 120.762 86.9616H120.846C121.746 87.0348 122.172 87.6753 122.089 88.7111ZM121.673 88.023C121.699 87.657 121.425 87.291 120.86 87.2581C120.67 87.2251 120.474 87.2695 120.316 87.3813C120.159 87.4932 120.051 87.6634 120.018 87.8546C120.017 87.8741 120.017 87.8937 120.018 87.9132C119.986 88.3451 120.285 88.6452 120.787 88.6818C120.984 88.7218 121.189 88.6818 121.356 88.5707C121.523 88.4595 121.64 88.2863 121.68 88.0889V88.023H121.673Z" fill="#FAFAFA"/>
<path d="M106.285 91.682L106.182 93.1093L132.371 95.0223L132.474 93.595L106.285 91.682Z" fill="#FAFAFA"/>
<path d="M118.84 95.4646L118.737 96.8919L132.167 97.873L132.271 96.4457L118.84 95.4646Z" fill="#FAFAFA"/>
<path d="M81.1483 74.7977L80.8128 79.419C80.7402 80.4189 81.4886 81.2886 82.4842 81.3615L89.8665 81.9021C90.8622 81.975 91.7282 81.2235 91.8008 80.2235L92.1363 75.6022C92.2089 74.6023 91.4606 73.7326 90.4649 73.6597L83.0826 73.1191C82.0869 73.0462 81.2209 73.7977 81.1483 74.7977Z" fill="#85A3B0"/>
<path d="M80.8517 78.9425L80.8918 78.4155L86.548 78.8291C86.7033 78.8452 86.8602 78.8304 87.0099 78.7856C87.1595 78.7408 87.2988 78.6668 87.42 78.5679C87.5411 78.469 87.6417 78.3471 87.716 78.2092C87.7902 78.0713 87.8367 77.92 87.8527 77.764C87.8687 77.6081 87.854 77.4504 87.8094 77.3002C87.7648 77.1499 87.6911 77.01 87.5926 76.8883C87.4942 76.7666 87.3728 76.6656 87.2354 76.5911C87.0981 76.5165 86.9475 76.4698 86.7922 76.4537H86.7375L81.0813 76.0402L81.1178 75.5095L86.7776 75.923C87.2203 75.9704 87.6273 76.1887 87.9128 76.5317C88.1983 76.8748 88.3399 77.3158 88.3077 77.7617C88.2756 78.2076 88.0722 78.6235 87.7404 78.9217C87.4087 79.2199 86.9746 79.3769 86.5298 79.3598L80.8517 78.9425Z" fill="#B7E2F5"/>
<path d="M88.0997 77.4741L88.0609 78.0034L91.9426 78.291L91.9814 77.7617L88.0997 77.4741Z" fill="#B7E2F5"/>
<path d="M83.07 66.2882L82.8932 68.723L111.154 70.7922L111.33 68.3575L83.07 66.2882Z" fill="#FAFAFA"/>
<path d="M125.533 87.3386L125.292 90.6326L124.957 90.6106L125.172 87.6277L124.403 87.5692L124.425 87.269L125.533 87.3386Z" fill="#FAFAFA"/>
<path d="M128.678 90.5667L128.656 90.8668L126.363 90.7021V90.4606L127.821 89.2235C128.215 88.8868 128.302 88.6708 128.321 88.4439C128.346 88.0779 128.098 87.8107 127.592 87.7741C127.426 87.7523 127.258 87.768 127.099 87.8199C126.94 87.8718 126.794 87.9587 126.673 88.0742L126.462 87.84C126.62 87.6911 126.808 87.5793 127.015 87.5129C127.221 87.4464 127.439 87.4269 127.654 87.4557C128.317 87.5033 128.714 87.8729 128.674 88.4219C128.652 88.7367 128.532 89.0112 128.062 89.4101L126.874 90.4276L128.678 90.5667Z" fill="#FAFAFA"/>
<path d="M131.655 90.1421C131.615 90.6875 131.189 91.0828 130.401 91.0242C129.968 91.0095 129.557 90.8273 129.253 90.5155L129.436 90.2593C129.563 90.3964 129.715 90.5071 129.885 90.5849C130.054 90.6628 130.237 90.7064 130.423 90.7131C130.963 90.7534 131.28 90.5228 131.313 90.1165C131.345 89.7103 131.083 89.4431 130.474 89.3845H130.241L130.259 89.1356L131.251 88.0633L129.578 87.9425L129.6 87.6424L131.699 87.7961V88.034L130.689 89.132C131.371 89.2198 131.695 89.6151 131.655 90.1421Z" fill="#FAFAFA"/>
</svg>
