<svg
	xmlns="http://www.w3.org/2000/svg"
	xmlns:xlink="http://www.w3.org/1999/xlink"
>
	<defs>
		<symbol
			id="Error"
			viewBox="0 0 24 24"
			fill="none"
			xmlns="http://www.w3.org/2000/svg"
		>
			<path
				d="M22.2 17.6334L14.0016 3.39563C13.7967 3.04681 13.5042 2.75758 13.1532 2.55662C12.8021 2.35566 12.4046 2.24994 12 2.24994C11.5955 2.24994 11.198 2.35566 10.8469 2.55662C10.4958 2.75758 10.2033 3.04681 9.99847 3.39563L1.80003 17.6334C1.60291 17.9708 1.49902 18.3546 1.49902 18.7453C1.49902 19.1361 1.60291 19.5198 1.80003 19.8572C2.00228 20.2081 2.29425 20.4989 2.64599 20.6997C2.99773 20.9006 3.39658 21.0042 3.80159 21H20.1985C20.6032 21.0039 21.0016 20.9001 21.353 20.6993C21.7044 20.4985 21.9961 20.2078 22.1982 19.8572C22.3956 19.52 22.4998 19.1363 22.5001 18.7456C22.5004 18.3548 22.3969 17.971 22.2 17.6334ZM20.8997 19.1063C20.8282 19.2282 20.7256 19.3289 20.6024 19.3981C20.4792 19.4673 20.3398 19.5024 20.1985 19.5H3.80159C3.66029 19.5024 3.52088 19.4673 3.39765 19.3981C3.27442 19.3289 3.17181 19.2282 3.10034 19.1063C3.0356 18.9966 3.00145 18.8717 3.00145 18.7444C3.00145 18.6171 3.0356 18.4921 3.10034 18.3825L11.2988 4.14469C11.3717 4.02335 11.4748 3.92295 11.598 3.85324C11.7212 3.78354 11.8603 3.7469 12.0019 3.7469C12.1435 3.7469 12.2826 3.78354 12.4058 3.85324C12.529 3.92295 12.6321 4.02335 12.705 4.14469L20.9035 18.3825C20.9676 18.4924 21.0011 18.6176 21.0005 18.7449C20.9998 18.8722 20.965 18.997 20.8997 19.1063ZM11.25 13.5V9.75C11.25 9.55109 11.329 9.36032 11.4697 9.21967C11.6104 9.07902 11.8011 9 12 9C12.1989 9 12.3897 9.07902 12.5304 9.21967C12.671 9.36032 12.75 9.55109 12.75 9.75V13.5C12.75 13.6989 12.671 13.8897 12.5304 14.0303C12.3897 14.171 12.1989 14.25 12 14.25C11.8011 14.25 11.6104 14.171 11.4697 14.0303C11.329 13.8897 11.25 13.6989 11.25 13.5ZM13.125 16.875C13.125 17.0975 13.059 17.315 12.9354 17.5C12.8118 17.685 12.6361 17.8292 12.4305 17.9144C12.225 17.9995 11.9988 18.0218 11.7806 17.9784C11.5623 17.935 11.3619 17.8278 11.2045 17.6705C11.0472 17.5132 10.9401 17.3127 10.8966 17.0945C10.8532 16.8762 10.8755 16.65 10.9607 16.4445C11.0458 16.2389 11.19 16.0632 11.375 15.9396C11.56 15.816 11.7775 15.75 12 15.75C12.2984 15.75 12.5845 15.8685 12.7955 16.0795C13.0065 16.2905 13.125 16.5766 13.125 16.875Z"
				fill="#CD432F"
			/>
		</symbol>
		<symbol
			id="caret-down"
			viewBox="0 0 10 11"
			fill="none"
			xmlns="http://www.w3.org/2000/svg"
		>
			<path
				d="M8.45662 4.58128L5.33162 7.70628C5.28808 7.74998 5.23633 7.78465 5.17935 7.80831C5.12237 7.83197 5.06129 7.84415 4.99959 7.84415C4.9379 7.84415 4.87681 7.83197 4.81983 7.80831C4.76286 7.78465 4.71111 7.74998 4.66756 7.70628L1.54256 4.58128C1.4545 4.49322 1.40503 4.37379 1.40503 4.24925C1.40503 4.12471 1.4545 4.00528 1.54256 3.91722C1.63062 3.82916 1.75006 3.77969 1.87459 3.77969C1.99913 3.77969 2.11856 3.82916 2.20662 3.91722L4.99998 6.71058L7.79334 3.91683C7.8814 3.82877 8.00084 3.7793 8.12537 3.7793C8.24991 3.7793 8.36934 3.82877 8.4574 3.91683C8.54546 4.00489 8.59494 4.12432 8.59494 4.24886C8.59494 4.3734 8.54546 4.49283 8.4574 4.58089L8.45662 4.58128Z"
				fill="currentColor"
			/>
		</symbol>
		<symbol id="caret-right" viewBox="0 0 10 10" fill="none" xmlns="http://www.w3.org/2000/svg">
			<path
				d="M4.08153 1.54411L7.20653 4.66911C7.25023 4.71266 7.2849 4.7644 7.30856 4.82138C7.33222 4.87836 7.3444 4.93945 7.3444 5.00114C7.3444 5.06283 7.33222 5.12392 7.30856 5.1809C7.2849 5.23788 7.25023 5.28962 7.20653 5.33317L4.08153 8.45817C3.99347 8.54623 3.87403 8.5957 3.74949 8.5957C3.62496 8.5957 3.50552 8.54623 3.41746 8.45817C3.3294 8.37011 3.27993 8.25068 3.27993 8.12614C3.27993 8.0016 3.3294 7.88217 3.41746 7.79411L6.21082 5.00075L3.41707 2.20739C3.32901 2.11933 3.27954 1.9999 3.27954 1.87536C3.27954 1.75082 3.32901 1.63139 3.41707 1.54333C3.50513 1.45527 3.62457 1.4058 3.7491 1.4058C3.87364 1.4058 3.99307 1.45527 4.08114 1.54333L4.08153 1.54411Z"
				fill="#BBBBBB" />
		</symbol>
		<symbol viewBox="0 0 24 24" fill="none" id="home">
			<path
				d="M22.5 19.5004H21V10.8332C21 10.6256 20.957 10.4202 20.8735 10.2301C20.7901 10.04 20.6681 9.86932 20.5153 9.7288L13.0153 2.65255C13.0116 2.64935 13.0082 2.6459 13.005 2.64223C12.7289 2.39111 12.369 2.25195 11.9958 2.25195C11.6225 2.25195 11.2627 2.39111 10.9866 2.64223L10.9762 2.65255L3.48469 9.7288C3.33187 9.86932 3.20989 10.04 3.12646 10.2301C3.04303 10.4202 2.99997 10.6256 3 10.8332V19.5004H1.5C1.30109 19.5004 1.11032 19.5794 0.96967 19.72C0.829018 19.8607 0.75 20.0514 0.75 20.2504C0.75 20.4493 0.829018 20.64 0.96967 20.7807C1.11032 20.9213 1.30109 21.0004 1.5 21.0004H22.5C22.6989 21.0004 22.8897 20.9213 23.0303 20.7807C23.171 20.64 23.25 20.4493 23.25 20.2504C23.25 20.0514 23.171 19.8607 23.0303 19.72C22.8897 19.5794 22.6989 19.5004 22.5 19.5004ZM4.5 10.8332L4.51031 10.8238L12 3.75036L19.4906 10.8219L19.5009 10.8313V19.5004H15V15.0004C15 14.6025 14.842 14.221 14.5607 13.9397C14.2794 13.6584 13.8978 13.5004 13.5 13.5004H10.5C10.1022 13.5004 9.72064 13.6584 9.43934 13.9397C9.15804 14.221 9 14.6025 9 15.0004V19.5004H4.5V10.8332ZM13.5 19.5004H10.5V15.0004H13.5V19.5004Z"
				fill="currentColor" />
		</symbol>
		<symbol viewBox="0 0 16 16" id="arrow-right">
			<path
				d="M13.8538 8.35378L9.35375 12.8538C9.25993 12.9476 9.13268 13.0003 9 13.0003C8.86732 13.0003 8.74007 12.9476 8.64625 12.8538C8.55243 12.76 8.49972 12.6327 8.49972 12.5C8.49972 12.3674 8.55243 12.2401 8.64625 12.1463L12.2931 8.50003H2.5C2.36739 8.50003 2.24021 8.44736 2.14645 8.35359C2.05268 8.25982 2 8.13264 2 8.00003C2 7.86743 2.05268 7.74025 2.14645 7.64648C2.24021 7.55271 2.36739 7.50003 2.5 7.50003H12.2931L8.64625 3.85378C8.55243 3.75996 8.49972 3.63272 8.49972 3.50003C8.49972 3.36735 8.55243 3.2401 8.64625 3.14628C8.74007 3.05246 8.86732 2.99976 9 2.99976C9.13268 2.99976 9.25993 3.05246 9.35375 3.14628L13.8538 7.64628C13.9002 7.69272 13.9371 7.74786 13.9623 7.80856C13.9874 7.86926 14.0004 7.93433 14.0004 8.00003C14.0004 8.06574 13.9874 8.13081 13.9623 8.1915C13.9371 8.2522 13.9002 8.30735 13.8538 8.35378Z"
				fill="currentColor" />
		</symbol>
		<symbol viewBox="0 0 24 24" id="chat">
			<path
				d="M15.75 10.5C15.75 10.6989 15.671 10.8897 15.5303 11.0304C15.3897 11.171 15.1989 11.25 15 11.25H9C8.80109 11.25 8.61032 11.171 8.46967 11.0304C8.32902 10.8897 8.25 10.6989 8.25 10.5C8.25 10.3011 8.32902 10.1104 8.46967 9.9697C8.61032 9.82905 8.80109 9.75003 9 9.75003H15C15.1989 9.75003 15.3897 9.82905 15.5303 9.9697C15.671 10.1104 15.75 10.3011 15.75 10.5ZM15 12.75H9C8.80109 12.75 8.61032 12.829 8.46967 12.9697C8.32902 13.1104 8.25 13.3011 8.25 13.5C8.25 13.6989 8.32902 13.8897 8.46967 14.0304C8.61032 14.171 8.80109 14.25 9 14.25H15C15.1989 14.25 15.3897 14.171 15.5303 14.0304C15.671 13.8897 15.75 13.6989 15.75 13.5C15.75 13.3011 15.671 13.1104 15.5303 12.9697C15.3897 12.829 15.1989 12.75 15 12.75ZM21.75 12C21.7504 13.6833 21.3149 15.3381 20.486 16.8032C19.6572 18.2683 18.4631 19.4938 17.02 20.3605C15.577 21.2272 13.9341 21.7055 12.2514 21.7489C10.5686 21.7923 8.9033 21.3993 7.4175 20.6082L4.22531 21.6722C3.96102 21.7604 3.6774 21.7731 3.40624 21.7092C3.13509 21.6452 2.88711 21.5069 2.69011 21.3099C2.49311 21.1129 2.35486 20.8649 2.29087 20.5938C2.22688 20.3226 2.23967 20.039 2.32781 19.7747L3.39187 16.5825C2.69639 15.2749 2.30793 13.8261 2.256 12.3459C2.20406 10.8658 2.49001 9.39328 3.09213 8.04015C3.69425 6.68703 4.59672 5.48885 5.73105 4.53658C6.86537 3.58431 8.20173 2.90298 9.63869 2.54429C11.0756 2.1856 12.5754 2.15899 14.0242 2.46647C15.473 2.77395 16.8327 3.40745 18.0001 4.31888C19.1675 5.2303 20.1119 6.3957 20.7616 7.72662C21.4114 9.05753 21.7494 10.519 21.75 12ZM20.25 12C20.2496 10.7345 19.9582 9.48606 19.3981 8.35123C18.838 7.2164 18.0244 6.22562 17.0201 5.45556C16.0159 4.6855 14.8479 4.15678 13.6067 3.91033C12.3654 3.66388 11.084 3.70628 9.86178 4.03428C8.63951 4.36227 7.50909 4.96705 6.55796 5.80183C5.60682 6.63662 4.86049 7.67902 4.37668 8.8484C3.89288 10.0178 3.68458 11.2828 3.7679 12.5455C3.85122 13.8083 4.22393 15.035 4.85719 16.1307C4.91034 16.2226 4.94334 16.3249 4.954 16.4306C4.96467 16.5363 4.95276 16.643 4.91906 16.7438L3.75 20.25L7.25625 19.081C7.33262 19.0549 7.41275 19.0416 7.49344 19.0416C7.62516 19.0418 7.7545 19.0767 7.86844 19.1428C9.12263 19.8685 10.5458 20.251 11.9948 20.2519C13.4438 20.2528 14.8674 19.8721 16.1225 19.1481C17.3776 18.424 18.4199 17.3821 19.1445 16.1273C19.869 14.8725 20.2503 13.449 20.25 12Z"
				fill="currentColor" />
		</symbol>
		<symbol viewBox="0 0 24 24" id="cart" fill="none">
			<path
				d="M2 2H3.74C4.82 2 5.67 2.93 5.58 4L4.75 13.96C4.71759 14.3459 4.76569 14.7342 4.89123 15.1005C5.01678 15.4669 5.21705 15.8031 5.47934 16.0879C5.74163 16.3728 6.06023 16.6001 6.41495 16.7553C6.76967 16.9106 7.15278 16.9905 7.54 16.99H18.19C19.63 16.99 20.89 15.81 21 14.38L21.54 6.88C21.66 5.22 20.4 3.87 18.73 3.87H5.82M9 8H21M16.25 22C16.5815 22 16.8995 21.8683 17.1339 21.6339C17.3683 21.3995 17.5 21.0815 17.5 20.75C17.5 20.4185 17.3683 20.1005 17.1339 19.8661C16.8995 19.6317 16.5815 19.5 16.25 19.5C15.9185 19.5 15.6005 19.6317 15.3661 19.8661C15.1317 20.1005 15 20.4185 15 20.75C15 21.0815 15.1317 21.3995 15.3661 21.6339C15.6005 21.8683 15.9185 22 16.25 22ZM8.25 22C8.58152 22 8.89946 21.8683 9.13388 21.6339C9.3683 21.3995 9.5 21.0815 9.5 20.75C9.5 20.4185 9.3683 20.1005 9.13388 19.8661C8.89946 19.6317 8.58152 19.5 8.25 19.5C7.91848 19.5 7.60054 19.6317 7.36612 19.8661C7.1317 20.1005 7 20.4185 7 20.75C7 21.0815 7.1317 21.3995 7.36612 21.6339C7.60054 21.8683 7.91848 22 8.25 22Z"
				stroke="#0F0F0F" stroke-width="1.5" stroke-miterlimit="10" stroke-linecap="round"
				stroke-linejoin="round" />
		</symbol>
		<symbol viewBox="0 0 24 24" id="profile-double" fill="none">
			<path
				d="M16.41 3.99999C18.35 3.99999 19.91 5.56999 19.91 7.49999C19.91 9.38999 18.41 10.93 16.54 11C16.4536 10.99 16.3664 10.99 16.28 11M18.34 20C19.06 19.85 19.74 19.56 20.3 19.13C21.86 17.96 21.86 16.03 20.3 14.86C19.75 14.44 19.08 14.16 18.37 14M9.16 10.87C9.06 10.86 8.94 10.86 8.83 10.87C7.6822 10.831 6.59464 10.3468 5.79763 9.51995C5.00062 8.69307 4.55674 7.58844 4.56 6.43999C4.56 3.98999 6.54 1.99999 9 1.99999C10.1762 1.97877 11.3127 2.42568 12.1595 3.2424C13.0062 4.05912 13.4938 5.17875 13.515 6.35499C13.5362 7.53123 13.0893 8.66771 12.2726 9.51444C11.4559 10.3612 10.3362 10.8488 9.16 10.87ZM4.16 14.56C1.74 16.18 1.74 18.82 4.16 20.43C6.91 22.27 11.42 22.27 14.17 20.43C16.59 18.81 16.59 16.17 14.17 14.56C11.43 12.73 6.92 12.73 4.16 14.56Z"
				stroke="#0F0F0F" stroke-width="1.5" stroke-linecap="round" stroke-linejoin="round" />
		</symbol>
		<symbol viewBox="0 0 24 24" id="breifcase" fill="none">
			<path
				d="M8.00001 6V5.2C8.00001 3.43 8.00001 2 11.2 2H12.8C16 2 16 3.43 16 5.2V6M8.00001 22H16C20.02 22 20.74 20.39 20.95 18.43L21.7 10.43C21.97 7.99 21.27 6 17 6H7.00001C2.73001 6 2.03001 7.99 2.30001 10.43L3.05001 18.43C3.26001 20.39 3.98001 22 8.00001 22Z"
				stroke="#0F0F0F" stroke-width="1.5" stroke-miterlimit="10" stroke-linecap="round"
				stroke-linejoin="round" />
			<path
				d="M14 14.02V13C14 12 14 12 13 12H11C10 12 10 12 10 13V14.03M14 14.02C14 15.11 13.99 16 12 16C10.02 16 10 15.12 10 14.03M14 14.02C16.7642 13.6759 19.3961 12.6369 21.65 11M10 14.03C7.41 13.74 4.87 12.81 2.62 11.27"
				stroke="#0F0F0F" stroke-width="1.5" stroke-miterlimit="10" stroke-linecap="round"
				stroke-linejoin="round" />
		</symbol>
		<symbol viewBox="0 0 24 24" id="clippad" fill="none">
			<path
				d="M8 12.2H15M8 16.2H12.38M10 6H14C16 6 16 5 16 4C16 2 15 2 14 2H10C9 2 8 2 8 4C8 6 9 6 10 6Z"
				stroke="#0F0F0F" stroke-width="1.5" stroke-miterlimit="10" stroke-linecap="round"
				stroke-linejoin="round" />
			<path
				d="M16 4.02002C19.33 4.20002 21 5.43002 21 10V16C21 20 20 22 15 22H9C4 22 3 20 3 16V10C3 5.44002 4.67 4.20002 8 4.02002"
				stroke="#0F0F0F" stroke-width="1.5" stroke-miterlimit="10" stroke-linecap="round"
				stroke-linejoin="round" />
		</symbol>
		<symbol viewBox="0 0 16 16" id="add"
			xmlns="http://www.w3.org/2000/svg">
			<path
				d="M14 8C14 8.13261 13.9473 8.25979 13.8536 8.35355C13.7598 8.44732 13.6326 8.5 13.5 8.5H8.5V13.5C8.5 13.6326 8.44732 13.7598 8.35355 13.8536C8.25979 13.9473 8.13261 14 8 14C7.86739 14 7.74021 13.9473 7.64645 13.8536C7.55268 13.7598 7.5 13.6326 7.5 13.5V8.5H2.5C2.36739 8.5 2.24021 8.44732 2.14645 8.35355C2.05268 8.25979 2 8.13261 2 8C2 7.86739 2.05268 7.74021 2.14645 7.64645C2.24021 7.55268 2.36739 7.5 2.5 7.5H7.5V2.5C7.5 2.36739 7.55268 2.24021 7.64645 2.14645C7.74021 2.05268 7.86739 2 8 2C8.13261 2 8.25979 2.05268 8.35355 2.14645C8.44732 2.24021 8.5 2.36739 8.5 2.5V7.5H13.5C13.6326 7.5 13.7598 7.55268 13.8536 7.64645C13.9473 7.74021 14 7.86739 14 8Z"
				fill="currentColor" />
		</symbol>
		<symbol viewBox="0 0 45 45" fill="none" id="envelope">
			<path
				d="M31.875 38.4375H13.125C7.5 38.4375 3.75 35.625 3.75 29.0625V15.9375C3.75 9.375 7.5 6.5625 13.125 6.5625H31.875C37.5 6.5625 41.25 9.375 41.25 15.9375V29.0625C41.25 35.625 37.5 38.4375 31.875 38.4375Z"
				stroke="#FAFAFA" stroke-width="2" stroke-miterlimit="10" stroke-linecap="round"
				stroke-linejoin="round" />
			<path
				d="M31.875 16.875L26.0062 21.5625C24.075 23.1 20.9062 23.1 18.975 21.5625L13.125 16.875"
				stroke="#FAFAFA" stroke-width="2" stroke-miterlimit="10" stroke-linecap="round"
				stroke-linejoin="round" />
		</symbol>
		<symbol viewBox="0 0 60 60" id="instagram" fill="none">
			<path
				d="M22.5 55H37.5C50 55 55 50 55 37.5V22.5C55 10 50 5 37.5 5H22.5C10 5 5 10 5 22.5V37.5C5 50 10 55 22.5 55Z"
				stroke="#FAFAFA" stroke-width="3" stroke-linecap="round" stroke-linejoin="round" />
			<path
				d="M30 38.75C31.1491 38.75 32.2869 38.5237 33.3485 38.0839C34.4101 37.6442 35.3747 36.9997 36.1872 36.1872C36.9997 35.3747 37.6442 34.4101 38.0839 33.3485C38.5237 32.2869 38.75 31.1491 38.75 30C38.75 28.8509 38.5237 27.7131 38.0839 26.6515C37.6442 25.5899 36.9997 24.6253 36.1872 23.8128C35.3747 23.0003 34.4101 22.3558 33.3485 21.9161C32.2869 21.4763 31.1491 21.25 30 21.25C27.6794 21.25 25.4538 22.1719 23.8128 23.8128C22.1719 25.4538 21.25 27.6794 21.25 30C21.25 32.3206 22.1719 34.5462 23.8128 36.1872C25.4538 37.8281 27.6794 38.75 30 38.75Z"
				stroke="#FAFAFA" stroke-width="3" stroke-linecap="round" stroke-linejoin="round" />
			<path
				d="M44.09 16C43.2616 16 42.59 16.6716 42.59 17.5C42.59 18.3284 43.2616 19 44.09 19H44.12C44.9484 19 45.62 18.3284 45.62 17.5C45.62 16.6716 44.9484 16 44.12 16H44.09Z"
				stroke="#FAFAFA" stroke-width="3" stroke-linecap="round" stroke-linejoin="round" />
		</symbol>

		<symbol id="x" viewBox="0 0 45 42" fill="none"
			xmlns="http://www.w3.org/2000/svg">
			<path
				d="M0.109284 0L17.4491 23.1654L0 42H3.9274L19.2044 25.5097L31.5474 42H44.9115L26.5957 17.5318L42.8374 0H38.91L24.8411 15.1868L13.4735 0H0.109284ZM5.8847 2.89022H12.0241L39.1354 39.1098H32.9959L5.8847 2.89022Z"
				fill="#FAFAFA" />
		</symbol>
		<symbol id="black-envelope" viewBox="0 0 60 60" fill="none">
			<path
				d="M42.5 51.25H17.5C10 51.25 5 47.5 5 38.75V21.25C5 12.5 10 8.75 17.5 8.75H42.5C50 8.75 55 12.5 55 21.25V38.75C55 47.5 50 51.25 42.5 51.25Z"
				stroke="#0F0F0F" stroke-width="3" stroke-miterlimit="10" stroke-linecap="round"
				stroke-linejoin="round" />
			<path d="M42.5 22.5L34.675 28.75C32.1 30.8 27.875 30.8 25.3 28.75L17.5 22.5"
				stroke="#0F0F0F" stroke-width="3" stroke-miterlimit="10" stroke-linecap="round"
				stroke-linejoin="round" />
		</symbol>
		<symbol id="google" viewBox="0 0 32 32" fill="none"
			xmlns="http://www.w3.org/2000/svg">
			<path
				d="M28.9869 14.76C28.9541 14.4334 28.8006 14.1307 28.5565 13.9113C28.3124 13.6918 27.9952 13.5713 27.6669 13.5733H17.6003C16.8669 13.5733 16.2669 14.1733 16.2669 14.9066V17.1866C16.2669 17.92 16.8669 18.52 17.6003 18.52H23.6136C23.4669 19.7466 22.6669 21.6 20.8936 22.84C19.7603 23.6266 18.2536 24.1733 16.2669 24.1733C16.1736 24.1733 16.0936 24.1733 16.0003 24.16C12.6003 24.0533 9.72026 21.7733 8.68026 18.64C8.39186 17.7895 8.24326 16.898 8.24026 16C8.24026 15.08 8.40026 14.1866 8.66693 13.36C8.74693 13.12 8.84026 12.88 8.94693 12.64C10.1736 9.87996 12.8536 7.93329 16.0003 7.83996C16.0803 7.82663 16.1736 7.82663 16.2669 7.82663C18.1736 7.82663 19.6003 8.45329 20.6003 9.14663C21.1203 9.50663 21.8136 9.42663 22.2669 8.98663L24.1203 7.17329C24.7069 6.59996 24.6536 5.62663 23.9869 5.14663C21.8669 3.58663 19.2803 2.66663 16.2669 2.66663C16.1736 2.66663 16.0936 2.66663 16.0003 2.67996C13.5754 2.72291 11.2086 3.42908 9.15663 4.72184C7.10466 6.0146 5.44588 7.8446 4.36026 10.0133C3.45359 11.8266 2.93359 13.8533 2.93359 16C2.93359 18.1466 3.45359 20.1733 4.36026 21.9866H4.37359C5.4577 24.1537 7.11428 25.9827 9.16379 27.2754C11.2133 28.5681 13.5775 29.2752 16.0003 29.32C16.0936 29.3333 16.1736 29.3333 16.2669 29.3333C19.8669 29.3333 22.8936 28.1466 25.0936 26.1066C27.6136 23.7733 29.0669 20.36 29.0669 16.2933C29.0669 15.72 29.0403 15.2266 28.9869 14.76Z"
				fill="#FAFAFA" />
		</symbol>
		<symbol id="apple" viewBox="0 0 32 32" fill="none"
			xmlns="http://www.w3.org/2000/svg">
			<path fill-rule="evenodd" clip-rule="evenodd"
				d="M25.4668 25.5466C26.2534 24.3466 26.5468 23.7333 27.1468 22.3866C22.7201 20.7066 22.0134 14.4 26.3868 11.9866C25.0534 10.3066 23.1734 9.33329 21.4001 9.33329C20.1201 9.33329 19.2401 9.66663 18.4534 9.97329C17.7868 10.2266 17.1868 10.4533 16.4401 10.4533C15.6401 10.4533 14.9334 10.2 14.1868 9.93329C13.3734 9.63996 12.5201 9.33329 11.4534 9.33329C9.46676 9.33329 7.34676 10.5466 6.00009 12.6266C4.10676 15.56 4.44009 21.0533 7.49342 25.7466C8.58676 27.4266 10.0534 29.3066 11.9601 29.3333C12.7601 29.3466 13.2801 29.1066 13.8534 28.8533C14.5068 28.56 15.2134 28.24 16.4534 28.24C17.6934 28.2266 18.3868 28.56 19.0401 28.8533C19.6001 29.1066 20.1068 29.3466 20.8934 29.3333C22.8268 29.3066 24.3734 27.2266 25.4668 25.5466ZM21.1201 2.66663C21.3334 4.13329 20.7334 5.58663 19.9468 6.59996C19.1068 7.69329 17.6401 8.54663 16.2268 8.49329C15.9734 7.07996 16.6268 5.62663 17.4268 4.65329C18.3201 3.58663 19.8268 2.75996 21.1201 2.66663Z"
				fill="#0F0F0F" />
		</symbol>
		<symbol id="orange-check" viewBox="0 0 63 62" fill="none"
			xmlns="http://www.w3.org/2000/svg">
			<path
				d="M31.5003 56.8333C45.7087 56.8333 57.3337 45.2083 57.3337 31C57.3337 16.7917 45.7087 5.16666 31.5003 5.16666C17.292 5.16666 5.66699 16.7917 5.66699 31C5.66699 45.2083 17.292 56.8333 31.5003 56.8333Z"
				fill="url(#paint0_linear_102_5792)" />
			<path d="M20.5205 31.0052L27.8313 38.316L42.4788 23.6943" stroke="#FAFAFA"
				stroke-width="4" stroke-linecap="round" stroke-linejoin="round" />
			<defs>
				<linearGradient id="paint0_linear_102_5792" x1="12.5" y1="5" x2="48.5" y2="57"
					gradientUnits="userSpaceOnUse">
					<stop stop-color="#FD591E" />
					<stop offset="1" stop-color="#C9311D" />
				</linearGradient>
			</defs>
		</symbol>

	</defs>
</svg>