<svg width="92" height="30" viewBox="0 0 92 30" fill="none" xmlns="http://www.w3.org/2000/svg">
<path d="M1.90274 23.5714C1.43438 23.5714 1.2002 23.3814 1.2002 23.0014V22.8814C1.2002 22.6414 1.39535 22.2814 1.78565 21.8014C2.17596 21.3014 2.3711 20.8014 2.3711 20.3014V5.54143C2.3711 5.04144 2.17596 4.55143 1.78565 4.07143C1.39535 3.57144 1.2002 3.20143 1.2002 2.96143V2.84143C1.2002 2.46144 1.43438 2.27143 1.90274 2.27143H8.34274C8.8111 2.27143 9.04529 2.46144 9.04529 2.84143V2.96143C9.04529 3.20143 8.82087 3.57144 8.37201 4.07143C7.94269 4.55143 7.72801 5.04144 7.72801 5.54143V19.5214C7.72801 20.0614 7.8451 20.5214 8.07929 20.9014C8.33298 21.2814 8.69401 21.4714 9.16238 21.4714H12.2067C12.7532 21.4714 13.2508 21.2514 13.6996 20.8114C14.168 20.3714 14.5193 19.8814 14.7535 19.3414C15.0072 18.8014 15.2901 18.3114 15.6024 17.8714C15.9146 17.4314 16.2171 17.2114 16.5098 17.2114H16.9197C17.4075 17.2114 17.6027 17.4614 17.5051 17.9614L16.744 22.6114C16.6269 23.2515 16.2854 23.5714 15.7195 23.5714H1.90274ZM26.5328 23.8714C24.269 23.8714 22.3468 23.1615 20.766 21.7414C19.2048 20.3014 18.4242 18.5014 18.4242 16.3414C18.4242 14.1814 19.2048 12.4014 20.766 11.0014C22.3272 9.58142 24.1812 8.87143 26.3279 8.87143C28.5526 8.87143 30.4455 9.58142 32.0068 11.0014C33.5679 12.4214 34.3486 14.2214 34.3486 16.4014C34.3486 18.5614 33.5875 20.3514 32.0654 21.7714C30.5432 23.1714 28.699 23.8714 26.5328 23.8714ZM27.1475 22.4014C28.3964 22.4014 29.021 21.1714 29.021 18.7114C29.021 17.8114 28.8941 16.7414 28.6404 15.5014C28.4063 14.2614 27.9965 13.0914 27.411 11.9914C26.845 10.8914 26.2108 10.3414 25.5083 10.3414C24.8252 10.3414 24.3374 10.6514 24.0446 11.2714C23.7519 11.8914 23.6055 12.8314 23.6055 14.0914C23.6055 14.7514 23.6835 15.5314 23.8397 16.4314C23.9957 17.3314 24.2104 18.2414 24.4837 19.1614C24.7568 20.0614 25.1277 20.8314 25.5961 21.4714C26.0839 22.0914 26.601 22.4014 27.1475 22.4014ZM42.1034 23.8414C40.2299 23.8414 38.6881 23.5215 37.4783 22.8814C36.2683 22.2214 35.6634 21.3714 35.6634 20.3314C35.6634 19.6914 35.8486 19.2114 36.2196 18.8914C36.6097 18.5714 37.1172 18.4114 37.7418 18.4114C38.4052 18.4114 38.9321 18.6314 39.3225 19.0714C39.7127 19.4914 39.9761 19.9614 40.1129 20.4814C40.2494 20.9814 40.4836 21.4515 40.8154 21.8914C41.147 22.3114 41.5765 22.5214 42.1034 22.5214C43.1572 22.5214 43.6841 21.9714 43.6841 20.8714C43.6841 20.1514 43.4108 19.5814 42.8645 19.1614C42.3376 18.7414 41.6936 18.4214 40.9325 18.2014C40.1714 17.9814 39.4103 17.7314 38.6492 17.4514C37.9076 17.1714 37.2636 16.7014 36.7172 16.0414C36.1903 15.3814 35.9268 14.5114 35.9268 13.4314C35.9268 12.0914 36.5025 11.0014 37.6539 10.1614C38.8052 9.30143 40.2885 8.87143 42.1034 8.87143C43.9183 8.87143 45.3916 9.22142 46.5236 9.92143C47.6748 10.6214 48.2507 11.4714 48.2507 12.4714C48.2507 12.9914 48.0554 13.4314 47.6652 13.7914C47.2943 14.1314 46.8358 14.3014 46.2894 14.3014C45.6454 14.3014 45.1379 14.0914 44.7672 13.6714C44.3963 13.2514 44.1427 12.7914 44.0061 12.2914C43.889 11.7714 43.6937 11.3014 43.4207 10.8814C43.1668 10.4614 42.8156 10.2514 42.3668 10.2514C41.9374 10.2514 41.5959 10.4214 41.3423 10.7614C41.1081 11.1014 40.991 11.5014 40.991 11.9614C40.991 12.7014 41.2447 13.3014 41.7521 13.7614C42.279 14.2214 42.9034 14.5714 43.6256 14.8114C44.367 15.0514 45.0988 15.3114 45.821 15.5914C46.5625 15.8714 47.187 16.3314 47.6945 16.9714C48.2214 17.5914 48.4849 18.4114 48.4849 19.4314C48.4849 20.7114 47.909 21.7714 46.7578 22.6114C45.6257 23.4315 44.0743 23.8414 42.1034 23.8414ZM57.8923 23.8714C55.6287 23.8714 53.7063 23.1615 52.1255 21.7414C50.5645 20.3014 49.7837 18.5014 49.7837 16.3414C49.7837 14.1814 50.5645 12.4014 52.1255 11.0014C53.6868 9.58142 55.5408 8.87143 57.6874 8.87143C59.9121 8.87143 61.8052 9.58142 63.3663 11.0014C64.9276 12.4214 65.7081 14.2214 65.7081 16.4014C65.7081 18.5614 64.947 20.3514 63.4248 21.7714C61.9026 23.1714 60.0585 23.8714 57.8923 23.8714ZM58.507 22.4014C59.7561 22.4014 60.3805 21.1714 60.3805 18.7114C60.3805 17.8114 60.2537 16.7414 59.9999 15.5014C59.7657 14.2614 59.3559 13.0914 58.7705 11.9914C58.2047 10.8914 57.5703 10.3414 56.8677 10.3414C56.1848 10.3414 55.6968 10.6514 55.4041 11.2714C55.1114 11.8914 54.965 12.8314 54.965 14.0914C54.965 14.7514 55.0432 15.5314 55.1992 16.4314C55.3554 17.3314 55.5701 18.2414 55.8432 19.1614C56.1165 20.0614 56.4872 20.8314 56.9555 21.4714C57.4436 22.0914 57.9606 22.4014 58.507 22.4014ZM70.6527 7.40143C69.677 7.40143 68.8769 7.12142 68.2523 6.56143C67.628 5.98142 67.3156 5.26142 67.3156 4.40143C67.3156 3.54144 67.628 2.83142 68.2523 2.27143C68.8769 1.69143 69.677 1.40143 70.6527 1.40143C71.6479 1.40143 72.4481 1.69143 73.053 2.27143C73.6776 2.83142 73.9898 3.54144 73.9898 4.40143C73.9898 5.26142 73.6776 5.98142 73.053 6.56143C72.4481 7.12142 71.6479 7.40143 70.6527 7.40143ZM68.1645 29.5414C66.7205 29.5414 65.5789 29.2714 64.7396 28.7314C63.9005 28.2114 63.4809 27.4114 63.4809 26.3314C63.4809 25.6914 63.6858 25.1715 64.0956 24.7714C64.5054 24.3714 65.0227 24.1714 65.647 24.1714C66.213 24.1714 66.662 24.2914 66.9936 24.5314C67.3254 24.7914 67.5596 25.1014 67.6961 25.4614C67.8329 25.8414 67.9401 26.2114 68.0181 26.5714C68.1158 26.9314 68.2523 27.2314 68.4279 27.4714C68.6232 27.7314 68.8867 27.8614 69.2183 27.8614C69.5307 27.8614 69.7843 27.7414 69.9794 27.5014C70.1941 27.2614 70.3014 26.9614 70.3014 26.6014C70.3014 26.1015 70.1941 25.6314 69.9794 25.1914C69.7843 24.7714 69.5696 24.4314 69.3354 24.1714C69.1012 23.9314 68.8769 23.6314 68.6621 23.2714C68.467 22.8915 68.3694 22.4914 68.3694 22.0714V14.5714C68.3694 14.0514 68.1743 13.5514 67.7839 13.0714C67.3938 12.5914 67.1985 12.2514 67.1985 12.0514V11.9314C67.1985 11.7114 67.4132 11.4814 67.8425 11.2414L72.2919 9.02143C72.7018 8.84143 73.0238 8.82144 73.2579 8.96143C73.5118 9.10142 73.6385 9.33144 73.6385 9.65143V23.7814C73.6385 25.3815 73.2579 26.6514 72.4968 27.5914C71.4236 28.8915 69.9794 29.5414 68.1645 29.5414ZM89.5907 20.3014C89.6492 20.7814 89.7565 21.1714 89.9127 21.4714C90.0883 21.7515 90.2541 21.9315 90.4103 22.0114C90.5859 22.0914 90.7419 22.1914 90.8787 22.3114C91.0152 22.4314 91.0836 22.5814 91.0836 22.7614C91.0836 23.4214 89.9808 23.7514 87.7757 23.7514C86.8779 23.7514 86.2046 23.6415 85.7559 23.4214C85.3265 23.2014 85.0534 22.8315 84.9363 22.3114C84.1946 23.3514 82.9554 23.8714 81.2187 23.8714C79.5794 23.8714 78.2425 23.4814 77.2083 22.7014C76.1934 21.9214 75.6861 20.7914 75.6861 19.3114C75.6861 17.8714 76.1934 16.7514 77.2083 15.9514C78.223 15.1314 79.4719 14.7214 80.9552 14.7214C82.1065 14.7214 83.0921 14.9714 83.9117 15.4714V15.3814C83.7165 13.4014 83.4921 12.0614 83.2385 11.3614C83.0043 10.6614 82.5359 10.3114 81.8334 10.3114C81.3845 10.3114 81.0234 10.5214 80.7503 10.9414C80.477 11.3614 80.2721 11.8214 80.1356 12.3214C80.0185 12.8214 79.7843 13.2814 79.433 13.7014C79.0817 14.1214 78.6134 14.3314 78.0279 14.3314C77.4228 14.3314 76.9252 14.1514 76.535 13.7914C76.1641 13.4314 75.9788 12.9614 75.9788 12.3814C75.9788 11.2214 76.5446 10.3514 77.6767 9.77143C78.8085 9.17143 80.1941 8.87143 81.8334 8.87143C83.7848 8.87143 85.3948 9.42143 86.6634 10.5214C87.9514 11.6014 88.7125 13.0714 88.9467 14.9314L89.5907 20.3014ZM82.8287 22.3414C83.2774 22.3414 83.6385 22.1214 83.9117 21.6814C84.2045 21.2414 84.3508 20.7414 84.3508 20.1814L84.2337 18.8014C84.0385 17.1414 83.4336 16.3114 82.4188 16.3114C81.9699 16.3114 81.6088 16.5014 81.3357 16.8814C81.0625 17.2414 80.9259 17.7314 80.9259 18.3514C80.9259 19.4714 81.0917 20.4214 81.4236 21.2014C81.7748 21.9615 82.2432 22.3414 82.8287 22.3414Z" fill="#FAFAFA"/>
<path d="M23.7811 7.19148C23.2542 7.33148 22.854 7.20149 22.5809 6.80149C22.3077 6.32149 22.376 5.90148 22.7859 5.54148L27.7915 1.52149C28.5526 0.921485 29.138 1.04148 29.5479 1.88148L30.5139 3.92149C30.6895 4.28149 30.7188 4.62149 30.6017 4.94149C30.4846 5.24149 30.2211 5.44148 29.8113 5.54148L23.7811 7.19148Z" fill="#FD591E"/>
<path d="M55.3641 7.19148C54.8372 7.33148 54.437 7.20149 54.164 6.80149C53.8907 6.32149 53.959 5.90148 54.3689 5.54148L59.3745 1.52149C60.1356 0.921485 60.7211 1.04148 61.1309 1.88148L62.0969 3.92149C62.2725 4.28149 62.3018 4.62149 62.1847 4.94149C62.0676 5.24149 61.8041 5.44148 61.3943 5.54148L55.3641 7.19148Z" fill="#FD591E"/>
<path d="M80.3641 7.19148C79.8372 7.33148 79.437 7.20149 79.164 6.80149C78.8907 6.32149 78.959 5.90148 79.3689 5.54148L84.3745 1.52149C85.1356 0.921485 85.7211 1.04148 86.1309 1.88148L87.0969 3.92149C87.2725 4.28149 87.3018 4.62149 87.1847 4.94149C87.0676 5.24149 86.8041 5.44148 86.3943 5.54148L80.3641 7.19148Z" fill="#FD591E"/>
</svg>
